<?xml version="1.0" encoding="UTF-8" standalone="no"?>
<!DOCTYPE svg PUBLIC "-//W3C//DTD SVG 1.1//EN"
 "http://www.w3.org/Graphics/SVG/1.1/DTD/svg11.dtd">
<!-- Generated by graphviz version 2.40.1 (20161225.0304)
 -->
<!-- Title: %3 Pages: 1 -->
<svg width="278pt" height="975pt"
 viewBox="0.00 0.00 278.00 975.00" xmlns="http://www.w3.org/2000/svg" xmlns:xlink="http://www.w3.org/1999/xlink">
<g id="graph0" class="graph" transform="scale(1 1) rotate(0) translate(4 971)">
<title>%3</title>
<polygon fill="#ffffff" stroke="transparent" points="-4,4 -4,-971 274,-971 274,4 -4,4"/>
<!-- n0 -->
<g id="node1" class="node">
<title>n0</title>
<polygon fill="none" stroke="#000000" points="162,-967 108,-967 108,-944 162,-944 162,-967"/>
<text text-anchor="middle" x="135" y="-951.8" font-family="Times,serif" font-size="14.00" fill="#000000">IDLE</text>
</g>
<!-- n1 -->
<g id="node2" class="node">
<title>n1</title>
<polygon fill="none" stroke="#000000" points="270,-908 0,-908 0,-885 270,-885 270,-908"/>
<text text-anchor="middle" x="135" y="-892.8" font-family="Times,serif" font-size="14.00" fill="#000000">RX / Connection REQ / #1 / CONNECT_IND</text>
</g>
<!-- n0&#45;&gt;n1 -->
<g id="edge1" class="edge">
<title>n0&#45;&gt;n1</title>
<path fill="none" stroke="#000000" d="M135,-943.8435C135,-936.5707 135,-926.9803 135,-918.3339"/>
<polygon fill="#000000" stroke="#000000" points="138.5001,-918.1323 135,-908.1323 131.5001,-918.1323 138.5001,-918.1323"/>
</g>
<!-- n2 -->
<g id="node3" class="node">
<title>n2</title>
<polygon fill="none" stroke="#000000" points="220.5,-849 49.5,-849 49.5,-826 220.5,-826 220.5,-849"/>
<text text-anchor="middle" x="135" y="-833.8" font-family="Times,serif" font-size="14.00" fill="#000000">TX / SMP / Pairing Request</text>
</g>
<!-- n1&#45;&gt;n2 -->
<g id="edge2" class="edge">
<title>n1&#45;&gt;n2</title>
<path fill="none" stroke="#000000" d="M135,-884.8435C135,-877.5707 135,-867.9803 135,-859.3339"/>
<polygon fill="#000000" stroke="#000000" points="138.5001,-859.1323 135,-849.1323 131.5001,-859.1323 138.5001,-859.1323"/>
</g>
<!-- n3 -->
<g id="node4" class="node">
<title>n3</title>
<polygon fill="none" stroke="#000000" points="225,-790 45,-790 45,-767 225,-767 225,-790"/>
<text text-anchor="middle" x="135" y="-774.8" font-family="Times,serif" font-size="14.00" fill="#000000">RX / SMP / Pairing Response</text>
</g>
<!-- n2&#45;&gt;n3 -->
<g id="edge3" class="edge">
<title>n2&#45;&gt;n3</title>
<path fill="none" stroke="#000000" d="M135,-825.8435C135,-818.5707 135,-808.9803 135,-800.3339"/>
<polygon fill="#000000" stroke="#000000" points="138.5001,-800.1323 135,-790.1323 131.5001,-800.1323 138.5001,-800.1323"/>
</g>
<!-- n4 -->
<g id="node5" class="node">
<title>n4</title>
<polygon fill="none" stroke="#000000" points="222,-731 48,-731 48,-708 222,-708 222,-731"/>
<text text-anchor="middle" x="135" y="-715.8" font-family="Times,serif" font-size="14.00" fill="#000000">TX / SMP / Pairing Confirm</text>
</g>
<!-- n3&#45;&gt;n4 -->
<g id="edge4" class="edge">
<title>n3&#45;&gt;n4</title>
<path fill="none" stroke="#000000" d="M135,-766.8435C135,-759.5707 135,-749.9803 135,-741.3339"/>
<polygon fill="#000000" stroke="#000000" points="138.5001,-741.1323 135,-731.1323 131.5001,-741.1323 138.5001,-741.1323"/>
</g>
<!-- n5 -->
<g id="node6" class="node">
<title>n5</title>
<polygon fill="none" stroke="#000000" points="222.5,-672 47.5,-672 47.5,-649 222.5,-649 222.5,-672"/>
<text text-anchor="middle" x="135" y="-656.8" font-family="Times,serif" font-size="14.00" fill="#000000">RX / SMP / Pairing Confirm</text>
</g>
<!-- n4&#45;&gt;n5 -->
<g id="edge5" class="edge">
<title>n4&#45;&gt;n5</title>
<path fill="none" stroke="#000000" d="M135,-707.8435C135,-700.5707 135,-690.9803 135,-682.3339"/>
<polygon fill="#000000" stroke="#000000" points="138.5001,-682.1323 135,-672.1323 131.5001,-682.1323 138.5001,-682.1323"/>
</g>
<!-- n6 -->
<g id="node7" class="node">
<title>n6</title>
<polygon fill="none" stroke="#000000" points="222,-613 48,-613 48,-590 222,-590 222,-613"/>
<text text-anchor="middle" x="135" y="-597.8" font-family="Times,serif" font-size="14.00" fill="#000000">TX / SMP / Pairing Random</text>
</g>
<!-- n5&#45;&gt;n6 -->
<g id="edge6" class="edge">
<title>n5&#45;&gt;n6</title>
<path fill="none" stroke="#000000" d="M135,-648.8435C135,-641.5707 135,-631.9803 135,-623.3339"/>
<polygon fill="#000000" stroke="#000000" points="138.5001,-623.1323 135,-613.1323 131.5001,-623.1323 138.5001,-623.1323"/>
</g>
<!-- n7 -->
<g id="node8" class="node">
<title>n7</title>
<polygon fill="none" stroke="#000000" points="222.5,-554 47.5,-554 47.5,-531 222.5,-531 222.5,-554"/>
<text text-anchor="middle" x="135" y="-538.8" font-family="Times,serif" font-size="14.00" fill="#000000">RX / SMP / Pairing Random</text>
</g>
<!-- n6&#45;&gt;n7 -->
<g id="edge7" class="edge">
<title>n6&#45;&gt;n7</title>
<path fill="none" stroke="#000000" d="M135,-589.8435C135,-582.5707 135,-572.9803 135,-564.3339"/>
<polygon fill="#000000" stroke="#000000" points="138.5001,-564.1323 135,-554.1323 131.5001,-564.1323 138.5001,-564.1323"/>
</g>
<!-- n8 -->
<g id="node9" class="node">
<title>n8</title>
<polygon fill="none" stroke="#000000" points="241.5,-495 28.5,-495 28.5,-472 241.5,-472 241.5,-495"/>
<text text-anchor="middle" x="135" y="-479.8" font-family="Times,serif" font-size="14.00" fill="#000000">TX / LL Ctrl REQ / LL_ENC_REQ</text>
</g>
<!-- n7&#45;&gt;n8 -->
<g id="edge8" class="edge">
<title>n7&#45;&gt;n8</title>
<path fill="none" stroke="#000000" d="M135,-530.8435C135,-523.5707 135,-513.9803 135,-505.3339"/>
<polygon fill="#000000" stroke="#000000" points="138.5001,-505.1323 135,-495.1323 131.5001,-505.1323 138.5001,-505.1323"/>
</g>
<!-- n9 -->
<g id="node10" class="node">
<title>n9</title>
<polygon fill="none" stroke="#000000" points="239,-436 31,-436 31,-413 239,-413 239,-436"/>
<text text-anchor="middle" x="135" y="-420.8" font-family="Times,serif" font-size="14.00" fill="#000000">RX / LL Ctrl RSP / LL_ENC_RSP</text>
</g>
<!-- n8&#45;&gt;n9 -->
<g id="edge9" class="edge">
<title>n8&#45;&gt;n9</title>
<path fill="none" stroke="#000000" d="M135,-471.8435C135,-464.5707 135,-454.9803 135,-446.3339"/>
<polygon fill="#000000" stroke="#000000" points="138.5001,-446.1323 135,-436.1323 131.5001,-446.1323 138.5001,-446.1323"/>
</g>
<!-- n10 -->
<g id="node11" class="node">
<title>n10</title>
<polygon fill="none" stroke="#000000" points="266.5,-377 3.5,-377 3.5,-354 266.5,-354 266.5,-377"/>
<text text-anchor="middle" x="135" y="-361.8" font-family="Times,serif" font-size="14.00" fill="#000000">RX / LL Ctrl REQ / LL_START_ENC_REQ</text>
</g>
<!-- n9&#45;&gt;n10 -->
<g id="edge10" class="edge">
<title>n9&#45;&gt;n10</title>
<path fill="none" stroke="#000000" d="M135,-412.8435C135,-405.5707 135,-395.9803 135,-387.3339"/>
<polygon fill="#000000" stroke="#000000" points="138.5001,-387.1323 135,-377.1323 131.5001,-387.1323 138.5001,-387.1323"/>
</g>
<!-- n11 -->
<g id="node12" class="node">
<title>n11</title>
<polygon fill="none" stroke="#000000" points="263.5,-318 6.5,-318 6.5,-295 263.5,-295 263.5,-318"/>
<text text-anchor="middle" x="135" y="-302.8" font-family="Times,serif" font-size="14.00" fill="#000000">TX / LL Ctrl RSP / LL_START_ENC_RSP</text>
</g>
<!-- n10&#45;&gt;n11 -->
<g id="edge11" class="edge">
<title>n10&#45;&gt;n11</title>
<path fill="none" stroke="#000000" d="M135,-353.8435C135,-346.5707 135,-336.9803 135,-328.3339"/>
<polygon fill="#000000" stroke="#000000" points="138.5001,-328.1323 135,-318.1323 131.5001,-328.1323 138.5001,-328.1323"/>
</g>
<!-- n12 -->
<g id="node13" class="node">
<title>n12</title>
<polygon fill="none" stroke="#000000" points="263.5,-259 6.5,-259 6.5,-236 263.5,-236 263.5,-259"/>
<text text-anchor="middle" x="135" y="-243.8" font-family="Times,serif" font-size="14.00" fill="#000000">RX / LL Ctrl RSP / LL_START_ENC_RSP</text>
</g>
<!-- n11&#45;&gt;n12 -->
<g id="edge12" class="edge">
<title>n11&#45;&gt;n12</title>
<path fill="none" stroke="#000000" d="M135,-294.8435C135,-287.5707 135,-277.9803 135,-269.3339"/>
<polygon fill="#000000" stroke="#000000" points="138.5001,-269.1323 135,-259.1323 131.5001,-269.1323 138.5001,-269.1323"/>
</g>
<!-- n13 -->
<g id="node14" class="node">
<title>n13</title>
<polygon fill="none" stroke="#000000" points="242.5,-200 27.5,-200 27.5,-177 242.5,-177 242.5,-200"/>
<text text-anchor="middle" x="135" y="-184.8" font-family="Times,serif" font-size="14.00" fill="#000000">RX / SMP / Encryption Information</text>
</g>
<!-- n12&#45;&gt;n13 -->
<g id="edge13" class="edge">
<title>n12&#45;&gt;n13</title>
<path fill="none" stroke="#000000" d="M135,-235.8435C135,-228.5707 135,-218.9803 135,-210.3339"/>
<polygon fill="#000000" stroke="#000000" points="138.5001,-210.1323 135,-200.1323 131.5001,-210.1323 138.5001,-210.1323"/>
</g>
<!-- n14 -->
<g id="node15" class="node">
<title>n14</title>
<polygon fill="none" stroke="#000000" points="235,-141 35,-141 35,-118 235,-118 235,-141"/>
<text text-anchor="middle" x="135" y="-125.8" font-family="Times,serif" font-size="14.00" fill="#000000">RX / SMP / Master Identification</text>
</g>
<!-- n13&#45;&gt;n14 -->
<g id="edge14" class="edge">
<title>n13&#45;&gt;n14</title>
<path fill="none" stroke="#000000" d="M135,-176.8435C135,-169.5707 135,-159.9803 135,-151.3339"/>
<polygon fill="#000000" stroke="#000000" points="138.5001,-151.1323 135,-141.1323 131.5001,-151.1323 138.5001,-151.1323"/>
</g>
<!-- n15 -->
<g id="node16" class="node">
<title>n15</title>
<polygon fill="none" stroke="#000000" points="242,-82 28,-82 28,-59 242,-59 242,-82"/>
<text text-anchor="middle" x="135" y="-66.8" font-family="Times,serif" font-size="14.00" fill="#000000">TX / SMP / Encryption Information</text>
</g>
<!-- n14&#45;&gt;n15 -->
<g id="edge15" class="edge">
<title>n14&#45;&gt;n15</title>
<path fill="none" stroke="#000000" d="M135,-117.8435C135,-110.5707 135,-100.9803 135,-92.3339"/>
<polygon fill="#000000" stroke="#000000" points="138.5001,-92.1323 135,-82.1323 131.5001,-92.1323 138.5001,-92.1323"/>
</g>
<!-- n16 -->
<g id="node17" class="node">
<title>n16</title>
<polygon fill="none" stroke="#000000" points="235,-23 35,-23 35,0 235,0 235,-23"/>
<text text-anchor="middle" x="135" y="-7.8" font-family="Times,serif" font-size="14.00" fill="#000000">TX / SMP / Master Identification</text>
</g>
<!-- n15&#45;&gt;n16 -->
<g id="edge16" class="edge">
<title>n15&#45;&gt;n16</title>
<path fill="none" stroke="#000000" d="M135,-58.8435C135,-51.5707 135,-41.9803 135,-33.3339"/>
<polygon fill="#000000" stroke="#000000" points="138.5001,-33.1323 135,-23.1323 131.5001,-33.1323 138.5001,-33.1323"/>
</g>
</g>
</svg>
