<?xml version="1.0" encoding="UTF-8" standalone="no"?>
<!DOCTYPE svg PUBLIC "-//W3C//DTD SVG 1.1//EN"
 "http://www.w3.org/Graphics/SVG/1.1/DTD/svg11.dtd">
<!-- Generated by graphviz version 2.40.1 (20161225.0304)
 -->
<!-- Title: %3 Pages: 1 -->
<svg width="435pt" height="1255pt"
 viewBox="0.00 0.00 434.50 1255.00" xmlns="http://www.w3.org/2000/svg" xmlns:xlink="http://www.w3.org/1999/xlink">
<g id="graph0" class="graph" transform="scale(1 1) rotate(0) translate(4 1251)">
<title>%3</title>
<polygon fill="#ffffff" stroke="transparent" points="-4,4 -4,-1251 430.5,-1251 430.5,4 -4,4"/>
<!-- n0 -->
<g id="node1" class="node">
<title>n0</title>
<polygon fill="none" stroke="#000000" points="318.5,-1247 264.5,-1247 264.5,-1224 318.5,-1224 318.5,-1247"/>
<text text-anchor="middle" x="291.5" y="-1231.8" font-family="Times,serif" font-size="14.00" fill="#000000">IDLE</text>
</g>
<!-- n1 -->
<g id="node2" class="node">
<title>n1</title>
<polygon fill="none" stroke="#000000" points="426.5,-1188 156.5,-1188 156.5,-1152 426.5,-1152 426.5,-1188"/>
<text text-anchor="middle" x="291.5" y="-1166.3" font-family="Times,serif" font-size="14.00" fill="#000000">RX / Connection REQ / #1 / CONNECT_IND</text>
</g>
<!-- n0&#45;&gt;n1 -->
<g id="edge1" class="edge">
<title>n0&#45;&gt;n1</title>
<path fill="none" stroke="#000000" d="M291.5,-1223.7899C291.5,-1216.649 291.5,-1207.1937 291.5,-1198.2043"/>
<polygon fill="#000000" stroke="#000000" points="295.0001,-1198.0322 291.5,-1188.0322 288.0001,-1198.0323 295.0001,-1198.0322"/>
</g>
<!-- n17 -->
<g id="node18" class="node">
<title>n17</title>
<polygon fill="none" stroke="#000000" points="261,-1116 90,-1116 90,-1080 261,-1080 261,-1116"/>
<text text-anchor="middle" x="175.5" y="-1094.3" font-family="Times,serif" font-size="14.00" fill="#000000">TX / SMP / Pairing Request</text>
</g>
<!-- n1&#45;&gt;n17 -->
<g id="edge2" class="edge">
<title>n1&#45;&gt;n17</title>
<path fill="none" stroke="#000000" d="M262.2283,-1151.8314C247.3912,-1142.6221 229.1985,-1131.3301 213.3138,-1121.4706"/>
<polygon fill="#000000" stroke="#000000" points="215.1045,-1118.4628 204.7623,-1116.1628 211.413,-1124.4102 215.1045,-1118.4628"/>
</g>
<!-- n2 -->
<g id="node3" class="node">
<title>n2</title>
<polygon fill="none" stroke="#000000" points="263,-540 0,-540 0,-504 263,-504 263,-540"/>
<text text-anchor="middle" x="131.5" y="-518.3" font-family="Times,serif" font-size="14.00" fill="#000000">RX / LL Ctrl REQ / LL_START_ENC_REQ</text>
</g>
<!-- n12 -->
<g id="node13" class="node">
<title>n12</title>
<polygon fill="none" stroke="#000000" points="261,-468 4,-468 4,-432 261,-432 261,-468"/>
<text text-anchor="middle" x="132.5" y="-446.3" font-family="Times,serif" font-size="14.00" fill="#000000">TX / LL Ctrl RSP / LL_START_ENC_RSP</text>
</g>
<!-- n2&#45;&gt;n12 -->
<g id="edge3" class="edge">
<title>n2&#45;&gt;n12</title>
<path fill="none" stroke="#000000" d="M131.7523,-503.8314C131.8593,-496.131 131.9865,-486.9743 132.1053,-478.4166"/>
<polygon fill="#000000" stroke="#000000" points="135.6049,-478.4609 132.2443,-468.4133 128.6056,-478.3637 135.6049,-478.4609"/>
</g>
<!-- n3 -->
<g id="node4" class="node">
<title>n3</title>
<polygon fill="none" stroke="#000000" points="242.5,-612 34.5,-612 34.5,-576 242.5,-576 242.5,-612"/>
<text text-anchor="middle" x="138.5" y="-590.3" font-family="Times,serif" font-size="14.00" fill="#000000">RX / LL Ctrl RSP / LL_ENC_RSP</text>
</g>
<!-- n3&#45;&gt;n2 -->
<g id="edge4" class="edge">
<title>n3&#45;&gt;n2</title>
<path fill="none" stroke="#000000" d="M136.7336,-575.8314C135.985,-568.131 135.0947,-558.9743 134.2627,-550.4166"/>
<polygon fill="#000000" stroke="#000000" points="137.7415,-550.0276 133.2902,-540.4133 130.7744,-550.7051 137.7415,-550.0276"/>
</g>
<!-- n4 -->
<g id="node5" class="node">
<title>n4</title>
<polygon fill="none" stroke="#000000" points="262,-396 5,-396 5,-360 262,-360 262,-396"/>
<text text-anchor="middle" x="133.5" y="-374.3" font-family="Times,serif" font-size="14.00" fill="#000000">RX / LL Ctrl RSP / LL_START_ENC_RSP</text>
</g>
<!-- n5 -->
<g id="node6" class="node">
<title>n5</title>
<polygon fill="none" stroke="#000000" points="252,-324 37,-324 37,-288 252,-288 252,-324"/>
<text text-anchor="middle" x="144.5" y="-302.3" font-family="Times,serif" font-size="14.00" fill="#000000">RX / SMP / Encryption Information</text>
</g>
<!-- n4&#45;&gt;n5 -->
<g id="edge5" class="edge">
<title>n4&#45;&gt;n5</title>
<path fill="none" stroke="#000000" d="M136.2758,-359.8314C137.4522,-352.131 138.8511,-342.9743 140.1586,-334.4166"/>
<polygon fill="#000000" stroke="#000000" points="143.6364,-334.8272 141.6869,-324.4133 136.7167,-333.7699 143.6364,-334.8272"/>
</g>
<!-- n6 -->
<g id="node7" class="node">
<title>n6</title>
<polygon fill="none" stroke="#000000" points="244.5,-252 44.5,-252 44.5,-216 244.5,-216 244.5,-252"/>
<text text-anchor="middle" x="144.5" y="-230.3" font-family="Times,serif" font-size="14.00" fill="#000000">RX / SMP / Master Identification</text>
</g>
<!-- n5&#45;&gt;n6 -->
<g id="edge6" class="edge">
<title>n5&#45;&gt;n6</title>
<path fill="none" stroke="#000000" d="M144.5,-287.8314C144.5,-280.131 144.5,-270.9743 144.5,-262.4166"/>
<polygon fill="#000000" stroke="#000000" points="148.0001,-262.4132 144.5,-252.4133 141.0001,-262.4133 148.0001,-262.4132"/>
</g>
<!-- n13 -->
<g id="node14" class="node">
<title>n13</title>
<polygon fill="none" stroke="#000000" points="257.5,-180 43.5,-180 43.5,-144 257.5,-144 257.5,-180"/>
<text text-anchor="middle" x="150.5" y="-158.3" font-family="Times,serif" font-size="14.00" fill="#000000">TX / SMP / Encryption Information</text>
</g>
<!-- n6&#45;&gt;n13 -->
<g id="edge7" class="edge">
<title>n6&#45;&gt;n13</title>
<path fill="none" stroke="#000000" d="M146.0141,-215.8314C146.6558,-208.131 147.4188,-198.9743 148.1319,-190.4166"/>
<polygon fill="#000000" stroke="#000000" points="151.6229,-190.6694 148.9656,-180.4133 144.6471,-190.088 151.6229,-190.6694"/>
</g>
<!-- n7 -->
<g id="node8" class="node">
<title>n7</title>
<polygon fill="none" stroke="#000000" points="257,-900 82,-900 82,-864 257,-864 257,-900"/>
<text text-anchor="middle" x="169.5" y="-878.3" font-family="Times,serif" font-size="14.00" fill="#000000">RX / SMP / Pairing Confirm</text>
</g>
<!-- n16 -->
<g id="node17" class="node">
<title>n16</title>
<polygon fill="none" stroke="#000000" points="252.5,-828 78.5,-828 78.5,-792 252.5,-792 252.5,-828"/>
<text text-anchor="middle" x="165.5" y="-806.3" font-family="Times,serif" font-size="14.00" fill="#000000">TX / SMP / Pairing Random</text>
</g>
<!-- n7&#45;&gt;n16 -->
<g id="edge8" class="edge">
<title>n7&#45;&gt;n16</title>
<path fill="none" stroke="#000000" d="M168.4906,-863.8314C168.0628,-856.131 167.5541,-846.9743 167.0787,-838.4166"/>
<polygon fill="#000000" stroke="#000000" points="170.5724,-838.2037 166.523,-828.4133 163.5831,-838.592 170.5724,-838.2037"/>
</g>
<!-- n8 -->
<g id="node9" class="node">
<title>n8</title>
<polygon fill="none" stroke="#000000" points="245,-756 70,-756 70,-720 245,-720 245,-756"/>
<text text-anchor="middle" x="157.5" y="-734.3" font-family="Times,serif" font-size="14.00" fill="#000000">RX / SMP / Pairing Random</text>
</g>
<!-- n11 -->
<g id="node12" class="node">
<title>n11</title>
<polygon fill="none" stroke="#000000" points="257,-684 44,-684 44,-648 257,-648 257,-684"/>
<text text-anchor="middle" x="150.5" y="-662.3" font-family="Times,serif" font-size="14.00" fill="#000000">TX / LL Ctrl REQ / LL_ENC_REQ</text>
</g>
<!-- n8&#45;&gt;n11 -->
<g id="edge9" class="edge">
<title>n8&#45;&gt;n11</title>
<path fill="none" stroke="#000000" d="M155.7336,-719.8314C154.985,-712.131 154.0947,-702.9743 153.2627,-694.4166"/>
<polygon fill="#000000" stroke="#000000" points="156.7415,-694.0276 152.2902,-684.4133 149.7744,-694.7051 156.7415,-694.0276"/>
</g>
<!-- n9 -->
<g id="node10" class="node">
<title>n9</title>
<polygon fill="none" stroke="#000000" points="262.5,-1044 82.5,-1044 82.5,-1008 262.5,-1008 262.5,-1044"/>
<text text-anchor="middle" x="172.5" y="-1022.3" font-family="Times,serif" font-size="14.00" fill="#000000">RX / SMP / Pairing Response</text>
</g>
<!-- n15 -->
<g id="node16" class="node">
<title>n15</title>
<polygon fill="none" stroke="#000000" points="258.5,-972 84.5,-972 84.5,-936 258.5,-936 258.5,-972"/>
<text text-anchor="middle" x="171.5" y="-950.3" font-family="Times,serif" font-size="14.00" fill="#000000">TX / SMP / Pairing Confirm</text>
</g>
<!-- n9&#45;&gt;n15 -->
<g id="edge10" class="edge">
<title>n9&#45;&gt;n15</title>
<path fill="none" stroke="#000000" d="M172.2477,-1007.8314C172.1407,-1000.131 172.0135,-990.9743 171.8947,-982.4166"/>
<polygon fill="#000000" stroke="#000000" points="175.3944,-982.3637 171.7557,-972.4133 168.3951,-982.4609 175.3944,-982.3637"/>
</g>
<!-- n10 -->
<g id="node11" class="node">
<title>n10</title>
<polygon fill="none" stroke="#000000" points="395,-36 136,-36 136,0 395,0 395,-36"/>
<text text-anchor="middle" x="265.5" y="-14.3" font-family="Times,serif" font-size="14.00" fill="#000000">TX / LL Ctrl IND / LL_TERMINATE_IND</text>
</g>
<!-- n10&#45;&gt;n1 -->
<g id="edge11" class="edge">
<title>n10&#45;&gt;n1</title>
<path fill="none" stroke="#000000" d="M284.6979,-36.3709C293.8249,-46.1337 304.1119,-58.8226 310.5,-72 328.3335,-108.7869 329.5,-121.1184 329.5,-162 329.5,-1026 329.5,-1026 329.5,-1026 329.5,-1067.6319 314.4672,-1113.86 303.3119,-1142.433"/>
<polygon fill="#000000" stroke="#000000" points="300.0422,-1141.183 299.5588,-1151.7668 306.5368,-1143.7945 300.0422,-1141.183"/>
</g>
<!-- n11&#45;&gt;n3 -->
<g id="edge12" class="edge">
<title>n11&#45;&gt;n3</title>
<path fill="none" stroke="#000000" d="M147.4719,-647.8314C146.1885,-640.131 144.6624,-630.9743 143.2361,-622.4166"/>
<polygon fill="#000000" stroke="#000000" points="146.6653,-621.7018 141.5689,-612.4133 139.7606,-622.8526 146.6653,-621.7018"/>
</g>
<!-- n12&#45;&gt;n4 -->
<g id="edge13" class="edge">
<title>n12&#45;&gt;n4</title>
<path fill="none" stroke="#000000" d="M132.7523,-431.8314C132.8593,-424.131 132.9865,-414.9743 133.1053,-406.4166"/>
<polygon fill="#000000" stroke="#000000" points="136.6049,-406.4609 133.2443,-396.4133 129.6056,-406.3637 136.6049,-406.4609"/>
</g>
<!-- n14 -->
<g id="node15" class="node">
<title>n14</title>
<polygon fill="none" stroke="#000000" points="301.5,-108 101.5,-108 101.5,-72 301.5,-72 301.5,-108"/>
<text text-anchor="middle" x="201.5" y="-86.3" font-family="Times,serif" font-size="14.00" fill="#000000">TX / SMP / Master Identification</text>
</g>
<!-- n13&#45;&gt;n14 -->
<g id="edge14" class="edge">
<title>n13&#45;&gt;n14</title>
<path fill="none" stroke="#000000" d="M163.3695,-143.8314C169.1835,-135.6232 176.1696,-125.7606 182.5646,-116.7323"/>
<polygon fill="#000000" stroke="#000000" points="185.5331,-118.5966 188.4573,-108.4133 179.821,-114.5505 185.5331,-118.5966"/>
</g>
<!-- n14&#45;&gt;n1 -->
<g id="edge15" class="edge">
<title>n14&#45;&gt;n1</title>
<path fill="none" stroke="#000000" d="M230.5934,-108.2076C243.2875,-117.499 257.3351,-129.8347 266.5,-144 289.0513,-178.8554 291.5,-192.4855 291.5,-234 291.5,-1026 291.5,-1026 291.5,-1026 291.5,-1066.124 291.5,-1112.5369 291.5,-1141.5823"/>
<polygon fill="#000000" stroke="#000000" points="288.0001,-1141.8146 291.5,-1151.8146 295.0001,-1141.8147 288.0001,-1141.8146"/>
</g>
<!-- n14&#45;&gt;n10 -->
<g id="edge16" class="edge">
<title>n14&#45;&gt;n10</title>
<path fill="none" stroke="#000000" d="M217.6499,-71.8314C225.1717,-63.3694 234.2565,-53.1489 242.4804,-43.8971"/>
<polygon fill="#000000" stroke="#000000" points="245.1049,-46.2127 249.1327,-36.4133 239.873,-41.5621 245.1049,-46.2127"/>
</g>
<!-- n15&#45;&gt;n7 -->
<g id="edge17" class="edge">
<title>n15&#45;&gt;n7</title>
<path fill="none" stroke="#000000" d="M170.9953,-935.8314C170.7814,-928.131 170.5271,-918.9743 170.2894,-910.4166"/>
<polygon fill="#000000" stroke="#000000" points="173.7879,-910.3122 170.0115,-900.4133 166.7906,-910.5066 173.7879,-910.3122"/>
</g>
<!-- n16&#45;&gt;n8 -->
<g id="edge18" class="edge">
<title>n16&#45;&gt;n8</title>
<path fill="none" stroke="#000000" d="M163.4813,-791.8314C162.6257,-784.131 161.6083,-774.9743 160.6574,-766.4166"/>
<polygon fill="#000000" stroke="#000000" points="164.1289,-765.9656 159.5459,-756.4133 157.1717,-766.7386 164.1289,-765.9656"/>
</g>
<!-- n17&#45;&gt;n9 -->
<g id="edge19" class="edge">
<title>n17&#45;&gt;n9</title>
<path fill="none" stroke="#000000" d="M174.743,-1079.8314C174.4221,-1072.131 174.0406,-1062.9743 173.684,-1054.4166"/>
<polygon fill="#000000" stroke="#000000" points="177.1806,-1054.2589 173.2672,-1044.4133 170.1867,-1054.5503 177.1806,-1054.2589"/>
</g>
</g>
</svg>
