<?xml version="1.0" encoding="UTF-8" standalone="no"?>
<!DOCTYPE svg PUBLIC "-//W3C//DTD SVG 1.1//EN"
 "http://www.w3.org/Graphics/SVG/1.1/DTD/svg11.dtd">
<!-- Generated by graphviz version 2.40.1 (20161225.0304)
 -->
<!-- Title: %3 Pages: 1 -->
<svg width="1451pt" height="1388pt"
 viewBox="0.00 0.00 1451.00 1388.00" xmlns="http://www.w3.org/2000/svg" xmlns:xlink="http://www.w3.org/1999/xlink">
<g id="graph0" class="graph" transform="scale(1 1) rotate(0) translate(4 1384)">
<title>%3</title>
<polygon fill="#ffffff" stroke="transparent" points="-4,4 -4,-1384 1447,-1384 1447,4 -4,4"/>
<!-- n0 -->
<g id="node1" class="node">
<title>n0</title>
<polygon fill="none" stroke="#0000ff" points="209.5,-1380 155.5,-1380 155.5,-1357 209.5,-1357 209.5,-1380"/>
<text text-anchor="middle" x="182.5" y="-1364.8" font-family="Times,serif" font-size="14.00" fill="#000000">IDLE</text>
</g>
<!-- n1 -->
<g id="node2" class="node">
<title>n1</title>
<polygon fill="none" stroke="#000000" points="288,-1321 77,-1321 77,-1298 288,-1298 288,-1321"/>
<text text-anchor="middle" x="182.5" y="-1305.8" font-family="Times,serif" font-size="14.00" fill="#000000">TX / LL Ctrl / LL_VERSION_IND</text>
</g>
<!-- n0&#45;&gt;n1 -->
<g id="edge1" class="edge">
<title>n0&#45;&gt;n1</title>
<path fill="none" stroke="#000000" d="M182.5,-1356.8435C182.5,-1349.5707 182.5,-1339.9803 182.5,-1331.3339"/>
<polygon fill="#000000" stroke="#000000" points="186.0001,-1331.1323 182.5,-1321.1323 179.0001,-1331.1323 186.0001,-1331.1323"/>
</g>
<!-- n2 -->
<g id="node3" class="node">
<title>n2</title>
<polygon fill="none" stroke="#000000" points="355.5,-1262 143.5,-1262 143.5,-1239 355.5,-1239 355.5,-1262"/>
<text text-anchor="middle" x="249.5" y="-1246.8" font-family="Times,serif" font-size="14.00" fill="#000000">RX / LL Ctrl / LL_VERSION_IND</text>
</g>
<!-- n1&#45;&gt;n2 -->
<g id="edge2" class="edge">
<title>n1&#45;&gt;n2</title>
<path fill="none" stroke="#000000" d="M195.737,-1297.8435C205.0972,-1289.601 217.8378,-1278.3816 228.5671,-1268.9334"/>
<polygon fill="#000000" stroke="#000000" points="231.0986,-1271.3679 236.2905,-1262.1323 226.4724,-1266.1144 231.0986,-1271.3679"/>
</g>
<!-- n3 -->
<g id="node4" class="node">
<title>n3</title>
<polygon fill="none" stroke="#000000" points="445.5,-1203 229.5,-1203 229.5,-1180 445.5,-1180 445.5,-1203"/>
<text text-anchor="middle" x="337.5" y="-1187.8" font-family="Times,serif" font-size="14.00" fill="#000000">TX / LL Ctrl / LL_FEATURE_REQ</text>
</g>
<!-- n2&#45;&gt;n3 -->
<g id="edge3" class="edge">
<title>n2&#45;&gt;n3</title>
<path fill="none" stroke="#000000" d="M266.886,-1238.8435C279.662,-1230.2778 297.2332,-1218.4971 311.6513,-1208.8304"/>
<polygon fill="#000000" stroke="#000000" points="313.7933,-1211.6082 320.1501,-1203.1323 309.8951,-1205.794 313.7933,-1211.6082"/>
</g>
<!-- n4 -->
<g id="node5" class="node">
<title>n4</title>
<polygon fill="none" stroke="#000000" points="417,-1144 150,-1144 150,-1121 417,-1121 417,-1144"/>
<text text-anchor="middle" x="283.5" y="-1128.8" font-family="Times,serif" font-size="14.00" fill="#000000">RX / LL Ctrl / LL_SLAVE_FEATURE_REQ</text>
</g>
<!-- n2&#45;&gt;n4 -->
<g id="edge69" class="edge">
<title>n2&#45;&gt;n4</title>
<path fill="none" stroke="#000000" d="M238.4827,-1238.7944C226.5453,-1224.6181 210.4637,-1200.1364 220.5,-1180 226.83,-1167.2998 238.3533,-1157.1 249.8304,-1149.4566"/>
<polygon fill="#000000" stroke="#000000" points="251.8314,-1152.3348 258.5111,-1144.1109 248.1609,-1146.3743 251.8314,-1152.3348"/>
</g>
<!-- n3&#45;&gt;n4 -->
<g id="edge4" class="edge">
<title>n3&#45;&gt;n4</title>
<path fill="none" stroke="#000000" d="M326.8313,-1179.8435C319.5093,-1171.8434 309.6204,-1161.039 301.1384,-1151.7716"/>
<polygon fill="#000000" stroke="#000000" points="303.48,-1149.146 294.1465,-1144.1323 298.3162,-1153.8721 303.48,-1149.146"/>
</g>
<!-- n5 -->
<g id="node6" class="node">
<title>n5</title>
<polygon fill="none" stroke="#000000" points="390,-1085 177,-1085 177,-1062 390,-1062 390,-1085"/>
<text text-anchor="middle" x="283.5" y="-1069.8" font-family="Times,serif" font-size="14.00" fill="#000000">TX / LL Ctrl / LL_FEATURE_RSP</text>
</g>
<!-- n4&#45;&gt;n5 -->
<g id="edge5" class="edge">
<title>n4&#45;&gt;n5</title>
<path fill="none" stroke="#000000" d="M283.5,-1120.8435C283.5,-1113.5707 283.5,-1103.9803 283.5,-1095.3339"/>
<polygon fill="#000000" stroke="#000000" points="287.0001,-1095.1323 283.5,-1085.1323 280.0001,-1095.1323 287.0001,-1095.1323"/>
</g>
<!-- n6 -->
<g id="node7" class="node">
<title>n6</title>
<polygon fill="none" stroke="#000000" points="390.5,-1026 176.5,-1026 176.5,-1003 390.5,-1003 390.5,-1026"/>
<text text-anchor="middle" x="283.5" y="-1010.8" font-family="Times,serif" font-size="14.00" fill="#000000">RX / LL Ctrl / LL_FEATURE_RSP</text>
</g>
<!-- n5&#45;&gt;n6 -->
<g id="edge6" class="edge">
<title>n5&#45;&gt;n6</title>
<path fill="none" stroke="#000000" d="M283.5,-1061.8435C283.5,-1054.5707 283.5,-1044.9803 283.5,-1036.3339"/>
<polygon fill="#000000" stroke="#000000" points="287.0001,-1036.1323 283.5,-1026.1323 280.0001,-1036.1323 287.0001,-1036.1323"/>
</g>
<!-- n7 -->
<g id="node8" class="node">
<title>n7</title>
<polygon fill="none" stroke="#000000" points="930,-967 631,-967 631,-944 930,-944 930,-967"/>
<text text-anchor="middle" x="780.5" y="-951.8" font-family="Times,serif" font-size="14.00" fill="#000000">TX / LL Ctrl / LL_CONNECTION_PARAM_REQ</text>
</g>
<!-- n6&#45;&gt;n7 -->
<g id="edge7" class="edge">
<title>n6&#45;&gt;n7</title>
<path fill="none" stroke="#000000" d="M380.5064,-1002.9841C464.6079,-993.0003 586.145,-978.5723 673.1472,-968.2441"/>
<polygon fill="#000000" stroke="#000000" points="673.7969,-971.6916 683.3145,-967.0371 672.9716,-964.7404 673.7969,-971.6916"/>
</g>
<!-- n32 -->
<g id="node33" class="node">
<title>n32</title>
<polygon fill="none" stroke="#000000" points="429.5,-495 247.5,-495 247.5,-472 429.5,-472 429.5,-495"/>
<text text-anchor="middle" x="338.5" y="-479.8" font-family="Times,serif" font-size="14.00" fill="#000000">TX / LL Ctrl / LL_ENC_REQ</text>
</g>
<!-- n6&#45;&gt;n32 -->
<g id="edge70" class="edge">
<title>n6&#45;&gt;n32</title>
<path fill="none" stroke="#000000" d="M264.5335,-1002.9765C236.5562,-984.361 187.5,-944.8293 187.5,-896.5 187.5,-896.5 187.5,-896.5 187.5,-660.5 187.5,-597.9686 199.5808,-576.4766 242.5,-531 255.7457,-516.9651 274.029,-506.5031 291.0887,-499.0238"/>
<polygon fill="#000000" stroke="#000000" points="292.498,-502.2285 300.4007,-495.1717 289.8222,-495.7601 292.498,-502.2285"/>
</g>
<!-- n8 -->
<g id="node9" class="node">
<title>n8</title>
<polygon fill="none" stroke="#000000" points="1010.5,-908 722.5,-908 722.5,-885 1010.5,-885 1010.5,-908"/>
<text text-anchor="middle" x="866.5" y="-892.8" font-family="Times,serif" font-size="14.00" fill="#000000">TX / GATT / GATT Primary Service Declaration</text>
</g>
<!-- n7&#45;&gt;n8 -->
<g id="edge8" class="edge">
<title>n7&#45;&gt;n8</title>
<path fill="none" stroke="#000000" d="M797.4908,-943.8435C809.9765,-935.2778 827.1483,-923.4971 841.2388,-913.8304"/>
<polygon fill="#000000" stroke="#000000" points="843.2785,-916.6756 849.5445,-908.1323 839.3184,-910.9034 843.2785,-916.6756"/>
</g>
<!-- n9 -->
<g id="node10" class="node">
<title>n9</title>
<polygon fill="none" stroke="#000000" points="734.5,-849 438.5,-849 438.5,-826 734.5,-826 734.5,-849"/>
<text text-anchor="middle" x="586.5" y="-833.8" font-family="Times,serif" font-size="14.00" fill="#000000">RX / LL Ctrl / LL_CONNECTION_PARAM_RSP</text>
</g>
<!-- n7&#45;&gt;n9 -->
<g id="edge40" class="edge">
<title>n7&#45;&gt;n9</title>
<path fill="none" stroke="#000000" d="M764.4619,-943.9895C744.1463,-929.5835 707.8773,-904.4418 675.5,-885 657.1298,-873.9691 635.991,-862.633 618.9255,-853.8027"/>
<polygon fill="#000000" stroke="#000000" points="620.4019,-850.6264 609.9072,-849.1727 617.2047,-856.8537 620.4019,-850.6264"/>
</g>
<!-- n10 -->
<g id="node11" class="node">
<title>n10</title>
<polygon fill="none" stroke="#000000" points="734.5,-790 434.5,-790 434.5,-767 734.5,-767 734.5,-790"/>
<text text-anchor="middle" x="584.5" y="-774.8" font-family="Times,serif" font-size="14.00" fill="#000000">TX / LL Ctrl / LL_CONNECTION_UPDATE_IND</text>
</g>
<!-- n7&#45;&gt;n10 -->
<g id="edge66" class="edge">
<title>n7&#45;&gt;n10</title>
<path fill="none" stroke="#000000" d="M630.7909,-946.4938C560.9988,-939.7015 487.2815,-927.987 459.5,-908 427.9984,-885.3367 406.4271,-857.2028 429.5,-826 439.8246,-812.0374 476.2098,-800.499 511.1329,-792.2918"/>
<polygon fill="#000000" stroke="#000000" points="511.9463,-795.6962 520.9213,-790.066 510.3942,-788.8705 511.9463,-795.6962"/>
</g>
<!-- n27 -->
<g id="node28" class="node">
<title>n27</title>
<polygon fill="none" stroke="#000000" points="648.5,-908 468.5,-908 468.5,-885 648.5,-885 648.5,-908"/>
<text text-anchor="middle" x="558.5" y="-892.8" font-family="Times,serif" font-size="14.00" fill="#000000">RX / SMP / Pairing Response</text>
</g>
<!-- n7&#45;&gt;n27 -->
<g id="edge43" class="edge">
<title>n7&#45;&gt;n27</title>
<path fill="none" stroke="#000000" d="M737.1692,-943.9841C701.3769,-934.4718 650.4049,-920.9252 612.0582,-910.7339"/>
<polygon fill="#000000" stroke="#000000" points="612.6639,-907.2735 602.1003,-908.0875 610.8659,-914.0386 612.6639,-907.2735"/>
</g>
<!-- n8&#45;&gt;n9 -->
<g id="edge9" class="edge">
<title>n8&#45;&gt;n9</title>
<path fill="none" stroke="#000000" d="M811.8485,-884.9841C765.8406,-875.2896 699.947,-861.4049 651.2903,-851.1522"/>
<polygon fill="#000000" stroke="#000000" points="651.9982,-847.7246 641.4914,-849.0875 650.5549,-854.5742 651.9982,-847.7246"/>
</g>
<!-- n11 -->
<g id="node12" class="node">
<title>n11</title>
<polygon fill="none" stroke="#000000" points="976,-731 757,-731 757,-708 976,-708 976,-731"/>
<text text-anchor="middle" x="866.5" y="-715.8" font-family="Times,serif" font-size="14.00" fill="#000000">RX / GATT / Generic Access Profile</text>
</g>
<!-- n8&#45;&gt;n11 -->
<g id="edge58" class="edge">
<title>n8&#45;&gt;n11</title>
<path fill="none" stroke="#000000" d="M862.9404,-884.8865C859.0797,-855.7666 858.7229,-779.2714 861.8699,-741.3937"/>
<polygon fill="#000000" stroke="#000000" points="865.3573,-741.6952 862.9043,-731.3883 858.3944,-740.9753 865.3573,-741.6952"/>
</g>
<!-- n13 -->
<g id="node14" class="node">
<title>n13</title>
<polygon fill="none" stroke="#000000" points="1230,-790 941,-790 941,-767 1230,-767 1230,-790"/>
<text text-anchor="middle" x="1085.5" y="-774.8" font-family="Times,serif" font-size="14.00" fill="#000000">RX / GATT / GATT Primary Service Declaration</text>
</g>
<!-- n8&#45;&gt;n13 -->
<g id="edge15" class="edge">
<title>n8&#45;&gt;n13</title>
<path fill="none" stroke="#000000" d="M887.8974,-884.9708C926.9848,-863.91 1010.0405,-819.1585 1055.0241,-794.9208"/>
<polygon fill="#000000" stroke="#000000" points="1056.8725,-797.9006 1064.0158,-790.076 1053.5521,-791.7382 1056.8725,-797.9006"/>
</g>
<!-- n9&#45;&gt;n10 -->
<g id="edge10" class="edge">
<title>n9&#45;&gt;n10</title>
<path fill="none" stroke="#000000" d="M586.1049,-825.8435C585.8583,-818.5707 585.5332,-808.9803 585.2401,-800.3339"/>
<polygon fill="#000000" stroke="#000000" points="588.7312,-800.0079 584.8943,-790.1323 581.7352,-800.2452 588.7312,-800.0079"/>
</g>
<!-- n10&#45;&gt;n11 -->
<g id="edge11" class="edge">
<title>n10&#45;&gt;n11</title>
<path fill="none" stroke="#000000" d="M639.5419,-766.9841C685.8784,-757.2896 752.2427,-743.4049 801.247,-733.1522"/>
<polygon fill="#000000" stroke="#000000" points="802.0445,-736.5612 811.1158,-731.0875 800.6109,-729.7096 802.0445,-736.5612"/>
</g>
<!-- n26 -->
<g id="node27" class="node">
<title>n26</title>
<polygon fill="none" stroke="#000000" points="1204,-731 1033,-731 1033,-708 1204,-708 1204,-731"/>
<text text-anchor="middle" x="1118.5" y="-715.8" font-family="Times,serif" font-size="14.00" fill="#000000">TX / SMP / Pairing Request</text>
</g>
<!-- n10&#45;&gt;n26 -->
<g id="edge41" class="edge">
<title>n10&#45;&gt;n26</title>
<path fill="none" stroke="#000000" d="M688.7282,-766.9841C785.5159,-756.2904 928.4495,-740.4981 1022.5047,-730.1062"/>
<polygon fill="#000000" stroke="#000000" points="1023.0316,-733.5694 1032.5867,-728.9923 1022.2628,-726.6117 1023.0316,-733.5694"/>
</g>
<!-- n28 -->
<g id="node29" class="node">
<title>n28</title>
<polygon fill="none" stroke="#000000" points="428.5,-731 254.5,-731 254.5,-708 428.5,-708 428.5,-731"/>
<text text-anchor="middle" x="341.5" y="-715.8" font-family="Times,serif" font-size="14.00" fill="#000000">TX / SMP / Pairing Confirm</text>
</g>
<!-- n10&#45;&gt;n28 -->
<g id="edge46" class="edge">
<title>n10&#45;&gt;n28</title>
<path fill="none" stroke="#000000" d="M537.0703,-766.9841C497.5588,-757.3908 441.1478,-743.6943 399.0559,-733.4745"/>
<polygon fill="#000000" stroke="#000000" points="399.7682,-730.0458 389.2247,-731.0875 398.1165,-736.8482 399.7682,-730.0458"/>
</g>
<!-- n41 -->
<g id="node42" class="node">
<title>n41</title>
<polygon fill="none" stroke="#000000" points="231,-436 0,-436 0,-413 231,-413 231,-436"/>
<text text-anchor="middle" x="115.5" y="-420.8" font-family="Times,serif" font-size="14.00" fill="#000000">TX / LL Ctrl / LL_TERMINATE_IND</text>
</g>
<!-- n10&#45;&gt;n41 -->
<g id="edge67" class="edge">
<title>n10&#45;&gt;n41</title>
<path fill="none" stroke="#000000" d="M434.4616,-771.8611C358.1193,-765.7002 275.2639,-753.8355 245.5,-731 221.0649,-712.2529 147.2073,-512.2707 123.1586,-445.8254"/>
<polygon fill="#000000" stroke="#000000" points="126.3085,-444.2428 119.6224,-436.0242 119.7239,-446.6185 126.3085,-444.2428"/>
</g>
<!-- n42 -->
<g id="node43" class="node">
<title>n42</title>
<polygon fill="none" stroke="#000000" points="738.5,-731 484.5,-731 484.5,-708 738.5,-708 738.5,-731"/>
<text text-anchor="middle" x="611.5" y="-715.8" font-family="Times,serif" font-size="14.00" fill="#000000">TX / LL Ctrl / LL_CHANNEL_MAP_IND</text>
</g>
<!-- n10&#45;&gt;n42 -->
<g id="edge73" class="edge">
<title>n10&#45;&gt;n42</title>
<path fill="none" stroke="#000000" d="M589.8343,-766.8435C593.2735,-759.3283 597.8452,-749.3383 601.9024,-740.4725"/>
<polygon fill="#000000" stroke="#000000" points="605.198,-741.6818 606.1768,-731.1323 598.8329,-738.7689 605.198,-741.6818"/>
</g>
<!-- n11&#45;&gt;n8 -->
<g id="edge14" class="edge">
<title>n11&#45;&gt;n8</title>
<path fill="none" stroke="#000000" d="M870.0957,-731.3883C873.918,-760.6777 874.2665,-836.6698 871.1411,-874.4741"/>
<polygon fill="#000000" stroke="#000000" points="867.6115,-874.5784 870.0596,-884.8865 874.574,-875.3017 867.6115,-874.5784"/>
</g>
<!-- n12 -->
<g id="node13" class="node">
<title>n12</title>
<polygon fill="none" stroke="#000000" points="990.5,-672 742.5,-672 742.5,-649 990.5,-649 990.5,-672"/>
<text text-anchor="middle" x="866.5" y="-656.8" font-family="Times,serif" font-size="14.00" fill="#000000">TX / ATT / Read By Group Type Request</text>
</g>
<!-- n11&#45;&gt;n12 -->
<g id="edge12" class="edge">
<title>n11&#45;&gt;n12</title>
<path fill="none" stroke="#000000" d="M860.9963,-707.8435C859.827,-700.5707 859.4805,-690.9803 859.9568,-682.3339"/>
<polygon fill="#000000" stroke="#000000" points="863.4645,-682.4365 861.0002,-672.1323 856.5008,-681.7243 863.4645,-682.4365"/>
</g>
<!-- n15 -->
<g id="node16" class="node">
<title>n15</title>
<polygon fill="none" stroke="#000000" points="1144,-259 869,-259 869,-236 1144,-236 1144,-259"/>
<text text-anchor="middle" x="1006.5" y="-243.8" font-family="Times,serif" font-size="14.00" fill="#000000">TX / GATT / GATT Characteristic Declaration</text>
</g>
<!-- n11&#45;&gt;n15 -->
<g id="edge18" class="edge">
<title>n11&#45;&gt;n15</title>
<path fill="none" stroke="#000000" d="M919.7208,-707.9833C945.4961,-700.6187 975.8945,-689.1491 999.5,-672 1111.913,-590.3334 1190.5,-563.4465 1190.5,-424.5 1190.5,-424.5 1190.5,-424.5 1190.5,-365.5 1190.5,-308.0713 1126.2025,-277.3048 1073.6248,-261.7465"/>
<polygon fill="#000000" stroke="#000000" points="1074.5369,-258.3673 1063.9619,-259.0154 1072.6329,-265.1034 1074.5369,-258.3673"/>
</g>
<!-- n39 -->
<g id="node40" class="node">
<title>n39</title>
<polygon fill="none" stroke="#000000" points="706.5,-672 538.5,-672 538.5,-649 706.5,-649 706.5,-672"/>
<text text-anchor="middle" x="622.5" y="-656.8" font-family="Times,serif" font-size="14.00" fill="#000000">TX / GATT / Device Name</text>
</g>
<!-- n11&#45;&gt;n39 -->
<g id="edge59" class="edge">
<title>n11&#45;&gt;n39</title>
<path fill="none" stroke="#000000" d="M818.8751,-707.9841C779.201,-698.3908 722.5578,-684.6943 680.2927,-674.4745"/>
<polygon fill="#000000" stroke="#000000" points="680.9636,-671.0359 670.4211,-672.0875 679.3184,-677.8398 680.9636,-671.0359"/>
</g>
<!-- n12&#45;&gt;n11 -->
<g id="edge13" class="edge">
<title>n12&#45;&gt;n11</title>
<path fill="none" stroke="#000000" d="M871.9998,-672.1323C873.171,-679.3999 873.5193,-688.9888 873.0448,-697.6373"/>
<polygon fill="#000000" stroke="#000000" points="869.5366,-697.5399 872.0037,-707.8435 876.5005,-698.2503 869.5366,-697.5399"/>
</g>
<!-- n14 -->
<g id="node15" class="node">
<title>n14</title>
<polygon fill="none" stroke="#000000" points="732.5,-436 492.5,-436 492.5,-413 732.5,-413 732.5,-436"/>
<text text-anchor="middle" x="612.5" y="-420.8" font-family="Times,serif" font-size="14.00" fill="#000000">TX / GATT / GATT Include Declaration</text>
</g>
<!-- n13&#45;&gt;n14 -->
<g id="edge16" class="edge">
<title>n13&#45;&gt;n14</title>
<path fill="none" stroke="#000000" d="M1151.3787,-766.8918C1191.8779,-756.5305 1232.6532,-738.212 1213.5,-708 1101.7132,-531.6688 847.6346,-462.9667 708.3053,-437.8423"/>
<polygon fill="#000000" stroke="#000000" points="708.5206,-434.3263 698.0648,-436.0369 707.3052,-441.22 708.5206,-434.3263"/>
</g>
<!-- n14&#45;&gt;n11 -->
<g id="edge17" class="edge">
<title>n14&#45;&gt;n11</title>
<path fill="none" stroke="#000000" d="M581.2568,-436.1172C564.3094,-443.89 544.2748,-455.7074 531.5,-472 511.3269,-497.7281 510.5,-509.8061 510.5,-542.5 510.5,-601.5 510.5,-601.5 510.5,-601.5 510.5,-633.9513 505.1841,-650.5099 529.5,-672 538.1054,-679.6053 660.592,-695.4966 755.4397,-706.8018"/>
<polygon fill="#000000" stroke="#000000" points="755.0564,-710.2808 765.3994,-707.9843 755.8818,-703.3296 755.0564,-710.2808"/>
</g>
<!-- n18 -->
<g id="node19" class="node">
<title>n18</title>
<polygon fill="none" stroke="#000000" points="870.5,-377 640.5,-377 640.5,-354 870.5,-354 870.5,-377"/>
<text text-anchor="middle" x="755.5" y="-361.8" font-family="Times,serif" font-size="14.00" fill="#000000">RX / GATT / Generic Attribute Profile</text>
</g>
<!-- n14&#45;&gt;n18 -->
<g id="edge23" class="edge">
<title>n14&#45;&gt;n18</title>
<path fill="none" stroke="#000000" d="M640.4113,-412.9841C662.512,-403.8657 693.5975,-391.0402 717.8916,-381.0167"/>
<polygon fill="#000000" stroke="#000000" points="719.2612,-384.2379 727.1704,-377.1884 716.5913,-377.7671 719.2612,-384.2379"/>
</g>
<!-- n22 -->
<g id="node23" class="node">
<title>n22</title>
<polygon fill="none" stroke="#000000" points="1124,-377 889,-377 889,-354 1124,-354 1124,-377"/>
<text text-anchor="middle" x="1006.5" y="-361.8" font-family="Times,serif" font-size="14.00" fill="#000000">RX / GATT / Alert Notification Service</text>
</g>
<!-- n14&#45;&gt;n22 -->
<g id="edge29" class="edge">
<title>n14&#45;&gt;n22</title>
<path fill="none" stroke="#000000" d="M689.4025,-412.9841C755.4653,-403.0915 850.6656,-388.8356 919.4979,-378.5282"/>
<polygon fill="#000000" stroke="#000000" points="920.0842,-381.9795 929.4556,-377.0371 919.0475,-375.0567 920.0842,-381.9795"/>
</g>
<!-- n24 -->
<g id="node25" class="node">
<title>n24</title>
<polygon fill="none" stroke="#000000" points="876,-318 635,-318 635,-295 876,-295 876,-318"/>
<text text-anchor="middle" x="755.5" y="-302.8" font-family="Times,serif" font-size="14.00" fill="#000000">RX / GATT / GATT Include Declaration</text>
</g>
<!-- n14&#45;&gt;n24 -->
<g id="edge35" class="edge">
<title>n14&#45;&gt;n24</title>
<path fill="none" stroke="#000000" d="M612.5393,-412.7389C613.2168,-397.3669 616.6387,-370.4696 631.5,-354 645.2403,-338.7727 664.4069,-328.3924 683.5686,-321.3292"/>
<polygon fill="#000000" stroke="#000000" points="684.9192,-324.5666 693.254,-318.0259 682.6595,-317.9413 684.9192,-324.5666"/>
</g>
<!-- n16 -->
<g id="node17" class="node">
<title>n16</title>
<polygon fill="none" stroke="#000000" points="1267,-200 992,-200 992,-177 1267,-177 1267,-200"/>
<text text-anchor="middle" x="1129.5" y="-184.8" font-family="Times,serif" font-size="14.00" fill="#000000">RX / GATT / GATT Characteristic Declaration</text>
</g>
<!-- n15&#45;&gt;n16 -->
<g id="edge19" class="edge">
<title>n15&#45;&gt;n16</title>
<path fill="none" stroke="#000000" d="M1025.0267,-235.9841C1042.3182,-226.9867 1068.4039,-214.38 1090.2473,-204.4174"/>
<polygon fill="#000000" stroke="#000000" points="1091.947,-207.4904 1099.6237,-200.1884 1089.0689,-201.1094 1091.947,-207.4904"/>
</g>
<!-- n17 -->
<g id="node18" class="node">
<title>n17</title>
<polygon fill="none" stroke="#000000" points="698.5,-495 540.5,-495 540.5,-472 698.5,-472 698.5,-495"/>
<text text-anchor="middle" x="619.5" y="-479.8" font-family="Times,serif" font-size="14.00" fill="#000000">RX / GATT / Appearance</text>
</g>
<!-- n15&#45;&gt;n17 -->
<g id="edge21" class="edge">
<title>n15&#45;&gt;n17</title>
<path fill="none" stroke="#000000" d="M1033.8736,-259.1133C1081.6178,-280.9691 1171.5701,-330.2333 1133.5,-377 1080.9328,-441.5756 841.5063,-468.2265 708.7757,-478.1917"/>
<polygon fill="#000000" stroke="#000000" points="708.3413,-474.714 698.6244,-478.9369 708.8539,-481.6952 708.3413,-474.714"/>
</g>
<!-- n19 -->
<g id="node20" class="node">
<title>n19</title>
<polygon fill="none" stroke="#000000" points="1222.5,-141 1036.5,-141 1036.5,-118 1222.5,-118 1222.5,-141"/>
<text text-anchor="middle" x="1129.5" y="-125.8" font-family="Times,serif" font-size="14.00" fill="#000000">RX / GATT / Service Changed</text>
</g>
<!-- n15&#45;&gt;n19 -->
<g id="edge71" class="edge">
<title>n15&#45;&gt;n19</title>
<path fill="none" stroke="#000000" d="M996.6872,-235.7562C985.5168,-220.8818 970.4118,-195.0216 983.5,-177 993.301,-163.5046 1028.4103,-151.8523 1061.7415,-143.4662"/>
<polygon fill="#000000" stroke="#000000" points="1062.6472,-146.848 1071.5341,-141.0796 1060.9897,-140.0471 1062.6472,-146.848"/>
</g>
<!-- n23 -->
<g id="node24" class="node">
<title>n23</title>
<polygon fill="none" stroke="#000000" points="1018.5,-141 750.5,-141 750.5,-118 1018.5,-118 1018.5,-141"/>
<text text-anchor="middle" x="884.5" y="-125.8" font-family="Times,serif" font-size="14.00" fill="#000000">RX / GATT / Alert Notification Control Point</text>
</g>
<!-- n15&#45;&gt;n23 -->
<g id="edge31" class="edge">
<title>n15&#45;&gt;n23</title>
<path fill="none" stroke="#000000" d="M991.5202,-235.9059C979.7507,-226.5883 963.1274,-212.9613 949.5,-200 932.2566,-183.5994 914.0037,-163.5333 901.2449,-149.0086"/>
<polygon fill="#000000" stroke="#000000" points="903.6232,-146.4101 894.4168,-141.1667 898.344,-151.0068 903.6232,-146.4101"/>
</g>
<!-- n16&#45;&gt;n15 -->
<g id="edge20" class="edge">
<title>n16&#45;&gt;n15</title>
<path fill="none" stroke="#000000" d="M1110.6414,-200.1884C1093.2382,-209.2317 1067.124,-221.8442 1045.3352,-231.7729"/>
<polygon fill="#000000" stroke="#000000" points="1043.6681,-228.6851 1035.9886,-235.9841 1046.5437,-235.0673 1043.6681,-228.6851"/>
</g>
<!-- n16&#45;&gt;n19 -->
<g id="edge25" class="edge">
<title>n16&#45;&gt;n19</title>
<path fill="none" stroke="#000000" d="M1129.5,-176.8435C1129.5,-169.5707 1129.5,-159.9803 1129.5,-151.3339"/>
<polygon fill="#000000" stroke="#000000" points="1133.0001,-151.1323 1129.5,-141.1323 1126.0001,-151.1323 1133.0001,-151.1323"/>
</g>
<!-- n20 -->
<g id="node21" class="node">
<title>n20</title>
<polygon fill="none" stroke="#000000" points="1081.5,-82 857.5,-82 857.5,-59 1081.5,-59 1081.5,-82"/>
<text text-anchor="middle" x="969.5" y="-66.8" font-family="Times,serif" font-size="14.00" fill="#000000">TX / ATT / Find Information Request</text>
</g>
<!-- n16&#45;&gt;n20 -->
<g id="edge37" class="edge">
<title>n16&#45;&gt;n20</title>
<path fill="none" stroke="#000000" d="M1172.4825,-176.8934C1209.3365,-164.8432 1253.2996,-144.1072 1231.5,-118 1213.1192,-95.9872 1151.0133,-84.1543 1091.8832,-77.8045"/>
<polygon fill="#000000" stroke="#000000" points="1091.9647,-74.2946 1081.6599,-76.7566 1091.2508,-81.2581 1091.9647,-74.2946"/>
</g>
<!-- n25 -->
<g id="node26" class="node">
<title>n25</title>
<polygon fill="none" stroke="#000000" points="1443,-23 1216,-23 1216,0 1443,0 1443,-23"/>
<text text-anchor="middle" x="1329.5" y="-7.8" font-family="Times,serif" font-size="14.00" fill="#000000">RX / ATT Error / Attribute Not Found</text>
</g>
<!-- n16&#45;&gt;n25 -->
<g id="edge72" class="edge">
<title>n16&#45;&gt;n25</title>
<path fill="none" stroke="#000000" d="M1176.4947,-176.979C1199.7108,-169.5532 1227.0531,-158.0311 1247.5,-141 1283.5569,-110.9667 1308.8481,-60.8615 1321.0962,-32.5881"/>
<polygon fill="#000000" stroke="#000000" points="1324.3778,-33.8127 1325.0143,-23.237 1317.9217,-31.1076 1324.3778,-33.8127"/>
</g>
<!-- n17&#45;&gt;n14 -->
<g id="edge22" class="edge">
<title>n17&#45;&gt;n14</title>
<path fill="none" stroke="#000000" d="M618.117,-471.8435C617.2542,-464.5707 616.1163,-454.9803 615.0905,-446.3339"/>
<polygon fill="#000000" stroke="#000000" points="618.534,-445.6502 613.8801,-436.1323 611.5827,-446.475 618.534,-445.6502"/>
</g>
<!-- n17&#45;&gt;n41 -->
<g id="edge78" class="edge">
<title>n17&#45;&gt;n41</title>
<path fill="none" stroke="#000000" d="M540.473,-474.2488C455.2531,-464.2727 319.0322,-448.3262 223.8557,-437.1845"/>
<polygon fill="#000000" stroke="#000000" points="224.2485,-433.7067 213.9093,-436.0201 223.4345,-440.6592 224.2485,-433.7067"/>
</g>
<!-- n18&#45;&gt;n15 -->
<g id="edge24" class="edge">
<title>n18&#45;&gt;n15</title>
<path fill="none" stroke="#000000" d="M792.3467,-353.9795C818.7666,-345.2539 854.9399,-332.3475 885.5,-318 919.4556,-302.0584 956.4334,-279.7243 980.4565,-264.4937"/>
<polygon fill="#000000" stroke="#000000" points="982.4573,-267.3688 988.996,-259.0324 978.6858,-261.4716 982.4573,-267.3688"/>
</g>
<!-- n18&#45;&gt;n24 -->
<g id="edge62" class="edge">
<title>n18&#45;&gt;n24</title>
<path fill="none" stroke="#000000" d="M755.5,-353.8435C755.5,-346.5707 755.5,-336.9803 755.5,-328.3339"/>
<polygon fill="#000000" stroke="#000000" points="759.0001,-328.1323 755.5,-318.1323 752.0001,-328.1323 759.0001,-328.1323"/>
</g>
<!-- n19&#45;&gt;n20 -->
<g id="edge26" class="edge">
<title>n19&#45;&gt;n20</title>
<path fill="none" stroke="#000000" d="M1098.2706,-117.9841C1073.2427,-108.7551 1037.9166,-95.7286 1010.5939,-85.6534"/>
<polygon fill="#000000" stroke="#000000" points="1011.517,-82.2635 1000.9237,-82.0875 1009.0952,-88.8312 1011.517,-82.2635"/>
</g>
<!-- n20&#45;&gt;n7 -->
<g id="edge65" class="edge">
<title>n20&#45;&gt;n7</title>
<path fill="none" stroke="#000000" d="M1081.56,-79.2839C1146.8403,-86.3632 1221.3162,-98.4402 1247.5,-118 1296.6759,-154.7353 1295.5,-186.118 1295.5,-247.5 1295.5,-837.5 1295.5,-837.5 1295.5,-837.5 1295.5,-911.3627 1091.6802,-938.9918 940.4866,-949.3261"/>
<polygon fill="#000000" stroke="#000000" points="939.8976,-945.8573 930.1511,-950.0114 940.3608,-952.842 939.8976,-945.8573"/>
</g>
<!-- n20&#45;&gt;n14 -->
<g id="edge34" class="edge">
<title>n20&#45;&gt;n14</title>
<path fill="none" stroke="#000000" d="M857.3654,-81.9721C740.5861,-97.116 574.5,-129.0961 574.5,-188.5 574.5,-306.5 574.5,-306.5 574.5,-306.5 574.5,-341.9334 590.2165,-380.5955 601.4346,-403.6785"/>
<polygon fill="#000000" stroke="#000000" points="598.427,-405.4876 606.0538,-412.8416 604.6777,-402.3365 598.427,-405.4876"/>
</g>
<!-- n21 -->
<g id="node22" class="node">
<title>n21</title>
<polygon fill="none" stroke="#000000" points="1112,-23 827,-23 827,0 1112,0 1112,-23"/>
<text text-anchor="middle" x="969.5" y="-7.8" font-family="Times,serif" font-size="14.00" fill="#000000">RX / GATT / Client Characteristic Configuration</text>
</g>
<!-- n20&#45;&gt;n21 -->
<g id="edge27" class="edge">
<title>n20&#45;&gt;n21</title>
<path fill="none" stroke="#000000" d="M963.9963,-58.8435C962.827,-51.5707 962.4805,-41.9803 962.9568,-33.3339"/>
<polygon fill="#000000" stroke="#000000" points="966.4645,-33.4365 964.0002,-23.1323 959.5008,-32.7243 966.4645,-33.4365"/>
</g>
<!-- n20&#45;&gt;n25 -->
<g id="edge38" class="edge">
<title>n20&#45;&gt;n25</title>
<path fill="none" stroke="#000000" d="M1039.7662,-58.9841C1099.8808,-49.132 1186.4007,-34.9524 1249.2313,-24.6552"/>
<polygon fill="#000000" stroke="#000000" points="1249.8018,-28.1084 1259.1041,-23.0371 1248.6697,-21.2006 1249.8018,-28.1084"/>
</g>
<!-- n21&#45;&gt;n14 -->
<g id="edge28" class="edge">
<title>n21&#45;&gt;n14</title>
<path fill="none" stroke="#000000" d="M828.3187,-23.0088C701.9609,-37.3285 536.5,-67.8497 536.5,-129.5 536.5,-306.5 536.5,-306.5 536.5,-306.5 536.5,-346.8253 568.2591,-384.3251 590.7167,-405.8012"/>
<polygon fill="#000000" stroke="#000000" points="588.4812,-408.5007 598.205,-412.7077 593.227,-403.3551 588.4812,-408.5007"/>
</g>
<!-- n21&#45;&gt;n20 -->
<g id="edge33" class="edge">
<title>n21&#45;&gt;n20</title>
<path fill="none" stroke="#000000" d="M974.9998,-23.1323C976.171,-30.3999 976.5193,-39.9888 976.0448,-48.6373"/>
<polygon fill="#000000" stroke="#000000" points="972.5366,-48.5399 975.0037,-58.8435 979.5005,-49.2503 972.5366,-48.5399"/>
</g>
<!-- n22&#45;&gt;n15 -->
<g id="edge30" class="edge">
<title>n22&#45;&gt;n15</title>
<path fill="none" stroke="#000000" d="M1006.5,-353.7543C1006.5,-334.1401 1006.5,-294.4178 1006.5,-269.4868"/>
<polygon fill="#000000" stroke="#000000" points="1010.0001,-269.1982 1006.5,-259.1982 1003.0001,-269.1982 1010.0001,-269.1982"/>
</g>
<!-- n22&#45;&gt;n24 -->
<g id="edge64" class="edge">
<title>n22&#45;&gt;n24</title>
<path fill="none" stroke="#000000" d="M957.5088,-353.9841C916.6104,-344.3706 858.1824,-330.6365 814.6758,-320.4098"/>
<polygon fill="#000000" stroke="#000000" points="815.3315,-316.9686 804.7959,-318.0875 813.7297,-323.7829 815.3315,-316.9686"/>
</g>
<!-- n23&#45;&gt;n20 -->
<g id="edge32" class="edge">
<title>n23&#45;&gt;n20</title>
<path fill="none" stroke="#000000" d="M901.2933,-117.8435C913.5173,-109.3586 930.2861,-97.7191 944.1376,-88.1045"/>
<polygon fill="#000000" stroke="#000000" points="946.5224,-90.7097 952.7416,-82.1323 942.5309,-84.9592 946.5224,-90.7097"/>
</g>
<!-- n24&#45;&gt;n15 -->
<g id="edge36" class="edge">
<title>n24&#45;&gt;n15</title>
<path fill="none" stroke="#000000" d="M804.4912,-294.9841C845.3896,-285.3706 903.8176,-271.6365 947.3242,-261.4098"/>
<polygon fill="#000000" stroke="#000000" points="948.2703,-264.7829 957.2041,-259.0875 946.6685,-257.9686 948.2703,-264.7829"/>
</g>
<!-- n24&#45;&gt;n20 -->
<g id="edge63" class="edge">
<title>n24&#45;&gt;n20</title>
<path fill="none" stroke="#000000" d="M749.6662,-294.6897C734.5937,-262.2989 698.4374,-170.9586 741.5,-118 755.7592,-100.4639 801.0474,-89.1852 847.5437,-82.043"/>
<polygon fill="#000000" stroke="#000000" points="848.0897,-85.5004 857.4731,-80.5809 847.0699,-78.5751 848.0897,-85.5004"/>
</g>
<!-- n25&#45;&gt;n7 -->
<g id="edge39" class="edge">
<title>n25&#45;&gt;n7</title>
<path fill="none" stroke="#000000" d="M1335.9462,-23.1584C1346.7878,-43.8912 1367.5,-88.8231 1367.5,-129.5 1367.5,-837.5 1367.5,-837.5 1367.5,-837.5 1367.5,-898.9737 1306.8916,-888.7795 1248.5,-908 1192.8719,-926.3108 1052.6834,-939.0135 940.1427,-946.6447"/>
<polygon fill="#000000" stroke="#000000" points="939.7753,-943.1613 930.0315,-947.3218 940.243,-950.1457 939.7753,-943.1613"/>
</g>
<!-- n26&#45;&gt;n7 -->
<g id="edge42" class="edge">
<title>n26&#45;&gt;n7</title>
<path fill="none" stroke="#000000" d="M1178.4435,-731.0338C1217.2256,-741.5355 1257.4147,-760.0622 1239.5,-790 1182.5265,-885.2099 1123.9447,-870.5538 1019.5,-908 975.2587,-923.8617 924.4054,-934.9021 881.0108,-942.3185"/>
<polygon fill="#000000" stroke="#000000" points="880.3005,-938.8885 871.0126,-943.9862 881.4522,-945.7931 880.3005,-938.8885"/>
</g>
<!-- n27&#45;&gt;n9 -->
<g id="edge45" class="edge">
<title>n27&#45;&gt;n9</title>
<path fill="none" stroke="#000000" d="M564.0319,-884.8435C567.6368,-877.2475 572.4415,-867.1232 576.6825,-858.1869"/>
<polygon fill="#000000" stroke="#000000" points="579.8541,-859.6672 580.9796,-849.1323 573.5301,-856.6659 579.8541,-859.6672"/>
</g>
<!-- n27&#45;&gt;n27 -->
<g id="edge44" class="edge">
<title>n27&#45;&gt;n27</title>
<path fill="none" stroke="#000000" d="M648.7021,-905.8457C659.4688,-904.1465 666.5,-901.0313 666.5,-896.5 666.5,-893.5972 663.6144,-891.2755 658.7097,-889.5349"/>
<polygon fill="#000000" stroke="#000000" points="659.2407,-886.0636 648.7021,-887.1543 657.6207,-892.8736 659.2407,-886.0636"/>
</g>
<!-- n29 -->
<g id="node30" class="node">
<title>n29</title>
<polygon fill="none" stroke="#000000" points="429,-672 254,-672 254,-649 429,-649 429,-672"/>
<text text-anchor="middle" x="341.5" y="-656.8" font-family="Times,serif" font-size="14.00" fill="#000000">RX / SMP / Pairing Confirm</text>
</g>
<!-- n28&#45;&gt;n29 -->
<g id="edge47" class="edge">
<title>n28&#45;&gt;n29</title>
<path fill="none" stroke="#000000" d="M341.5,-707.8435C341.5,-700.5707 341.5,-690.9803 341.5,-682.3339"/>
<polygon fill="#000000" stroke="#000000" points="345.0001,-682.1323 341.5,-672.1323 338.0001,-682.1323 345.0001,-682.1323"/>
</g>
<!-- n30 -->
<g id="node31" class="node">
<title>n30</title>
<polygon fill="none" stroke="#000000" points="427.5,-613 253.5,-613 253.5,-590 427.5,-590 427.5,-613"/>
<text text-anchor="middle" x="340.5" y="-597.8" font-family="Times,serif" font-size="14.00" fill="#000000">TX / SMP / Pairing Random</text>
</g>
<!-- n29&#45;&gt;n30 -->
<g id="edge48" class="edge">
<title>n29&#45;&gt;n30</title>
<path fill="none" stroke="#000000" d="M341.3024,-648.8435C341.1792,-641.5707 341.0166,-631.9803 340.8701,-623.3339"/>
<polygon fill="#000000" stroke="#000000" points="344.3662,-623.0715 340.6972,-613.1323 337.3672,-623.1902 344.3662,-623.0715"/>
</g>
<!-- n31 -->
<g id="node32" class="node">
<title>n31</title>
<polygon fill="none" stroke="#000000" points="427,-554 252,-554 252,-531 427,-531 427,-554"/>
<text text-anchor="middle" x="339.5" y="-538.8" font-family="Times,serif" font-size="14.00" fill="#000000">RX / SMP / Pairing Random</text>
</g>
<!-- n30&#45;&gt;n31 -->
<g id="edge49" class="edge">
<title>n30&#45;&gt;n31</title>
<path fill="none" stroke="#000000" d="M340.3024,-589.8435C340.1792,-582.5707 340.0166,-572.9803 339.8701,-564.3339"/>
<polygon fill="#000000" stroke="#000000" points="343.3662,-564.0715 339.6972,-554.1323 336.3672,-564.1902 343.3662,-564.0715"/>
</g>
<!-- n31&#45;&gt;n32 -->
<g id="edge50" class="edge">
<title>n31&#45;&gt;n32</title>
<path fill="none" stroke="#000000" d="M339.3024,-530.8435C339.1792,-523.5707 339.0166,-513.9803 338.8701,-505.3339"/>
<polygon fill="#000000" stroke="#000000" points="342.3662,-505.0715 338.6972,-495.1323 335.3672,-505.1902 342.3662,-505.0715"/>
</g>
<!-- n33 -->
<g id="node34" class="node">
<title>n33</title>
<polygon fill="none" stroke="#000000" points="429.5,-436 249.5,-436 249.5,-413 429.5,-413 429.5,-436"/>
<text text-anchor="middle" x="339.5" y="-420.8" font-family="Times,serif" font-size="14.00" fill="#000000">RX / LL Ctrl / LL_ENC_RSP</text>
</g>
<!-- n32&#45;&gt;n33 -->
<g id="edge51" class="edge">
<title>n32&#45;&gt;n33</title>
<path fill="none" stroke="#000000" d="M338.6976,-471.8435C338.8208,-464.5707 338.9834,-454.9803 339.1299,-446.3339"/>
<polygon fill="#000000" stroke="#000000" points="342.6328,-446.1902 339.3028,-436.1323 335.6338,-446.0715 342.6328,-446.1902"/>
</g>
<!-- n34 -->
<g id="node35" class="node">
<title>n34</title>
<polygon fill="none" stroke="#000000" points="429,-377 196,-377 196,-354 429,-354 429,-377"/>
<text text-anchor="middle" x="312.5" y="-361.8" font-family="Times,serif" font-size="14.00" fill="#000000">RX / LL Ctrl / LL_START_ENC_REQ</text>
</g>
<!-- n33&#45;&gt;n34 -->
<g id="edge52" class="edge">
<title>n33&#45;&gt;n34</title>
<path fill="none" stroke="#000000" d="M334.1657,-412.8435C330.7265,-405.3283 326.1548,-395.3383 322.0976,-386.4725"/>
<polygon fill="#000000" stroke="#000000" points="325.1671,-384.7689 317.8232,-377.1323 318.802,-387.6818 325.1671,-384.7689"/>
</g>
<!-- n35 -->
<g id="node36" class="node">
<title>n35</title>
<polygon fill="none" stroke="#000000" points="428,-318 199,-318 199,-295 428,-295 428,-318"/>
<text text-anchor="middle" x="313.5" y="-302.8" font-family="Times,serif" font-size="14.00" fill="#000000">TX / LL Ctrl / LL_START_ENC_RSP</text>
</g>
<!-- n34&#45;&gt;n35 -->
<g id="edge53" class="edge">
<title>n34&#45;&gt;n35</title>
<path fill="none" stroke="#000000" d="M312.6976,-353.8435C312.8208,-346.5707 312.9834,-336.9803 313.1299,-328.3339"/>
<polygon fill="#000000" stroke="#000000" points="316.6328,-328.1902 313.3028,-318.1323 309.6338,-328.0715 316.6328,-328.1902"/>
</g>
<!-- n36 -->
<g id="node37" class="node">
<title>n36</title>
<polygon fill="none" stroke="#000000" points="417.5,-259 217.5,-259 217.5,-236 417.5,-236 417.5,-259"/>
<text text-anchor="middle" x="317.5" y="-243.8" font-family="Times,serif" font-size="14.00" fill="#000000">RX / SMP / Master Identification</text>
</g>
<!-- n35&#45;&gt;n36 -->
<g id="edge54" class="edge">
<title>n35&#45;&gt;n36</title>
<path fill="none" stroke="#000000" d="M314.2903,-294.8435C314.7833,-287.5707 315.4335,-277.9803 316.0197,-269.3339"/>
<polygon fill="#000000" stroke="#000000" points="319.5268,-269.3462 316.7114,-259.1323 312.5429,-268.8726 319.5268,-269.3462"/>
</g>
<!-- n37 -->
<g id="node38" class="node">
<title>n37</title>
<polygon fill="none" stroke="#000000" points="427.5,-200 213.5,-200 213.5,-177 427.5,-177 427.5,-200"/>
<text text-anchor="middle" x="320.5" y="-184.8" font-family="Times,serif" font-size="14.00" fill="#000000">TX / SMP / Encryption Information</text>
</g>
<!-- n36&#45;&gt;n37 -->
<g id="edge55" class="edge">
<title>n36&#45;&gt;n37</title>
<path fill="none" stroke="#000000" d="M318.0927,-235.8435C318.4625,-228.5707 318.9502,-218.9803 319.3898,-210.3339"/>
<polygon fill="#000000" stroke="#000000" points="322.8961,-210.2972 319.9085,-200.1323 315.9051,-209.9416 322.8961,-210.2972"/>
</g>
<!-- n38 -->
<g id="node39" class="node">
<title>n38</title>
<polygon fill="none" stroke="#000000" points="462.5,-141 262.5,-141 262.5,-118 462.5,-118 462.5,-141"/>
<text text-anchor="middle" x="362.5" y="-125.8" font-family="Times,serif" font-size="14.00" fill="#000000">TX / SMP / Master Identification</text>
</g>
<!-- n37&#45;&gt;n38 -->
<g id="edge56" class="edge">
<title>n37&#45;&gt;n38</title>
<path fill="none" stroke="#000000" d="M328.7978,-176.8435C334.3778,-169.0051 341.8742,-158.4744 348.3801,-149.3351"/>
<polygon fill="#000000" stroke="#000000" points="351.2714,-151.3087 354.2194,-141.1323 345.5687,-147.2492 351.2714,-151.3087"/>
</g>
<!-- n38&#45;&gt;n8 -->
<g id="edge57" class="edge">
<title>n38&#45;&gt;n8</title>
<path fill="none" stroke="#000000" d="M389.9638,-141.1664C405.6751,-149.1378 424.5714,-161.1389 436.5,-177 456.1509,-203.1291 457.5,-214.8061 457.5,-247.5 457.5,-601.5 457.5,-601.5 457.5,-601.5 457.5,-659.6089 434.3168,-690.0051 475.5,-731 560.6752,-815.7858 636.4777,-712.322 743.5,-767 793.332,-792.4593 834.0317,-846.38 853.7102,-875.9816"/>
<polygon fill="#000000" stroke="#000000" points="850.9678,-878.1855 859.3456,-884.6711 856.8409,-874.3766 850.9678,-878.1855"/>
</g>
<!-- n39&#45;&gt;n39 -->
<g id="edge75" class="edge">
<title>n39&#45;&gt;n39</title>
<path fill="none" stroke="#000000" d="M706.5322,-670.0309C717.352,-668.3781 724.5,-665.2012 724.5,-660.5 724.5,-657.4883 721.5665,-655.1022 716.6133,-653.3415"/>
<polygon fill="#000000" stroke="#000000" points="717.0681,-649.853 706.5322,-650.9691 715.4645,-656.6669 717.0681,-649.853"/>
</g>
<!-- n40 -->
<g id="node41" class="node">
<title>n40</title>
<polygon fill="none" stroke="#000000" points="707,-613 538,-613 538,-590 707,-590 707,-613"/>
<text text-anchor="middle" x="622.5" y="-597.8" font-family="Times,serif" font-size="14.00" fill="#000000">RX / GATT / Device Name</text>
</g>
<!-- n39&#45;&gt;n40 -->
<g id="edge60" class="edge">
<title>n39&#45;&gt;n40</title>
<path fill="none" stroke="#000000" d="M622.5,-648.8435C622.5,-641.5707 622.5,-631.9803 622.5,-623.3339"/>
<polygon fill="#000000" stroke="#000000" points="626.0001,-623.1323 622.5,-613.1323 619.0001,-623.1323 626.0001,-623.1323"/>
</g>
<!-- n40&#45;&gt;n8 -->
<g id="edge61" class="edge">
<title>n40&#45;&gt;n8</title>
<path fill="none" stroke="#000000" d="M707.013,-606.3146C812.2128,-613.1868 980.4646,-627.4158 999.5,-649 1023.9545,-676.7289 1006.4843,-700.5603 985.5,-731 969.3379,-754.4446 951.335,-745.6433 932.5,-767 928.5524,-771.4762 894.3859,-840.0784 876.8269,-875.5697"/>
<polygon fill="#000000" stroke="#000000" points="873.6465,-874.1055 872.3537,-884.6212 879.922,-877.2069 873.6465,-874.1055"/>
</g>
<!-- n43 -->
<g id="node44" class="node">
<title>n43</title>
<polygon fill="none" stroke="#000000" points="700.5,-554 542.5,-554 542.5,-531 700.5,-531 700.5,-554"/>
<text text-anchor="middle" x="621.5" y="-538.8" font-family="Times,serif" font-size="14.00" fill="#000000">TX / GATT / Appearance</text>
</g>
<!-- n40&#45;&gt;n43 -->
<g id="edge76" class="edge">
<title>n40&#45;&gt;n43</title>
<path fill="none" stroke="#000000" d="M622.3024,-589.8435C622.1792,-582.5707 622.0166,-572.9803 621.8701,-564.3339"/>
<polygon fill="#000000" stroke="#000000" points="625.3662,-564.0715 621.6972,-554.1323 618.3672,-564.1902 625.3662,-564.0715"/>
</g>
<!-- n41&#45;&gt;n1 -->
<g id="edge68" class="edge">
<title>n41&#45;&gt;n1</title>
<path fill="none" stroke="#000000" d="M115.5,-436.2239C115.5,-457.4306 115.5,-503.5764 115.5,-542.5 115.5,-1191.5 115.5,-1191.5 115.5,-1191.5 115.5,-1223.9513 118.1805,-1233.9507 134.5,-1262 140.8841,-1272.9727 150.4551,-1283.1612 159.3749,-1291.2657"/>
<polygon fill="#000000" stroke="#000000" points="157.0968,-1293.9229 166.9494,-1297.8188 161.6768,-1288.6291 157.0968,-1293.9229"/>
</g>
<!-- n42&#45;&gt;n39 -->
<g id="edge74" class="edge">
<title>n42&#45;&gt;n39</title>
<path fill="none" stroke="#000000" d="M613.6732,-707.8435C615.0443,-700.4899 616.857,-690.7669 618.4829,-682.046"/>
<polygon fill="#000000" stroke="#000000" points="621.9391,-682.6044 620.3313,-672.1323 615.0577,-681.3214 621.9391,-682.6044"/>
</g>
<!-- n43&#45;&gt;n17 -->
<g id="edge77" class="edge">
<title>n43&#45;&gt;n17</title>
<path fill="none" stroke="#000000" d="M621.1049,-530.8435C620.8583,-523.5707 620.5332,-513.9803 620.2401,-505.3339"/>
<polygon fill="#000000" stroke="#000000" points="623.7312,-505.0079 619.8943,-495.1323 616.7352,-505.2452 623.7312,-505.0079"/>
</g>
</g>
</svg>
