<svg height="190pt" viewBox="0 0 187 190" width="187pt" xmlns="http://www.w3.org/2000/svg" xmlns:xlink="http://www.w3.org/1999/xlink"><clipPath id="a"><path d="m1 30h186v42h-186zm0 0"/></clipPath><clipPath id="b"><path d="m1 62h186v43h-186zm0 0"/></clipPath><clipPath id="c"><path d="m1 47h39v48h-39zm0 0"/></clipPath><clipPath id="d"><path d="m1 88h39v48h-39zm0 0"/></clipPath><clipPath id="e"><path d="m1 104h186v42h-186zm0 0"/></clipPath><clipPath id="f"><path d="m1 116h39v48h-39zm0 0"/></clipPath><clipPath id="g"><path d="m1 143h186v43h-186zm0 0"/></clipPath><clipPath id="h"><path d="m1 156h186v34h-186zm0 0"/></clipPath><clipPath id="i"><path d="m1 70h17v25h-17zm0 0"/></clipPath><clipPath id="j"><path d="m1 113h17v25h-17zm0 0"/></clipPath><clipPath id="k"><path d="m1 153h17v24h-17zm0 0"/></clipPath><clipPath id="l"><path d="m1 165h17v25h-17zm0 0"/></clipPath><clipPath id="m"><path d="m1 22h43v22h-43zm0 0"/></clipPath><symbol id="n" overflow="visible"><path d="m.6875 0v-6.21875h2.75c.550781 0 .972656.058594 1.265625.171875.289063.105469.519531.304687.6875.59375.175781.28125.265625.59375.265625.9375 0 .4375-.148438.808594-.4375 1.109375-.28125.304688-.71875.496094-1.3125.578125.21875.105469.382812.210937.5.3125.238281.21875.460938.496094.671875.828125l1.078125 1.6875h-1.03125l-.8125-1.296875c-.25-.375-.453125-.660156-.609375-.859375-.148437-.195312-.28125-.332031-.40625-.40625-.125-.082031-.25-.140625-.375-.171875-.09375-.019531-.25-.03125-.46875-.03125h-.953125v2.765625zm.8125-3.46875h1.78125c.375 0 .664062-.035156.875-.109375.207031-.082031.367188-.207031.484375-.375.113281-.175781.171875-.363281.171875-.5625 0-.300781-.109375-.546875-.328125-.734375-.210937-.1875-.546875-.28125-1.015625-.28125h-1.96875zm0 0"/></symbol><symbol id="o" overflow="visible"><path d="m5.109375-2.1875.828125.21875c-.179688.679688-.492188 1.195312-.9375 1.546875-.449219.3554688-.996094.53125-1.640625.53125-.679687 0-1.226563-.1328125-1.640625-.40625-.417969-.28125-.734375-.675781-.953125-1.1875-.21875-.519531-.328125-1.078125-.328125-1.671875 0-.644531.117188-1.207031.359375-1.6875.25-.488281.601563-.859375 1.0625-1.109375.457031-.25.960937-.375 1.515625-.375.613281 0 1.132812.164063 1.5625.484375.425781.3125.722656.757812.890625 1.328125l-.8125.1875c-.148437-.445313-.359375-.773437-.640625-.984375-.273438-.207031-.617188-.3125-1.03125-.3125-.46875 0-.867188.117188-1.1875.34375-.324219.230469-.554688.539062-.6875.921875-.125.386719-.1875.789063-.1875 1.203125 0 .53125.078125.996094.234375 1.390625.15625.386719.394531.679687.71875.875.320313.199219.671875.296875 1.046875.296875.46875 0 .859375-.128906 1.171875-.390625.320313-.269531.539063-.671875.65625-1.203125zm0 0"/></symbol><symbol id="p" overflow="visible"/><symbol id="q" overflow="visible"><path d="m.390625-2 .78125-.0625c.03125.3125.113281.570312.25.765625.132813.199219.34375.359375.625.484375s.597656.1875.953125.1875c.3125 0 .585938-.046875.828125-.140625.238281-.09375.414063-.222656.53125-.390625.125-.164062.1875-.34375.1875-.53125 0-.195312-.058594-.367188-.171875-.515625-.117188-.144531-.304688-.265625-.5625-.359375-.167969-.0625-.539062-.160156-1.109375-.296875-.5625-.144531-.960937-.28125-1.1875-.40625-.304687-.144531-.527344-.332031-.671875-.5625-.148438-.238281-.21875-.5-.21875-.78125 0-.3125.085938-.601563.265625-.875.175781-.28125.4375-.488281.78125-.625.34375-.144531.722656-.21875 1.140625-.21875.46875 0 .875.078125 1.21875.234375.351562.148438.625.367188.8125.65625.1875.28125.289062.605469.3125.96875l-.796875.0625c-.042969-.394531-.1875-.691406-.4375-.890625-.242187-.195313-.601563-.296875-1.078125-.296875-.492188 0-.851562.09375-1.078125.28125-.230469.179688-.34375.390625-.34375.640625 0 .230469.078125.417969.234375.5625.164062.148437.582031.296875 1.25.453125.664062.148438 1.125.273438 1.375.375.363281.167969.628906.382812.796875.640625.175781.261719.265625.558594.265625.890625 0 .324219-.101562.636719-.296875.9375-.1875.292969-.460937.523438-.8125.6875-.355469.15625-.75.234375-1.1875.234375-.5625 0-1.039063-.0859375-1.421875-.25-.375-.164063-.671875-.410156-.890625-.734375-.21875-.332031-.335937-.707031-.34375-1.125zm0 0"/></symbol><symbol id="r" overflow="visible"><path d="m3.65625-1.453125.796875.09375c-.125.46875-.359375.835937-.703125 1.09375-.335938.25-.761719.375-1.28125.375-.667969 0-1.195312-.203125-1.578125-.609375-.386719-.40625-.578125-.976562-.578125-1.71875 0-.75.191406-1.332031.578125-1.75.394531-.425781.90625-.640625 1.53125-.640625.601563 0 1.09375.210937 1.46875.625.382813.40625.578125.980469.578125 1.71875v.203125h-3.359375c.03125.5.171875.882812.421875 1.140625.25.261719.5625.390625.9375.390625.28125 0 .519531-.070312.71875-.21875.195312-.144531.351562-.378906.46875-.703125zm-2.5-1.234375h2.515625c-.042969-.375-.140625-.65625-.296875-.84375-.242188-.300781-.554688-.453125-.9375-.453125-.355469 0-.652344.121094-.890625.359375-.242187.230469-.371094.542969-.390625.9375zm0 0"/></symbol><symbol id="s" overflow="visible"><path d="m2.234375-.6875.109375.671875c-.210938.0507812-.402344.078125-.578125.078125-.273437 0-.484375-.0429688-.640625-.125-.148438-.09375-.25-.207031-.3125-.34375-.0625-.144531-.09375-.445312-.09375-.90625v-2.59375h-.5625v-.59375h.5625v-1.125l.75-.453125v1.578125h.765625v.59375h-.765625v2.625c0 .21875.007812.359375.03125.421875.03125.0625.078125.117187.140625.15625.0625.03125.148437.046875.265625.046875.082031 0 .191406-.007812.328125-.03125zm0 0"/></symbol><symbol id="t" overflow="visible"><path d="m3.53125 0v-.65625c-.355469.511719-.835938.765625-1.4375.765625-.261719 0-.511719-.0546875-.75-.15625-.230469-.101563-.402344-.234375-.515625-.390625-.105469-.15625-.179687-.34375-.21875-.5625-.03125-.144531-.046875-.382812-.046875-.71875v-2.78125h.75v2.5c0 .398438.015625.664062.046875.796875.050781.199219.15625.355469.3125.46875.15625.117187.347656.171875.578125.171875.226562 0 .441406-.054688.640625-.171875.195313-.113281.335937-.269531.421875-.46875.082031-.207031.125-.503906.125-.890625v-2.40625h.765625v4.5zm0 0"/></symbol><symbol id="u" overflow="visible"><path d="m.578125 1.71875v-6.21875h.6875v.578125c.164063-.226563.351563-.398437.5625-.515625.207031-.113281.457031-.171875.75-.171875.382813 0 .722656.101563 1.015625.296875.289062.199219.507812.480469.65625.84375.15625.355469.234375.75.234375 1.1875 0 .460938-.085937.875-.25 1.25-.167969.367188-.40625.648438-.71875.84375-.3125.1953125-.648437.296875-1 .296875-.25 0-.480469-.0546875-.6875-.15625-.199219-.113281-.359375-.253906-.484375-.421875v2.1875zm.6875-3.953125c0 .585937.113281 1.015625.34375 1.296875.238281.273438.523437.40625.859375.40625.34375 0 .632812-.140625.875-.421875.238281-.289063.359375-.738281.359375-1.34375 0-.570313-.121094-1-.359375-1.28125-.230469-.289063-.511719-.4375-.84375-.4375-.324219 0-.609375.15625-.859375.46875-.25.304687-.375.742187-.375 1.3125zm0 0"/></symbol><symbol id="v" overflow="visible"><path d="m.28125-2.25c0-.832031.234375-1.453125.703125-1.859375.382813-.332031.859375-.5 1.421875-.5.613281 0 1.117188.203125 1.515625.609375.394531.40625.59375.96875.59375 1.6875 0 .574219-.089844 1.027344-.265625 1.359375-.179688.335937-.433594.59375-.765625.78125-.335937.1875-.695313.28125-1.078125.28125-.636719 0-1.152344-.203125-1.546875-.609375-.386719-.40625-.578125-.988281-.578125-1.75zm.796875 0c0 .574219.125 1.007812.375 1.296875.25.28125.566406.421875.953125.421875.375 0 .6875-.140625.9375-.421875.25-.289063.375-.734375.375-1.328125 0-.550781-.125-.96875-.375-1.25-.25-.289062-.5625-.4375-.9375-.4375-.386719 0-.703125.140625-.953125.421875s-.375.714844-.375 1.296875zm0 0"/></symbol><symbol id="w" overflow="visible"><path d="m.578125 0v-4.5h.671875v.625c.144531-.21875.332031-.394531.5625-.53125.238281-.132812.507812-.203125.8125-.203125.332031 0 .601562.074219.8125.21875.21875.136719.367188.328125.453125.578125.351563-.53125.816406-.796875 1.390625-.796875.445312 0 .789062.125 1.03125.375.238281.25.359375.632813.359375 1.140625v3.09375h-.75v-2.84375c0-.300781-.027344-.519531-.078125-.65625-.054688-.132812-.148438-.238281-.28125-.3125-.125-.082031-.277344-.125-.453125-.125-.3125 0-.574219.105469-.78125.3125-.210937.210938-.3125.542969-.3125 1v2.625h-.765625v-2.921875c0-.34375-.0625-.597656-.1875-.765625-.125-.164062-.328125-.25-.609375-.25-.21875 0-.421875.058594-.609375.171875-.179688.105469-.308594.265625-.390625.484375-.074219.21875-.109375.53125-.109375.9375v2.34375zm0 0"/></symbol><symbol id="x" overflow="visible"><path d="m.5625 0v-6.21875h.75v6.21875zm0 0"/></symbol><symbol id="y" overflow="visible"><path d="m.0625 0 1.640625-2.34375-1.515625-2.15625h.953125l.6875 1.046875c.132813.210937.238281.382813.3125.515625.125-.1875.238281-.351562.34375-.5l.765625-1.0625h.90625l-1.546875 2.109375 1.671875 2.390625h-.9375l-.921875-1.40625-.25-.375-1.1875 1.78125zm0 0"/></symbol><symbol id="z" overflow="visible"><path d="m.671875 0v-6.21875h2.34375c.414063 0 .734375.023438.953125.0625.300781.054688.554688.152344.765625.296875.207031.136719.375.335937.5.59375.125.261719.1875.542969.1875.84375 0 .53125-.171875.980469-.515625 1.34375-.335938.367187-.9375.546875-1.8125.546875h-1.59375v2.53125zm.828125-3.265625h1.59375c.53125 0 .90625-.097656 1.125-.296875.226562-.195312.34375-.472656.34375-.828125 0-.257813-.070312-.484375-.203125-.671875-.125-.1875-.292969-.3125-.5-.375-.148437-.03125-.40625-.046875-.78125-.046875h-1.578125zm0 0"/></symbol><symbol id="A" overflow="visible"><path d="m-.015625 0 2.390625-6.21875h.890625l2.546875 6.21875h-.9375l-.734375-1.890625h-2.59375l-.6875 1.890625zm1.796875-2.546875h2.109375l-.65625-1.734375c-.199219-.519531-.34375-.945312-.4375-1.28125-.074219.398438-.183594.792969-.328125 1.1875zm0 0"/></symbol><symbol id="B" overflow="visible"><path d="m.703125 0v-6.21875h.8125v2.546875h3.234375v-2.546875h.828125v6.21875h-.828125v-2.9375h-3.234375v2.9375zm0 0"/></symbol><symbol id="C" overflow="visible"><path d="m.578125 0v-4.5h.6875v.640625c.320313-.5.796875-.75 1.421875-.75.269531 0 .519531.054687.75.15625.226562.09375.398438.21875.515625.375.113281.15625.191406.34375.234375.5625.03125.148437.046875.398437.046875.75v2.765625h-.765625v-2.734375c0-.3125-.03125-.546875-.09375-.703125-.054688-.15625-.15625-.273438-.3125-.359375-.148438-.09375-.324219-.140625-.53125-.140625-.324219 0-.605469.105469-.84375.3125-.230469.199219-.34375.589844-.34375 1.171875v2.453125zm0 0"/></symbol><symbol id="D" overflow="visible"><path d="m3.515625-1.65625.75.109375c-.085937.511719-.296875.917969-.640625 1.21875-.335938.2929688-.746094.4375-1.234375.4375-.617187 0-1.109375-.203125-1.484375-.609375s-.5625-.984375-.5625-1.734375c0-.488281.078125-.914063.234375-1.28125.164063-.363281.410156-.632813.734375-.8125.332031-.1875.691406-.28125 1.078125-.28125.488281 0 .890625.125 1.203125.375s.507812.601563.59375 1.046875l-.734375.125c-.074219-.300781-.203125-.53125-.390625-.6875-.179688-.15625-.390625-.234375-.640625-.234375-.386719 0-.699219.140625-.9375.421875-.242187.273438-.359375.710938-.359375 1.3125 0 .605469.113281 1.042969.34375 1.3125.226562.273438.53125.40625.90625.40625.300781 0 .550781-.085938.75-.265625.207031-.1875.335938-.472656.390625-.859375zm0 0"/></symbol><symbol id="E" overflow="visible"><path d="m.578125-5.34375v-.875h.765625v.875zm0 5.34375v-4.5h.765625v4.5zm0 0"/></symbol><symbol id="F" overflow="visible"><path d="m3.4375 1.71875v-2.203125c-.117188.167969-.28125.308594-.5.421875-.210938.1132812-.433594.171875-.671875.171875-.53125 0-.992187-.210937-1.375-.640625-.386719-.425781-.578125-1.015625-.578125-1.765625 0-.445313.078125-.847656.234375-1.203125.15625-.363281.378906-.640625.671875-.828125.300781-.1875.628906-.28125.984375-.28125.5625 0 1 .234375 1.3125.703125v-.59375h.6875v6.21875zm-2.34375-3.984375c0 .585937.117188 1.023437.359375 1.3125.238281.28125.53125.421875.875.421875.320313 0 .597656-.132812.828125-.40625.238281-.28125.359375-.703125.359375-1.265625 0-.59375-.125-1.039063-.375-1.34375-.242187-.300781-.527344-.453125-.859375-.453125-.335938 0-.617188.140625-.84375.421875-.230469.28125-.34375.71875-.34375 1.3125zm0 0"/></symbol><symbol id="G" overflow="visible"><path d="m.265625-1.34375.75-.125c.050781.304688.171875.539062.359375.703125.195312.15625.46875.234375.8125.234375.351562 0 .613281-.066406.78125-.203125.164062-.144531.25-.316406.25-.515625 0-.164062-.074219-.300781-.21875-.40625-.105469-.0625-.367188-.144531-.78125-.25-.5625-.144531-.953125-.269531-1.171875-.375-.210937-.101562-.371094-.242188-.484375-.421875-.117188-.1875-.171875-.390625-.171875-.609375 0-.195312.046875-.378906.140625-.546875.09375-.175781.21875-.320313.375-.4375.125-.082031.285156-.15625.484375-.21875.207031-.0625.425781-.09375.65625-.09375.351563 0 .664063.054687.9375.15625.269531.105469.46875.246094.59375.421875.125.167969.210937.398438.265625.6875l-.75.109375c-.03125-.238281-.132812-.421875-.296875-.546875-.167969-.132812-.398437-.203125-.6875-.203125-.355469 0-.609375.0625-.765625.1875-.148438.117187-.21875.25-.21875.40625 0 .09375.03125.183594.09375.265625.0625.085938.160156.152344.296875.203125.082031.023437.304687.085937.671875.1875.539062.148437.914062.265625 1.125.359375.21875.09375.390625.230469.515625.40625.125.167969.1875.382812.1875.640625 0 .261719-.078125.507813-.234375.734375-.148438.21875-.359375.390625-.640625.515625s-.601563.1875-.953125.1875c-.585938 0-1.03125-.1171875-1.34375-.359375-.304688-.25-.496094-.613281-.578125-1.09375zm0 0"/></symbol><symbol id="H" overflow="visible"><path d="m4.75-6.21875h.828125v3.59375c0 .625-.074219 1.125-.21875 1.5-.136719.367188-.390625.664062-.765625.890625-.367188.23046875-.851562.34375-1.453125.34375-.585937 0-1.0625-.1015625-1.4375-.296875-.367187-.207031-.625-.5-.78125-.875-.15625-.382812-.234375-.90625-.234375-1.5625v-3.59375h.8125v3.59375c0 .542969.050781.945312.15625 1.203125.101562.25.273438.445313.515625.578125.25.136719.550781.203125.90625.203125.601563 0 1.03125-.132813 1.28125-.40625.257813-.269531.390625-.796875.390625-1.578125zm0 0"/></symbol><symbol id="I" overflow="visible"><path d="m.6875 0v-6.21875h4.5v.734375h-3.671875v1.90625h3.4375v.734375h-3.4375v2.109375h3.8125v.734375zm0 0"/></symbol><symbol id="J" overflow="visible"><path d="m2.25 0v-5.484375h-2.046875v-.734375h4.921875v.734375h-2.046875v5.484375zm0 0"/></symbol><symbol id="K" overflow="visible"><path d="m3.515625-.5625c-.28125.25-.558594.429688-.828125.53125-.261719.09375-.539062.140625-.828125.140625-.5 0-.886719-.1171875-1.15625-.359375-.261719-.25-.390625-.5625-.390625-.9375 0-.21875.046875-.414062.140625-.59375.101563-.1875.238281-.332031.40625-.4375.164063-.113281.347656-.203125.546875-.265625.15625-.039063.382812-.078125.6875-.109375.613281-.070312 1.066406-.160156 1.359375-.265625 0-.101563 0-.171875 0-.203125 0-.3125-.074219-.53125-.21875-.65625-.199219-.164062-.492187-.25-.875-.25-.355469 0-.621094.0625-.796875.1875-.167969.125-.292969.34375-.375.65625l-.734375-.09375c.0625-.320312.171875-.578125.328125-.765625.15625-.195313.378906-.347656.671875-.453125.289063-.113281.632813-.171875 1.03125-.171875.375 0 .679687.046875.921875.140625.25.09375.425781.210938.53125.34375.113281.136719.195312.308594.25.515625.019531.125.03125.359375.03125.703125v1.015625c0 .710937.015625 1.15625.046875 1.34375s.097656.371094.203125.546875h-.796875c-.085937-.15625-.136719-.34375-.15625-.5625zm-.0625-1.703125c-.28125.117187-.699219.214844-1.25.296875-.3125.042969-.539063.09375-.671875.15625-.125.054688-.226562.136719-.296875.25-.074219.105469-.109375.226562-.109375.359375 0 .199219.078125.367187.234375.5.15625.136719.378906.203125.671875.203125.300781 0 .566406-.0625.796875-.1875.226563-.125.394531-.300781.5-.53125.082031-.164062.125-.421875.125-.765625zm0 0"/></symbol><symbol id="L" overflow="visible"><path d="m.5625 0v-4.5h.6875v.671875c.175781-.3125.335938-.519531.484375-.625.144531-.101563.3125-.15625.5-.15625.25 0 .507813.085937.78125.25l-.265625.703125c-.1875-.101562-.375-.15625-.5625-.15625-.167969 0-.320312.054688-.453125.15625-.125.09375-.21875.230469-.28125.40625-.085937.273438-.125.570312-.125.890625v2.359375zm0 0"/></symbol><symbol id="M" overflow="visible"><path d="m.4375.375.734375.109375c.03125.226563.117187.394531.265625.5.1875.144531.441406.21875.765625.21875.351563 0 .625-.074219.8125-.21875.195313-.148437.332031-.34375.40625-.59375.039063-.15625.054687-.484375.046875-.984375-.335938.398438-.746094.59375-1.234375.59375-.625 0-1.109375-.222656-1.453125-.671875-.335938-.445313-.5-.984375-.5-1.609375 0-.425781.078125-.820312.234375-1.1875.15625-.363281.378906-.644531.671875-.84375.300781-.195312.648438-.296875 1.046875-.296875.53125 0 .96875.214844 1.3125.640625v-.53125h.703125v3.890625c0 .6953125-.074219 1.191406-.21875 1.484375-.136719.289062-.359375.519531-.671875.6875-.3125.175781-.695313.265625-1.140625.265625-.542969 0-.980469-.121094-1.3125-.359375-.324219-.242188-.480469-.605469-.46875-1.09375zm.625-2.703125c0 .585937.113281 1.015625.34375 1.296875.238281.273438.535156.40625.890625.40625.351563 0 .644531-.132812.875-.40625.238281-.269531.359375-.695312.359375-1.28125 0-.550781-.125-.960938-.375-1.234375-.242188-.28125-.53125-.421875-.875-.421875-.335938 0-.621094.140625-.859375.421875-.242187.273437-.359375.679687-.359375 1.21875zm0 0"/></symbol><symbol id="N" overflow="visible"><path d="m.640625 0v-6.21875h.8125v5.484375h3.0625v.734375zm0 0"/></symbol><symbol id="O" overflow="visible"><path d="m.65625 0v-6.21875h.84375l3.265625 4.875v-4.875h.796875v6.21875h-.84375l-3.265625-4.890625v4.890625zm0 0"/></symbol><symbol id="P" overflow="visible"><path d="m.640625 0v-6.21875h2.328125c.476562 0 .859375.0625 1.140625.1875.289063.125.515625.320312.671875.578125.164062.261719.25.539063.25.828125 0 .261719-.074219.511719-.21875.75-.148438.230469-.367188.417969-.65625.5625.375.117188.660156.308594.859375.578125.207031.261719.3125.574219.3125.9375 0 .292969-.0625.5625-.1875.8125-.117187.25-.265625.445313-.453125.578125-.179688.136719-.40625.242188-.6875.3125-.273438.0625-.605469.09375-1 .09375zm.8125-3.609375h1.34375c.363281 0 .628906-.019531.796875-.0625.207031-.0625.363281-.164063.46875-.3125.101562-.144531.15625-.328125.15625-.546875 0-.207031-.054688-.390625-.15625-.546875-.09375-.15625-.234375-.257813-.421875-.3125-.179687-.0625-.492187-.09375-.9375-.09375h-1.25zm0 2.875h1.546875c.269531 0 .457031-.007813.5625-.03125.195312-.03125.359375-.082031.484375-.15625.125-.082031.226563-.195313.3125-.34375.082031-.15625.125-.332031.125-.53125 0-.238281-.0625-.441406-.1875-.609375-.117187-.164062-.28125-.285156-.5-.359375-.210937-.070313-.511719-.109375-.90625-.109375h-1.4375zm0 0"/></symbol><symbol id="Q" overflow="visible"><path d="m.671875 0v-6.21875h2.140625c.476562 0 .847656.03125 1.109375.09375.351563.085938.65625.230469.90625.4375.332031.28125.578125.640625.734375 1.078125.164062.429687.25.917969.25 1.46875 0 .46875-.058594.886719-.171875 1.25-.105469.367187-.246094.667969-.421875.90625-.167969.242187-.355469.429687-.5625.5625-.210938.136719-.460938.242187-.75.3125-.28125.0742188-.609375.109375-.984375.109375zm.828125-.734375h1.328125c.40625 0 .722656-.035156.953125-.109375.238281-.082031.425781-.191406.5625-.328125.195312-.195313.347656-.457031.453125-.78125.113281-.332031.171875-.734375.171875-1.203125 0-.644531-.109375-1.140625-.328125-1.484375-.210937-.351563-.46875-.59375-.78125-.71875-.21875-.082031-.574219-.125-1.0625-.125h-1.296875zm0 0"/></symbol><symbol id="R" overflow="visible"><path d="m.578125 0v-6.21875h.765625v2.234375c.351562-.414063.800781-.625 1.34375-.625.332031 0 .617188.070313.859375.203125.25.125.425781.308594.53125.546875.101563.230469.15625.5625.15625 1v2.859375h-.75v-2.859375c0-.375-.085937-.648437-.25-.828125-.167969-.175781-.402344-.265625-.703125-.265625-.230469 0-.445312.0625-.640625.1875-.199219.117187-.339844.273437-.421875.46875-.085938.199219-.125.476563-.125.828125v2.46875zm0 0"/></symbol><symbol id="S" overflow="visible"><path d="m0 .109375 1.796875-6.4375h.609375l-1.796875 6.4375zm0 0"/></symbol><symbol id="T" overflow="visible"><path d="m.8125 0v-6.21875h.828125v6.21875zm0 0"/></symbol><symbol id="U" overflow="visible"><path d="m.53125 1.734375-.078125-.71875c.164063.050781.3125.078125.4375.078125.164063 0 .300781-.03125.40625-.09375.101563-.054688.1875-.132812.25-.234375.050781-.074219.128906-.265625.234375-.578125.007812-.042969.03125-.1015625.0625-.171875l-1.703125-4.515625h.828125l.9375 2.609375c.113281.324219.222656.667969.328125 1.03125.082031-.34375.1875-.679687.3125-1.015625l.953125-2.625h.765625l-1.71875 4.578125c-.179687.488281-.320313.828125-.421875 1.015625-.136719.25-.292969.429688-.46875.546875-.179688.125-.386719.1875-.625.1875-.148438 0-.3125-.03125-.5-.09375zm0 0"/></symbol><symbol id="V" overflow="visible"><path d="m.171875 0v-.625l2.859375-3.28125c-.324219.011719-.609375.015625-.859375.015625h-1.828125v-.609375h3.671875v.5l-2.4375 2.859375-.46875.515625c.34375-.019531.664063-.03125.96875-.03125h2.078125v.65625zm0 0"/></symbol><symbol id="W" overflow="visible"><path d="m3.328125 0h-2.78125v-.734375h.890625v-2.21875h-.890625v-.6875c.132813 0 .265625-.003906.390625-.015625.125-.019531.226562-.050781.3125-.09375.082031-.039062.148438-.097656.203125-.171875.050781-.082031.082031-.179687.09375-.296875h.921875v3.484375h.859375zm0 0"/></symbol><symbol id="X" overflow="visible"><path d="m3.515625 0h-3.09375v-.6875c.257813-.207031.492187-.398438.703125-.578125.207031-.1875.390625-.363281.546875-.53125.207031-.21875.359375-.40625.453125-.5625.09375-.164063.140625-.335937.140625-.515625 0-.195312-.0625-.347656-.1875-.453125-.117187-.101563-.277344-.15625-.484375-.15625-.105469 0-.203125.015625-.296875.046875-.09375.023438-.195313.054688-.296875.09375-.09375.042969-.179688.089844-.25.140625-.0625.042969-.109375.074219-.140625.09375h-.078125v-.90625c.113281-.0625.296875-.117187.546875-.171875.257813-.0625.503906-.09375.734375-.09375.5 0 .875.109375 1.125.328125.257812.21875.390625.53125.390625.9375 0 .25-.058594.496094-.171875.734375-.117188.242188-.308594.496094-.578125.765625-.167969.167969-.335937.320313-.5.453125-.15625.125-.273437.214844-.34375.265625h1.78125zm0 0"/></symbol><symbol id="Y" overflow="visible"><path d="m3.40625-1.265625c0 .199219-.039062.386719-.109375.5625-.074219.167969-.183594.308594-.328125.421875-.15625.117188-.335938.2109375-.53125.28125-.199219.0625-.445312.09375-.734375.09375-.324219 0-.605469-.03125-.84375-.09375-.230469-.0507812-.417969-.109375-.5625-.171875v-.921875h.09375c.15625.105469.335937.195312.546875.265625.207031.0625.394531.09375.5625.09375.101562 0 .210938-.003906.328125-.015625.125-.019531.226563-.0625.3125-.125.0625-.039062.109375-.097656.140625-.171875.039062-.070313.0625-.171875.0625-.296875s-.027344-.21875-.078125-.28125c-.054687-.0625-.125-.109375-.21875-.140625s-.203125-.046875-.328125-.046875c-.125-.007812-.234375-.015625-.328125-.015625h-.171875v-.734375h.15625c.125 0 .238281-.003906.34375-.015625.113281-.019531.207031-.046875.28125-.078125.070312-.03125.128906-.078125.171875-.140625.050781-.070313.078125-.160156.078125-.265625 0-.082031-.023438-.148438-.0625-.203125-.042969-.050781-.09375-.09375-.15625-.125-.0625-.039063-.140625-.066406-.234375-.078125-.085937-.007812-.164063-.015625-.234375-.015625-.09375 0-.199219.015625-.3125.046875-.105469.023438-.210938.054688-.3125.09375-.074219.023438-.15625.058594-.25.109375-.085938.054687-.148438.089844-.1875.109375h-.09375v-.90625c.144531-.0625.335938-.117188.578125-.171875.25-.0625.503906-.09375.765625-.09375.25 0 .460938.027344.640625.078125.1875.042969.347656.105469.484375.1875.132812.085938.238281.195312.3125.328125.070312.136719.109375.292969.109375.46875 0 .242187-.070313.449219-.203125.625-.136719.179687-.320312.292969-.546875.34375v.046875c.101563.011719.203125.039062.296875.078125.09375.03125.179688.089844.265625.171875.09375.074219.164063.167969.21875.28125.050781.117188.078125.257812.078125.421875zm0 0"/></symbol><symbol id="Z" overflow="visible"><path d="m3.5625-.984375h-.5625v1h-1.03125v-1h-1.84375v-.78125l1.8125-2.4375h1.0625v2.46875h.5625zm-1.59375-.75v-1.4375l-1.0625 1.4375zm0 0"/></symbol><symbol id="aa" overflow="visible"><path d="m0 .734375h1.390625v1.375h-1.390625zm0 0"/></symbol><path d="m1-3.039062h191v202.574218h-191zm0 0" fill="#fff"/><path d="m11.492188 153.746094h173.632812v34.878906h-173.632812zm0 0" fill="#d5e8d4" fill-opacity=".2"/><path d="m15.832031 153.382812h2.167969v.726563h-2.167969zm4.339844 0h2.171875v.726563h-2.171875zm4.339844 0h2.171875v.726563h-2.171875zm4.34375 0h2.167969v.726563h-2.167969zm4.339843 0h2.171876v.726563h-2.171876zm4.339844 0h2.171875v.726563h-2.171875zm4.339844 0h2.171875v.726563h-2.171875zm4.34375 0h2.167969v.726563h-2.167969zm4.339844 0h2.171875v.726563h-2.171875zm4.339844 0h2.171874v.726563h-2.171874zm4.34375 0h2.167968v.726563h-2.167968zm4.339843 0h2.167969v.726563h-2.167969zm4.339844 0h2.171875v.726563h-2.171875zm4.339844 0h2.171875v.726563h-2.171875zm4.34375 0h2.167969v.726563h-2.167969zm4.339843 0h2.171876v.726563h-2.171876zm4.339844 0h2.171875v.726563h-2.171875zm4.339844 0h2.171875v.726563h-2.171875zm4.34375 0h2.167969v.726563h-2.167969zm4.339844 0h2.171875v.726563h-2.171875zm4.339844 0h2.171874v.726563h-2.171874zm4.34375 0h2.167968v.726563h-2.167968zm4.339843 0h2.167969v.726563h-2.167969zm4.339844 0h2.171875v.726563h-2.171875zm4.339844 0h2.171875v.726563h-2.171875zm4.34375 0h2.167969v.726563h-2.167969zm4.339843 0h2.171876v.726563h-2.171876zm4.339844 0h2.171875v.726563h-2.171875zm4.339844 0h2.171875v.726563h-2.171875zm4.34375 0h2.167969v.726563h-2.167969zm4.339844 0h2.171875v.726563h-2.171875zm4.339844 0h2.171874v.726563h-2.171874zm4.34375 0h2.167968v.726563h-2.167968zm4.339843 0h2.167969v.726563h-2.167969zm4.339844 0h2.171875v.726563h-2.171875zm4.339844 0h2.171875v.726563h-2.171875zm4.34375 0h2.167969v.726563h-2.167969zm4.339843 0h2.171876v.726563h-2.171876zm4.339844 0h2.171875v.726563h-2.171875zm4.703125.363282v2.171875h-.722656v-2.171875zm0 4.339844v2.171874h-.722656v-2.171874zm0 4.34375v2.167968h-.722656v-2.167968zm0 4.339843v2.171875h-.722656v-2.171875zm0 4.339844v2.171875h-.722656v-2.171875zm0 4.339844v2.171875h-.722656v-2.171875zm0 4.34375v2.167969h-.722656v-2.167969zm0 4.339843v2.171876h-.722656v-2.171876zm0 4.339844v.515625h-2.378906v-.722656h2.015625v.359375h-.359375v-.152344zm-4.550781.515625h-2.171875v-.722656h2.171875zm-4.339844 0h-2.171875v-.722656h2.171875zm-4.339844 0h-2.171874v-.722656h2.171874zm-4.34375 0h-2.167968v-.722656h2.167968zm-4.339843 0h-2.171875v-.722656h2.171875zm-4.339844 0h-2.171875v-.722656h2.171875zm-4.34375 0h-2.167969v-.722656h2.167969zm-4.339844 0h-2.167969v-.722656h2.167969zm-4.339843 0h-2.171876v-.722656h2.171876zm-4.339844 0h-2.171875v-.722656h2.171875zm-4.34375 0h-2.167969v-.722656h2.167969zm-4.339844 0h-2.171875v-.722656h2.171875zm-4.339844 0h-2.171875v-.722656h2.171875zm-4.339844 0h-2.171874v-.722656h2.171874zm-4.34375 0h-2.167968v-.722656h2.167968zm-4.339843 0h-2.171875v-.722656h2.171875zm-4.339844 0h-2.171875v-.722656h2.171875zm-4.34375 0h-2.167969v-.722656h2.167969zm-4.339844 0h-2.167969v-.722656h2.167969zm-4.339843 0h-2.171876v-.722656h2.171876zm-4.339844 0h-2.171875v-.722656h2.171875zm-4.34375 0h-2.167969v-.722656h2.167969zm-4.339844 0h-2.171875v-.722656h2.171875zm-4.339844 0h-2.171875v-.722656h2.171875zm-4.339844 0h-2.171874v-.722656h2.171874zm-4.34375 0h-2.167968v-.722656h2.167968zm-4.339843 0h-2.171875v-.722656h2.171875zm-4.339844 0h-2.171875v-.722656h2.171875zm-4.34375 0h-2.167969v-.722656h2.167969zm-4.339844 0h-2.167969v-.722656h2.167969zm-4.339843 0h-2.171876v-.722656h2.171876zm-4.339844 0h-2.171875v-.722656h2.171875zm-4.34375 0h-2.167969v-.722656h2.167969zm-4.339844 0h-2.171875v-.722656h2.171875zm-4.339844 0h-2.171875v-.722656h2.171875zm-4.339844 0h-2.171874v-.722656h2.171874zm-4.34375 0h-2.167968v-.722656h2.167968zm-4.339843 0h-2.171875v-.722656h2.171875zm-4.339844 0h-2.171875v-.722656h2.171875zm-4.34375 0h-.511719v-2.382812h.722656v2.019531h-.359374v-.359375h.148437zm-.511719-4.550781v-2.171875h.722656v2.171875zm0-4.339844v-2.171875h.722656v2.171875zm0-4.34375v-2.167968h.722656v2.167968zm0-4.339844v-2.171874h.722656v2.171874zm0-4.339843v-2.171875h.722656v2.171875zm0-4.34375v-2.167969h.722656v2.167969zm0-4.339844v-2.167969h.722656v2.167969zm0-4.339844v-.667969h2.53125v.726563h-2.167968v-.363281h.359374v.304687zm0 0" fill="#82b366"/><path d="m11.492188 95.066406h173.632812v51.515625h-173.632812zm0 0" fill="#dae8fc" fill-opacity=".2"/><path d="m15.832031 94.703125h2.167969v.722656h-2.167969zm4.339844 0h2.171875v.722656h-2.171875zm4.339844 0h2.171875v.722656h-2.171875zm4.34375 0h2.167969v.722656h-2.167969zm4.339843 0h2.171876v.722656h-2.171876zm4.339844 0h2.171875v.722656h-2.171875zm4.339844 0h2.171875v.722656h-2.171875zm4.34375 0h2.167969v.722656h-2.167969zm4.339844 0h2.171875v.722656h-2.171875zm4.339844 0h2.171874v.722656h-2.171874zm4.34375 0h2.167968v.722656h-2.167968zm4.339843 0h2.167969v.722656h-2.167969zm4.339844 0h2.171875v.722656h-2.171875zm4.339844 0h2.171875v.722656h-2.171875zm4.34375 0h2.167969v.722656h-2.167969zm4.339843 0h2.171876v.722656h-2.171876zm4.339844 0h2.171875v.722656h-2.171875zm4.339844 0h2.171875v.722656h-2.171875zm4.34375 0h2.167969v.722656h-2.167969zm4.339844 0h2.171875v.722656h-2.171875zm4.339844 0h2.171874v.722656h-2.171874zm4.34375 0h2.167968v.722656h-2.167968zm4.339843 0h2.167969v.722656h-2.167969zm4.339844 0h2.171875v.722656h-2.171875zm4.339844 0h2.171875v.722656h-2.171875zm4.34375 0h2.167969v.722656h-2.167969zm4.339843 0h2.171876v.722656h-2.171876zm4.339844 0h2.171875v.722656h-2.171875zm4.339844 0h2.171875v.722656h-2.171875zm4.34375 0h2.167969v.722656h-2.167969zm4.339844 0h2.171875v.722656h-2.171875zm4.339844 0h2.171874v.722656h-2.171874zm4.34375 0h2.167968v.722656h-2.167968zm4.339843 0h2.167969v.722656h-2.167969zm4.339844 0h2.171875v.722656h-2.171875zm4.339844 0h2.171875v.722656h-2.171875zm4.34375 0h2.167969v.722656h-2.167969zm4.339843 0h2.171876v.722656h-2.171876zm4.339844 0h2.171875v.722656h-2.171875zm4.703125.363281v2.167969h-.722656v-2.167969zm0 4.339844v2.167969h-.722656v-2.167969zm0 4.339844v2.171875h-.722656v-2.171875zm0 4.339844v2.171874h-.722656v-2.171874zm0 4.34375v2.167968h-.722656v-2.167968zm0 4.339843v2.171875h-.722656v-2.171875zm0 4.339844v2.171875h-.722656v-2.171875zm0 4.339844v2.171875h-.722656v-2.171875zm0 4.34375v2.167969h-.722656v-2.167969zm0 4.339843v2.171876h-.722656v-2.171876zm0 4.339844v2.171875h-.722656v-2.171875zm0 4.34375v2.167969h-.722656v-2.167969zm-.933593 4.128906h-2.167969v-.722656h2.167969zm-4.339844 0h-2.171875v-.722656h2.171875zm-4.339844 0h-2.171875v-.722656h2.171875zm-4.34375 0h-2.167969v-.722656h2.167969zm-4.339844 0h-2.171875v-.722656h2.171875zm-4.339844 0h-2.171874v-.722656h2.171874zm-4.339843 0h-2.171875v-.722656h2.171875zm-4.34375 0h-2.167969v-.722656h2.167969zm-4.339844 0h-2.171875v-.722656h2.171875zm-4.339844 0h-2.171875v-.722656h2.171875zm-4.34375 0h-2.167969v-.722656h2.167969zm-4.339843 0h-2.167969v-.722656h2.167969zm-4.339844 0h-2.171875v-.722656h2.171875zm-4.339844 0h-2.171875v-.722656h2.171875zm-4.34375 0h-2.167969v-.722656h2.167969zm-4.339844 0h-2.171875v-.722656h2.171875zm-4.339844 0h-2.171874v-.722656h2.171874zm-4.339843 0h-2.171875v-.722656h2.171875zm-4.34375 0h-2.167969v-.722656h2.167969zm-4.339844 0h-2.171875v-.722656h2.171875zm-4.339844 0h-2.171875v-.722656h2.171875zm-4.34375 0h-2.167969v-.722656h2.167969zm-4.339843 0h-2.167969v-.722656h2.167969zm-4.339844 0h-2.171875v-.722656h2.171875zm-4.339844 0h-2.171875v-.722656h2.171875zm-4.34375 0h-2.167969v-.722656h2.167969zm-4.339844 0h-2.171875v-.722656h2.171875zm-4.339844 0h-2.171874v-.722656h2.171874zm-4.339843 0h-2.171875v-.722656h2.171875zm-4.34375 0h-2.167969v-.722656h2.167969zm-4.339844 0h-2.171875v-.722656h2.171875zm-4.339844 0h-2.171875v-.722656h2.171875zm-4.34375 0h-2.167969v-.722656h2.167969zm-4.339843 0h-2.167969v-.722656h2.167969zm-4.339844 0h-2.171875v-.722656h2.171875zm-4.339844 0h-2.171875v-.722656h2.171875zm-4.34375 0h-2.167969v-.722656h2.167969zm-4.339844 0h-2.171875v-.722656h2.171875zm-4.339844 0h-2.171874v-.722656h2.171874zm-4.339843 0h-2.171875v-.722656h2.171875zm-4.132813-.933593v-2.167969h.722656v2.167969zm0-4.339844v-2.171875h.722656v2.171875zm0-4.339844v-2.171875h.722656v2.171875zm0-4.34375v-2.167969h.722656v2.167969zm0-4.339843v-2.171876h.722656v2.171876zm0-4.339844v-2.171875h.722656v2.171875zm0-4.339844v-2.171875h.722656v2.171875zm0-4.34375v-2.167969h.722656v2.167969zm0-4.339844v-2.171875h.722656v2.171875zm0-4.339844v-2.171874h.722656v2.171874zm0-4.34375v-2.167968h.722656v2.167968zm0-4.339843v-2.167969h.722656v2.167969zm.363282-3.558594h2.167968v.722656h-2.167968zm0 0" fill="#6c8ebf"/><path d="m11.492188 60.335938h173.632812v27.644531h-173.632812zm0 0" fill="#fff2cc" fill-opacity=".2"/><path d="m15.832031 59.976562h2.167969v.722657h-2.167969zm4.339844 0h2.171875v.722657h-2.171875zm4.339844 0h2.171875v.722657h-2.171875zm4.34375 0h2.167969v.722657h-2.167969zm4.339843 0h2.171876v.722657h-2.171876zm4.339844 0h2.171875v.722657h-2.171875zm4.339844 0h2.171875v.722657h-2.171875zm4.34375 0h2.167969v.722657h-2.167969zm4.339844 0h2.171875v.722657h-2.171875zm4.339844 0h2.171874v.722657h-2.171874zm4.34375 0h2.167968v.722657h-2.167968zm4.339843 0h2.167969v.722657h-2.167969zm4.339844 0h2.171875v.722657h-2.171875zm4.339844 0h2.171875v.722657h-2.171875zm4.34375 0h2.167969v.722657h-2.167969zm4.339843 0h2.171876v.722657h-2.171876zm4.339844 0h2.171875v.722657h-2.171875zm4.339844 0h2.171875v.722657h-2.171875zm4.34375 0h2.167969v.722657h-2.167969zm4.339844 0h2.171875v.722657h-2.171875zm4.339844 0h2.171874v.722657h-2.171874zm4.34375 0h2.167968v.722657h-2.167968zm4.339843 0h2.167969v.722657h-2.167969zm4.339844 0h2.171875v.722657h-2.171875zm4.339844 0h2.171875v.722657h-2.171875zm4.34375 0h2.167969v.722657h-2.167969zm4.339843 0h2.171876v.722657h-2.171876zm4.339844 0h2.171875v.722657h-2.171875zm4.339844 0h2.171875v.722657h-2.171875zm4.34375 0h2.167969v.722657h-2.167969zm4.339844 0h2.171875v.722657h-2.171875zm4.339844 0h2.171874v.722657h-2.171874zm4.34375 0h2.167968v.722657h-2.167968zm4.339843 0h2.167969v.722657h-2.167969zm4.339844 0h2.171875v.722657h-2.171875zm4.339844 0h2.171875v.722657h-2.171875zm4.34375 0h2.167969v.722657h-2.167969zm4.339843 0h2.171876v.722657h-2.171876zm4.339844 0h2.171875v.722657h-2.171875zm4.703125.359376v2.171874h-.722656v-2.171874zm0 4.34375v2.167968h-.722656v-2.167968zm0 4.339843v2.171875h-.722656v-2.171875zm0 4.339844v2.171875h-.722656v-2.171875zm0 4.339844v2.171875h-.722656v-2.171875zm0 4.34375v2.167969h-.722656v-2.167969zm0 4.339843v1.960938h-.933593v-.722656h.570312v.359375h-.359375v-1.597657zm-3.101562 1.960938h-2.171875v-.722656h2.171875zm-4.34375 0h-2.167969v-.722656h2.167969zm-4.339844 0h-2.171875v-.722656h2.171875zm-4.339844 0h-2.171875v-.722656h2.171875zm-4.34375 0h-2.167969v-.722656h2.167969zm-4.339843 0h-2.167969v-.722656h2.167969zm-4.339844 0h-2.171875v-.722656h2.171875zm-4.339844 0h-2.171875v-.722656h2.171875zm-4.34375 0h-2.167969v-.722656h2.167969zm-4.339844 0h-2.171875v-.722656h2.171875zm-4.339844 0h-2.171874v-.722656h2.171874zm-4.339843 0h-2.171875v-.722656h2.171875zm-4.34375 0h-2.167969v-.722656h2.167969zm-4.339844 0h-2.171875v-.722656h2.171875zm-4.339844 0h-2.171875v-.722656h2.171875zm-4.34375 0h-2.167969v-.722656h2.167969zm-4.339843 0h-2.167969v-.722656h2.167969zm-4.339844 0h-2.171875v-.722656h2.171875zm-4.339844 0h-2.171875v-.722656h2.171875zm-4.34375 0h-2.167969v-.722656h2.167969zm-4.339844 0h-2.171875v-.722656h2.171875zm-4.339844 0h-2.171874v-.722656h2.171874zm-4.339843 0h-2.171875v-.722656h2.171875zm-4.34375 0h-2.167969v-.722656h2.167969zm-4.339844 0h-2.171875v-.722656h2.171875zm-4.339844 0h-2.171875v-.722656h2.171875zm-4.34375 0h-2.167969v-.722656h2.167969zm-4.339843 0h-2.167969v-.722656h2.167969zm-4.339844 0h-2.171875v-.722656h2.171875zm-4.339844 0h-2.171875v-.722656h2.171875zm-4.34375 0h-2.167969v-.722656h2.167969zm-4.339844 0h-2.171875v-.722656h2.171875zm-4.339844 0h-2.171874v-.722656h2.171874zm-4.339843 0h-2.171875v-.722656h2.171875zm-4.34375 0h-2.167969v-.722656h2.167969zm-4.339844 0h-2.171875v-.722656h2.171875zm-4.339844 0h-2.171875v-.722656h2.171875zm-4.34375 0h-2.167969v-.722656h2.167969zm-4.339843 0h-2.167969v-.722656h2.167969zm-4.339844 0h-1.960938v-.933594h.722656v.570313h-.359374v-.359375h1.597656zm-1.960938-3.105469v-2.167969h.722656v2.167969zm0-4.339843v-2.171876h.722656v2.171876zm0-4.339844v-2.171875h.722656v2.171875zm0-4.339844v-2.171875h.722656v2.171875zm0-4.34375v-2.167969h.722656v2.167969zm0-4.339844v-2.171875h.722656v2.171875zm.363282-3.558594h2.167968v.722657h-2.167968zm0 0" fill="#666"/><path d="m11.492188 21.992188h173.632812v32.710937h-173.632812zm0 0" fill="#e1d5e7" fill-opacity=".2"/><path d="m15.832031 21.628906h2.167969v.726563h-2.167969zm4.339844 0h2.171875v.726563h-2.171875zm4.339844 0h2.171875v.726563h-2.171875zm4.34375 0h2.167969v.726563h-2.167969zm4.339843 0h2.171876v.726563h-2.171876zm4.339844 0h2.171875v.726563h-2.171875zm4.339844 0h2.171875v.726563h-2.171875zm4.34375 0h2.167969v.726563h-2.167969zm4.339844 0h2.171875v.726563h-2.171875zm4.339844 0h2.171874v.726563h-2.171874zm4.34375 0h2.167968v.726563h-2.167968zm4.339843 0h2.167969v.726563h-2.167969zm4.339844 0h2.171875v.726563h-2.171875zm4.339844 0h2.171875v.726563h-2.171875zm4.34375 0h2.167969v.726563h-2.167969zm4.339843 0h2.171876v.726563h-2.171876zm4.339844 0h2.171875v.726563h-2.171875zm4.339844 0h2.171875v.726563h-2.171875zm4.34375 0h2.167969v.726563h-2.167969zm4.339844 0h2.171875v.726563h-2.171875zm4.339844 0h2.171874v.726563h-2.171874zm4.34375 0h2.167968v.726563h-2.167968zm4.339843 0h2.167969v.726563h-2.167969zm4.339844 0h2.171875v.726563h-2.171875zm4.339844 0h2.171875v.726563h-2.171875zm4.34375 0h2.167969v.726563h-2.167969zm4.339843 0h2.171876v.726563h-2.171876zm4.339844 0h2.171875v.726563h-2.171875zm4.339844 0h2.171875v.726563h-2.171875zm4.34375 0h2.167969v.726563h-2.167969zm4.339844 0h2.171875v.726563h-2.171875zm4.339844 0h2.171874v.726563h-2.171874zm4.34375 0h2.167968v.726563h-2.167968zm4.339843 0h2.167969v.726563h-2.167969zm4.339844 0h2.171875v.726563h-2.171875zm4.339844 0h2.171875v.726563h-2.171875zm4.34375 0h2.167969v.726563h-2.167969zm4.339843 0h2.171876v.726563h-2.171876zm4.339844 0h2.171875v.726563h-2.171875zm4.703125.363282v2.171874h-.722656v-2.171874zm0 4.339843v2.171875h-.722656v-2.171875zm0 4.34375v2.167969h-.722656v-2.167969zm0 4.339844v2.171875h-.722656v-2.171875zm0 4.339844v2.171875h-.722656v-2.171875zm0 4.339843v2.171876h-.722656v-2.171876zm0 4.34375v2.167969h-.722656v-2.167969zm0 4.339844v2.171875h-.722656v-2.171875zm-2.378906 2.683594h-2.171875v-.722656h2.171875zm-4.34375 0h-2.167969v-.722656h2.167969zm-4.339844 0h-2.167969v-.722656h2.167969zm-4.339843 0h-2.171876v-.722656h2.171876zm-4.339844 0h-2.171875v-.722656h2.171875zm-4.34375 0h-2.167969v-.722656h2.167969zm-4.339844 0h-2.171875v-.722656h2.171875zm-4.339844 0h-2.171875v-.722656h2.171875zm-4.339844 0h-2.171874v-.722656h2.171874zm-4.34375 0h-2.167968v-.722656h2.167968zm-4.339843 0h-2.171875v-.722656h2.171875zm-4.339844 0h-2.171875v-.722656h2.171875zm-4.34375 0h-2.167969v-.722656h2.167969zm-4.339844 0h-2.167969v-.722656h2.167969zm-4.339843 0h-2.171876v-.722656h2.171876zm-4.339844 0h-2.171875v-.722656h2.171875zm-4.34375 0h-2.167969v-.722656h2.167969zm-4.339844 0h-2.171875v-.722656h2.171875zm-4.339844 0h-2.171875v-.722656h2.171875zm-4.339844 0h-2.171874v-.722656h2.171874zm-4.34375 0h-2.167968v-.722656h2.167968zm-4.339843 0h-2.171875v-.722656h2.171875zm-4.339844 0h-2.171875v-.722656h2.171875zm-4.34375 0h-2.167969v-.722656h2.167969zm-4.339844 0h-2.167969v-.722656h2.167969zm-4.339843 0h-2.171876v-.722656h2.171876zm-4.339844 0h-2.171875v-.722656h2.171875zm-4.34375 0h-2.167969v-.722656h2.167969zm-4.339844 0h-2.171875v-.722656h2.171875zm-4.339844 0h-2.171875v-.722656h2.171875zm-4.339844 0h-2.171874v-.722656h2.171874zm-4.34375 0h-2.167968v-.722656h2.167968zm-4.339843 0h-2.171875v-.722656h2.171875zm-4.339844 0h-2.171875v-.722656h2.171875zm-4.34375 0h-2.167969v-.722656h2.167969zm-4.339844 0h-2.167969v-.722656h2.167969zm-4.339843 0h-2.171876v-.722656h2.171876zm-4.339844 0h-2.171875v-.722656h2.171875zm-4.34375 0h-2.167969v-.722656h2.167969zm-4.339844 0h-2.171875v-.722656h2.171875zm-2.683594-2.378906v-2.171875h.722656v2.171875zm0-4.339844v-2.171875h.722656v2.171875zm0-4.34375v-2.167969h.722656v2.167969zm0-4.339844v-2.171875h.722656v2.171875zm0-4.339844v-2.171874h.722656v2.171874zm0-4.34375v-2.167968h.722656v2.167968zm0-4.339843v-2.167969h.722656v2.167969zm0-4.339844v-.667969h2.53125v.726563h-2.167968v-.363281h.359374v.304687zm0 0" fill="#9673a6"/><g clip-path="url(#a)"><path d="m14.000164 74.478052 231.761299-.367146" fill="none" stroke="#6c8ebf" stroke-miterlimit="10" stroke-width="2" transform="matrix(.723485 0 0 .723485 1 -3.03999)"/></g><path d="m251.759991 74.100107-7.990838 4.022415 1.99231-4.011616-2.003108-3.99002zm0 0" fill="#6c8ebf" stroke="#6c8ebf" stroke-miterlimit="10" stroke-width="2" transform="matrix(.723485 0 0 .723485 1 -3.03999)"/><path d="m254.000665 264.422432.998855-231.323963" fill="none" stroke="#000" stroke-miterlimit="10" stroke-width="2" transform="matrix(.723485 0 0 .723485 1 -3.03999)"/><g><use x="23.428029" xlink:href="#n" y="135.869095"/><use x="29.69776" xlink:href="#n" y="135.869095"/><use x="35.967491" xlink:href="#o" y="135.869095"/><use x="42.237222" xlink:href="#p" y="135.869095"/><use x="44.649309" xlink:href="#q" y="135.869095"/><use x="50.440013" xlink:href="#r" y="135.869095"/><use x="55.268427" xlink:href="#s" y="135.869095"/><use x="57.680514" xlink:href="#t" y="135.869095"/><use x="62.508927" xlink:href="#u" y="135.869095"/><use x="67.33734" xlink:href="#p" y="135.869095"/><use x="69.749427" xlink:href="#o" y="135.869095"/><use x="76.019158" xlink:href="#v" y="135.869095"/><use x="80.847571" xlink:href="#w" y="135.869095"/><use x="88.079593" xlink:href="#u" y="135.869095"/><use x="92.908007" xlink:href="#x" y="135.869095"/><use x="94.836829" xlink:href="#r" y="135.869095"/><use x="99.665242" xlink:href="#s" y="135.869095"/><use x="102.077329" xlink:href="#r" y="135.869095"/></g><g transform="matrix(.723485 0 0 .723485 1 -3.03999)"><path d="m14.307919 33.098469 6.1929-22.768489 6.1875 22.768489" fill="none" stroke="#000" stroke-linejoin="round" stroke-miterlimit="10" stroke-width=".55"/><path d="m26.40756 31.58129-10.409686-4.551538 8.163613-3.039758-6.333279-3.02896 4.643324-2.899378-3.239529-2.624019" fill="none" stroke="#000" stroke-linejoin="round" stroke-miterlimit="10" stroke-width=".55"/><path d="m21.623856 10.8807c0 .302356-.107985.566918-.329352.777487-.221368.215969-.48593.323953-.793685.323953-.313155 0-.577716-.107984-.793685-.323953-.221367-.210569-.329352-.475131-.329352-.777487 0-.307755.107985-.566918.329352-.782886.215969-.215969.48053-.323953.793685-.323953.307755 0 .572317.107984.793685.323953.221367.215968.329352.475131.329352.782886zm0 0" fill="#f8cecc" stroke="#000" stroke-width=".55"/><path d="m22.412141 9.001773.399542-.469731c1.279614 1.290412 1.279614 3.347513 0 4.637925l-.399542-.437336c.988056-1.052847.988056-2.672612 0-3.730858zm1.409195-1.382199.388744-.377945c1.997709 2.030105 1.997709 5.248037 0 7.278142l-.388744-.377945c1.776342-1.819536 1.776342-4.702716 0-6.522252zm1.398397-1.382199.399542-.404941c1.51178 1.258017 2.381053 3.109948 2.381053 5.048266 0 1.949117-.869273 3.790249-2.381053 5.048266l-.399542-.41034c1.44159-1.128436 2.278468-2.829189 2.278468-4.637926 0-1.803338-.836878-3.50949-2.278468-4.643325zm-6.630236 2.764398-.399542-.469731c-1.279614 1.290412-1.279614 3.347513 0 4.637925l.399542-.437336c-.988056-1.052847-.988056-2.672612 0-3.730858zm-1.409195-1.382199-.388744-.377945c-2.003108 2.030105-2.003108 5.248037 0 7.278142l.388744-.377945c-1.781741-1.819536-1.781741-4.702716 0-6.522252zm-1.398397-1.382199-.399542-.404941c-1.51178 1.258017-2.381054 3.109948-2.381054 5.048266 0 1.949117.869274 3.790249 2.381054 5.048266l.399542-.41034c-1.44159-1.128436-2.283868-2.829189-2.283868-4.637926 0-1.803338.842278-3.50949 2.283868-4.643325zm0 0" fill="#f8cecc" stroke="#000" stroke-miterlimit="10" stroke-width=".55"/></g><path d="m180.734375 16.328125c.492187-.015625.820313-.507813.820313-1.011719.011718-.582031-.347657-1.066406-.828126-1.066406-.496093.023438-.832031.515625-.824218 1.066406 0 .554688.382812 1.011719.832031 1.011719zm-17.6875 4.144531c-.179687 0-.339844-.203125-.339844-.476562v-6.683594c-.007812-.175781.109375-.320312.257813-.457031.5-.390625.976562-.519531 1.390625-.679688v-5.382812h.332031v-4.976563h.660156v4.976563h.332032v4.976562c3.148437-.492187 6.019531-.609375 8.683593-.621093 3.210938-.050782 6.328125.0625 9.179688.613281v-4.96875h.332031v-4.976563h.660156v4.976563h.332032v5.382812c.476562.171875.960937.304688 1.402343.6875.144531.121094.21875.257813.21875.441407v6.71875c0 .234374-.167969.449218-.355469.449218h-1.9375c-.144531 0-.320312-.203125-.320312-.449218v-1.207032h-18.195312v1.199219c0 .269531-.136719.457031-.347657.457031zm0 0" fill="#505050"/><g clip-path="url(#b)"><path d="m14.000164 119.691078 231.761299-.372546" fill="none" stroke="#6c8ebf" stroke-miterlimit="10" stroke-width="2" transform="matrix(.723485 0 0 .723485 1 -3.03999)"/></g><path d="m251.759991 119.307733-7.990838 4.022415 1.99231-4.011616-2.003108-3.99002zm0 0" fill="#6c8ebf" stroke="#6c8ebf" stroke-miterlimit="10" stroke-width="2" transform="matrix(.723485 0 0 .723485 1 -3.03999)"/><path d="m17.089844 70.523438h1.445312l.003906 1.445312-1.449218.003906m2.894531-1.453125 1.445313-.003906.003906 1.449219h-1.449219m2.894531-1.449219 1.445313-.003906.003906 1.449219h-1.449219m2.890625-1.449219 1.449219-.003907v1.445313l-1.445312.003906m2.890624-1.453125h1.449219v1.445313l-1.445312.003906m2.890625-1.453125h1.445312l.003906 1.445312-1.445312.003907m2.890625-1.453125 1.445313-.003906.003906 1.449218h-1.449219m2.894531-1.449218 1.445313-.003907.003906 1.449219h-1.449219m2.894532-1.449219 1.445312-.003906.003906 1.449219h-1.449218m2.890624-1.453125h1.449219v1.445312l-1.445312.003907m2.890625-1.453126h1.449218v1.445313l-1.445312.003906m2.890625-1.453125h1.449219v1.445313l-1.445313.003906m2.890625-1.453125 1.445313-.003906.003906 1.449218h-1.445313m2.890626-1.449218 1.445312-.003906.003906 1.449218h-1.449218m2.894531-1.449218 1.445312-.003907.003907 1.445313-1.449219.003906m2.894531-1.453125h1.445312l.003907 1.445313-1.449219.003906m2.890625-1.453125h1.449219v1.445312l-1.445313.003907m2.890625-1.453126 1.449219-.003906v1.449219h-1.445313m2.890626-1.449219 1.449218-.003906v1.449219h-1.445312m2.890625-1.449219 1.445312-.003906.003907 1.445312-1.445313.003906m2.890625-1.453124h1.445312l.003907 1.445312-1.449219.003906m2.894531-1.453125h1.445313l.003906 1.445313-1.449219.003906m2.890625-1.453125h1.449219v1.445313l-1.445313.003906m2.890626-1.453125 1.449218-.003907v1.449219h-1.445312m2.890625-1.449219 1.449219-.003906v1.449219h-1.445313m2.890625-1.449219 1.445312-.003906.003907 1.445312-1.445313.003907m2.890625-1.453125h1.445313l.003906 1.445312-1.449219.003906m2.894531-1.453124h1.445313l.003906 1.445312-1.449219.003906m2.894532-1.453125 1.445312-.003906.003906 1.449219h-1.449218m2.890625-1.449219 1.449219-.003906v1.449219h-1.445313m2.890625-1.449219 1.449219-.003907v1.445313l-1.445313.003906m2.890625-1.453125h1.449219v1.445313l-1.445312.003906m2.890624-1.453125h1.445313l.003906 1.445312-1.445312.003907m2.890625-1.453125h1.445312l.003906 1.445312-1.449218.003906m2.894531-1.453124 1.445313-.003907.003906 1.449219h-1.449219m2.890625-1.449219 1.449219-.003906.003906 1.449219h-1.449219m2.890625-1.449219 1.449219-.003906v1.445312l-1.445312.003907m2.890624-1.453126h1.449219v1.445313l-1.445312.003906m2.890625-1.453125h1.445312l.003906 1.445313-1.445312.003906m2.890625-1.453125 1.445313-.003906.003906 1.449218h-1.449219m2.894531-1.449218 1.445313-.003906.003906 1.449218h-1.449219m2.894532-1.449218 1.445312-.003907.003906 1.445313-1.449218.003906m2.890624-1.453125h1.449219v1.445313l-1.445312.003906m2.890625-1.453125h1.449218v1.445312l-1.445312.003907m2.890625-1.453126 1.449219-.003906v1.449219l-1.445313.003906m2.890625-1.453125 1.445313-.003906.003906 1.449219h-1.445313m2.890626-1.449219 1.445312-.003906.003906 1.449218h-1.449218m2.894531-1.449218 1.445312-.003906.003907 1.445312-1.449219.003906m2.894531-1.453125h1.445312l.003907 1.445313-1.449219.003906m2.890625-1.453125h1.449219v1.445313l-1.445313.003906m2.890625-1.453125 1.449219-.003907v1.449219h-1.445313m2.890626-1.449219 1.445312-.003906.003906 1.449219h-1.445312m2.890625-1.449219 1.445312-.003906.003907 1.445312-1.449219.003907m2.894531-1.453125h1.445312l.003907 1.445312-1.449219.003906m2.894531-1.453124h1.445313l.003906 1.445312-1.449219.003906m2.890625-1.453125 1.449219-.003906v1.449219l-1.445313.003906m2.890626-1.453125 1.449218-.003906v1.449219h-1.445312m2.890625-1.449219 1.449219-.003907v1.449219h-1.445313" fill="#82b366"/><path d="m12.75 71.253906 5.78125-2.90625-1.441406 2.898438 1.449218 2.886718zm0 0" fill="#82b366"/><g clip-path="url(#c)"><path d="m16.240838 102.68895 7.990838-4.017016-1.99231 4.006218 2.003109 3.990019zm0 0" fill="none" stroke="#82b366" stroke-miterlimit="10" stroke-width="2" transform="matrix(.723485 0 0 .723485 1 -3.03999)"/></g><g><use x="24.151514" xlink:href="#y" y="68.585007"/><use x="28.492423" xlink:href="#z" y="68.585007"/><use x="34.283128" xlink:href="#n" y="68.585007"/><use x="40.552859" xlink:href="#A" y="68.585007"/><use x="46.343563" xlink:href="#o" y="68.585007"/><use x="52.613294" xlink:href="#B" y="68.585007"/></g><g><use x="24.151514" xlink:href="#n" y="80.884249"/><use x="30.421245" xlink:href="#A" y="80.884249"/><use x="36.21195" xlink:href="#n" y="80.884249"/></g><path d="m17.089844 111.039062 1.445312-.003906.003906 1.449219h-1.449218m2.894531-1.449219 1.445313-.003906.003906 1.449219h-1.449219m2.894531-1.449219 1.445313-.003906.003906 1.445312-1.449219.003906m2.890625-1.453124h1.449219v1.445312l-1.445312.003906m2.890624-1.453125h1.449219v1.445313l-1.445312.003906m2.890625-1.453125h1.445312l.003906 1.445313-1.445312.003906m2.890625-1.453125 1.445313-.003907.003906 1.449219h-1.449219m2.894531-1.449219 1.445313-.003906.003906 1.449219h-1.449219m2.894532-1.449219 1.445312-.003906.003906 1.445312-1.449218.003907m2.890624-1.453125h1.449219v1.445312l-1.445312.003906m2.890625-1.453124h1.449218v1.445312l-1.445312.003906m2.890625-1.453125 1.449219-.003906v1.449219h-1.445313m2.890625-1.449219 1.445313-.003906.003906 1.449219h-1.445313m2.890626-1.449219 1.445312-.003907.003906 1.445313-1.449218.003906m2.894531-1.453125h1.445312l.003907 1.445313-1.449219.003906m2.894531-1.453125h1.445312l.003907 1.445312-1.449219.003907m2.890625-1.453125 1.449219-.003906v1.449218l-1.445313.003906m2.890625-1.453124 1.449219-.003907v1.449219h-1.445313m2.890626-1.449219 1.449218-.003906v1.449219h-1.445312m2.890625-1.449219 1.445312-.003906.003907 1.445312-1.445313.003907m2.890625-1.453126h1.445312l.003907 1.445313-1.449219.003906m2.894531-1.453125h1.445313l.003906 1.445313-1.449219.003906m2.890625-1.453125 1.449219-.003906v1.449218h-1.445313m2.890626-1.449218 1.449218-.003906v1.449218h-1.445312m2.890625-1.449218 1.449219-.003907v1.445313l-1.445313.003906m2.890625-1.453125h1.445312l.003907 1.445313-1.445313.003906m2.890625-1.453125h1.445313l.003906 1.445312-1.449219.003907m2.894531-1.453126 1.445313-.003906.003906 1.449219h-1.449219m2.894532-1.449219 1.445312-.003906.003906 1.449219h-1.449218m2.890625-1.449219 1.449219-.003906v1.449218h-1.445313m2.890625-1.449218 1.449219-.003906v1.445312l-1.445313.003906m2.890625-1.453125h1.449219v1.445313l-1.445312.003906m2.890624-1.453125h1.445313l.003906 1.445313-1.445312.003906m2.890625-1.453125 1.445312-.003907.003906 1.449219h-1.449218m2.894531-1.449219 1.445313-.003906.003906 1.449219h-1.449219m2.890625-1.449219 1.449219-.003906.003906 1.445312-1.449219.003907m2.890625-1.453125h1.449219v1.445312l-1.445312.003906m2.890624-1.453124h1.449219v1.445312l-1.445312.003906m2.890625-1.453125 1.445312-.003906.003906 1.449219h-1.445312m2.890625-1.449219 1.445313-.003906.003906 1.449219h-1.449219m2.894531-1.449219 1.445313-.003907.003906 1.449219h-1.449219m2.894532-1.449219 1.445312-.003906.003906 1.445313-1.449218.003906m2.890624-1.453125h1.449219v1.445312l-1.445312.003907m2.890625-1.453125h1.449218v1.445312l-1.445312.003906m2.890625-1.453124 1.449219-.003907v1.449219h-1.445313m2.890625-1.449219 1.445313-.003906.003906 1.449219h-1.445313m2.890626-1.449219 1.445312-.003906.003906 1.445312-1.449218.003907m2.894531-1.453126h1.445312l.003907 1.445313-1.449219.003906m2.894531-1.453125h1.445312l.003907 1.445313-1.449219.003906m2.890625-1.453125 1.449219-.003906v1.449218h-1.445313m2.890625-1.449218 1.449219-.003906v1.449218h-1.445313m2.890626-1.449218 1.445312-.003907.003906 1.449219h-1.445312m2.890625-1.449219 1.445312-.003906.003907 1.445313-1.449219.003906m2.894531-1.453125h1.445312l.003907 1.445312-1.449219.003907m2.894531-1.453126h1.445313l.003906 1.445313-1.449219.003906m2.890625-1.453125 1.449219-.003906v1.449219h-1.445313m2.890626-1.449219 1.449218-.003906v1.449218h-1.445312m2.890625-1.449218 1.449219-.003906v1.445312l-1.445313.003906" fill="#82b366"/><path d="m12.75 111.769531 5.78125-2.90625-1.441406 2.898438 1.449218 2.886719zm0 0" fill="#82b366"/><g clip-path="url(#d)"><path d="m16.240838 158.689607 7.990838-4.017016-1.99231 4.006217 2.003109 3.99002zm0 0" fill="none" stroke="#82b366" stroke-miterlimit="10" stroke-width="2" transform="matrix(.723485 0 0 .723485 1 -3.03999)"/></g><g><use x="23.428029" xlink:href="#n" y="108.376672"/><use x="29.69776" xlink:href="#n" y="108.376672"/><use x="35.967491" xlink:href="#o" y="108.376672"/><use x="42.237222" xlink:href="#p" y="108.376672"/><use x="44.649309" xlink:href="#o" y="108.376672"/><use x="50.919039" xlink:href="#v" y="108.376672"/><use x="55.747453" xlink:href="#C" y="108.376672"/><use x="60.575866" xlink:href="#C" y="108.376672"/><use x="65.404279" xlink:href="#r" y="108.376672"/><use x="70.232693" xlink:href="#D" y="108.376672"/><use x="74.573601" xlink:href="#s" y="108.376672"/><use x="76.985689" xlink:href="#E" y="108.376672"/><use x="78.91451" xlink:href="#v" y="108.376672"/><use x="83.742924" xlink:href="#C" y="108.376672"/><use x="88.571337" xlink:href="#p" y="108.376672"/><use x="90.983424" xlink:href="#n" y="108.376672"/><use x="97.253155" xlink:href="#r" y="108.376672"/><use x="102.081568" xlink:href="#F" y="108.376672"/><use x="106.909981" xlink:href="#t" y="108.376672"/><use x="111.738395" xlink:href="#r" y="108.376672"/><use x="116.566808" xlink:href="#G" y="108.376672"/><use x="120.907717" xlink:href="#s" y="108.376672"/></g><g clip-path="url(#e)"><path d="m13.001309 176.690589 231.7613-.372546" fill="none" stroke="#6c8ebf" stroke-miterlimit="10" stroke-width="2" transform="matrix(.723485 0 0 .723485 1 -3.03999)"/></g><path d="m250.761136 176.312644-7.990838 4.017016 1.992311-4.011617-2.003109-3.990019zm0 0" fill="#6c8ebf" stroke="#6c8ebf" stroke-miterlimit="10" stroke-width="2" transform="matrix(.723485 0 0 .723485 1 -3.03999)"/><g><use x="23.428029" xlink:href="#n" y="122.122883"/><use x="29.69776" xlink:href="#n" y="122.122883"/><use x="35.967491" xlink:href="#o" y="122.122883"/><use x="42.237222" xlink:href="#p" y="122.122883"/><use x="44.649309" xlink:href="#o" y="122.122883"/><use x="50.919039" xlink:href="#v" y="122.122883"/><use x="55.747453" xlink:href="#C" y="122.122883"/><use x="60.575866" xlink:href="#C" y="122.122883"/><use x="65.404279" xlink:href="#r" y="122.122883"/><use x="70.232693" xlink:href="#D" y="122.122883"/><use x="74.573601" xlink:href="#s" y="122.122883"/><use x="76.985689" xlink:href="#E" y="122.122883"/><use x="78.91451" xlink:href="#v" y="122.122883"/><use x="83.742924" xlink:href="#C" y="122.122883"/><use x="88.571337" xlink:href="#p" y="122.122883"/><use x="90.983424" xlink:href="#q" y="122.122883"/><use x="96.774129" xlink:href="#r" y="122.122883"/><use x="101.602542" xlink:href="#s" y="122.122883"/><use x="104.014629" xlink:href="#t" y="122.122883"/><use x="108.843042" xlink:href="#u" y="122.122883"/></g><path d="m17.089844 139.253906h1.445312l.003906 1.445313-1.449218.003906m2.894531-1.453125h1.445313l.003906 1.445312-1.449219.003907m2.894531-1.453125 1.445313-.003906.003906 1.449218h-1.449219m2.890625-1.449218 1.449219-.003907v1.449219h-1.445312m2.890624-1.449219 1.449219-.003906v1.445313l-1.445312.003906m2.890625-1.453125h1.445312l.003906 1.445312-1.445312.003907m2.890625-1.453126h1.445313l.003906 1.445313-1.449219.003906m2.894531-1.453125 1.445313-.003906.003906 1.449219h-1.449219m2.894532-1.449219 1.445312-.003906.003906 1.449218h-1.449218m2.890624-1.449218 1.449219-.003906v1.445312l-1.445312.003906m2.890625-1.453125h1.449218v1.445313l-1.445312.003906m2.890625-1.453125h1.449219v1.445313l-1.445313.003906m2.890625-1.453125 1.445313-.003907.003906 1.449219-1.445313.003907m2.890626-1.453126 1.445312-.003906.003906 1.449219h-1.449218m2.894531-1.449219 1.445312-.003906.003907 1.449219h-1.449219m2.894531-1.449219 1.445312-.003906.003907 1.445312-1.449219.003906m2.890625-1.453124h1.449219v1.445312l-1.445313.003906m2.890625-1.453125h1.449219v1.445313l-1.445313.003906m2.890626-1.453125 1.449218-.003906v1.449219h-1.445312m2.890625-1.449219 1.445312-.003907.003907 1.449219h-1.445313m2.890625-1.449219 1.445312-.003906.003907 1.445313-1.449219.003906m2.894531-1.453125h1.445313l.003906 1.445312-1.449219.003907m2.890625-1.453125h1.449219v1.445312l-1.445313.003906m2.890626-1.453124 1.449218-.003907v1.449219h-1.445312m2.890625-1.449219 1.449219-.003906v1.449219h-1.445313m2.890625-1.449219 1.445312-.003906.003907 1.449219h-1.445313m2.890625-1.449219 1.445313-.003907.003906 1.445313-1.449219.003906m2.894531-1.453125h1.445313l.003906 1.445313-1.449219.003906m2.894532-1.453125h1.445312l.003906 1.445312-1.449218.003907m2.890625-1.453125 1.449219-.003906v1.449218h-1.445313m2.890625-1.449218 1.449219-.003907v1.449219h-1.445313m2.890625-1.449219 1.449219-.003906v1.445313l-1.445312.003906m2.890624-1.453125h1.445313l.003906 1.445312-1.445312.003907m2.890625-1.453126h1.445312l.003906 1.445313-1.449218.003906m2.894531-1.453125 1.445313-.003906.003906 1.449219h-1.449219m2.890625-1.449219 1.449219-.003906.003906 1.449218h-1.449219m2.890625-1.449218 1.449219-.003906v1.449218h-1.445312m2.890624-1.449218 1.449219-.003907v1.445313l-1.445312.003906m2.890625-1.453125h1.445312l.003906 1.445313-1.445312.003906m2.890625-1.453125h1.445313l.003906 1.445312-1.449219.003907m2.894531-1.453126 1.445313-.003906.003906 1.449219h-1.449219m2.894532-1.449219 1.445312-.003906.003906 1.449219h-1.449218m2.890624-1.449219 1.449219-.003906v1.445312l-1.445312.003906m2.890625-1.453124h1.449218v1.445312l-1.445312.003906m2.890625-1.453125h1.449219v1.445313l-1.445313.003906m2.890625-1.453125 1.445313-.003906.003906 1.449219h-1.445313m2.890626-1.449219 1.445312-.003907.003906 1.449219h-1.449218m2.894531-1.449219 1.445312-.003906.003907 1.449219h-1.449219m2.894531-1.449219 1.445312-.003906.003907 1.445312-1.449219.003907m2.890625-1.453125h1.449219v1.445312l-1.445313.003906m2.890625-1.453124h1.449219v1.445312l-1.445313.003906m2.890626-1.453125 1.445312-.003906.003906 1.449219h-1.445312m2.890625-1.449219 1.445312-.003906.003907 1.449219h-1.449219m2.894531-1.449219 1.445312-.003907.003907 1.445313-1.449219.003906m2.894531-1.453125h1.445313l.003906 1.445313-1.449219.003906m2.890625-1.453125h1.449219v1.445312l-1.445313.003907m2.890626-1.453125 1.449218-.003906v1.449218h-1.445312m2.890625-1.449218 1.449219-.003907v1.449219h-1.445313" fill="#82b366"/><path d="m12.75 139.984375 5.78125-2.90625-1.441406 2.898437 1.449218 2.886719zm0 0" fill="#82b366"/><g clip-path="url(#f)"><path d="m16.240838 197.688136 7.990838-4.017016-1.99231 4.006217 2.003109 3.99002zm0 0" fill="none" stroke="#82b366" stroke-miterlimit="10" stroke-width="2" transform="matrix(.723485 0 0 .723485 1 -3.03999)"/></g><g><use x="122.500232" xlink:href="#H" y="11.429706"/><use x="128.769962" xlink:href="#I" y="11.429706"/><use x="134.560667" xlink:href="#p" y="11.429706"/></g><use x="136.815905" xlink:href="#J" y="11.429706"/><g><use x="141.156813" xlink:href="#K" y="11.429706"/><use x="145.985227" xlink:href="#L" y="11.429706"/><use x="148.87634" xlink:href="#M" y="11.429706"/><use x="153.704753" xlink:href="#r" y="11.429706"/><use x="158.533166" xlink:href="#s" y="11.429706"/></g><g><use x="24.501952" xlink:href="#N" y="11.429706"/><use x="29.330365" xlink:href="#r" y="11.429706"/><use x="34.158779" xlink:href="#M" y="11.429706"/><use x="38.987192" xlink:href="#E" y="11.429706"/><use x="40.916014" xlink:href="#s" y="11.429706"/><use x="43.328101" xlink:href="#E" y="11.429706"/><use x="45.256923" xlink:href="#w" y="11.429706"/><use x="52.488945" xlink:href="#K" y="11.429706"/><use x="57.317358" xlink:href="#s" y="11.429706"/><use x="59.729445" xlink:href="#r" y="11.429706"/><use x="64.557858" xlink:href="#p" y="11.429706"/><use x="66.969946" xlink:href="#M" y="11.429706"/><use x="71.798359" xlink:href="#O" y="11.429706"/><use x="78.06809" xlink:href="#P" y="11.429706"/></g><g clip-path="url(#g)"><path d="m13.001309 231.692391 231.7613-.372546" fill="none" stroke="#6c8ebf" stroke-miterlimit="10" stroke-width="2" transform="matrix(.723485 0 0 .723485 1 -3.03999)"/></g><path d="m250.761136 231.309047-7.990838 4.022415 1.992311-4.011617-2.003109-3.990019zm0 0" fill="#6c8ebf" stroke="#6c8ebf" stroke-miterlimit="10" stroke-width="2" transform="matrix(.723485 0 0 .723485 1 -3.03999)"/><g><use x="24.151514" xlink:href="#n" y="161.914548"/><use x="30.421245" xlink:href="#N" y="161.914548"/><use x="35.249658" xlink:href="#o" y="161.914548"/><use x="41.519389" xlink:href="#p" y="161.914548"/><use x="43.931476" xlink:href="#q" y="161.914548"/><use x="49.722181" xlink:href="#s" y="161.914548"/><use x="52.134268" xlink:href="#K" y="161.914548"/><use x="56.962681" xlink:href="#s" y="161.914548"/><use x="59.374768" xlink:href="#t" y="161.914548"/><use x="64.203181" xlink:href="#G" y="161.914548"/><use x="68.54409" xlink:href="#p" y="161.914548"/><use x="70.956177" xlink:href="#z" y="161.914548"/><use x="76.746882" xlink:href="#Q" y="161.914548"/><use x="83.016613" xlink:href="#H" y="161.914548"/></g><g clip-path="url(#h)"><path d="m13.001309 249.687974 231.7613-.367146" fill="none" stroke="#6c8ebf" stroke-miterlimit="10" stroke-width="2" transform="matrix(.723485 0 0 .723485 1 -3.03999)"/></g><path d="m250.761136 249.310029-7.990838 4.022416 1.992311-4.011617-2.003109-3.99002zm0 0" fill="#6c8ebf" stroke="#6c8ebf" stroke-miterlimit="10" stroke-width="2" transform="matrix(.723485 0 0 .723485 1 -3.03999)"/><g><use x="23.428029" xlink:href="#O" y="174.21379"/><use x="29.69776" xlink:href="#A" y="174.21379"/><use x="35.488465" xlink:href="#q" y="174.21379"/><use x="41.279169" xlink:href="#p" y="174.21379"/></g><g><use x="43.21223" xlink:href="#A" y="174.21379"/><use x="49.002935" xlink:href="#t" y="174.21379"/><use x="53.831348" xlink:href="#s" y="174.21379"/><use x="56.243435" xlink:href="#R" y="174.21379"/><use x="61.071849" xlink:href="#r" y="174.21379"/><use x="65.900262" xlink:href="#C" y="174.21379"/><use x="70.728675" xlink:href="#s" y="174.21379"/><use x="73.140762" xlink:href="#E" y="174.21379"/><use x="75.069584" xlink:href="#D" y="174.21379"/><use x="79.410493" xlink:href="#K" y="174.21379"/><use x="84.238906" xlink:href="#s" y="174.21379"/><use x="86.650993" xlink:href="#E" y="174.21379"/><use x="88.579815" xlink:href="#v" y="174.21379"/><use x="93.408229" xlink:href="#C" y="174.21379"/><use x="98.236642" xlink:href="#p" y="174.21379"/><use x="100.648729" xlink:href="#n" y="174.21379"/><use x="106.91846" xlink:href="#r" y="174.21379"/><use x="111.746873" xlink:href="#F" y="174.21379"/><use x="116.575286" xlink:href="#t" y="174.21379"/><use x="121.4037" xlink:href="#r" y="174.21379"/><use x="126.232113" xlink:href="#G" y="174.21379"/><use x="130.573022" xlink:href="#s" y="174.21379"/></g><path d="m8.957031 82.402344c0 .480468-.089843.941406-.273437 1.386718-.183594.441407-.445313.832032-.785156 1.171876-.339844.339843-.730469.601562-1.171876.785156-.445312.183594-.90625.273437-1.386718.273437-.480469 0-.941406-.089843-1.382813-.273437-.445312-.183594-.835937-.445313-1.175781-.785156-.335938-.339844-.597656-.730469-.78125-1.171876-.183594-.445312-.277344-.90625-.277344-1.386718 0-.476563.09375-.941406.277344-1.382813.183594-.445312.445312-.835937.78125-1.175781.339844-.335938.730469-.597656 1.175781-.78125.441407-.183594.902344-.277344 1.382813-.277344.480468 0 .941406.09375 1.386718.277344.441407.183594.832032.445312 1.171876.78125.339843.339844.601562.730469.785156 1.175781.183594.441407.273437.90625.273437 1.382813zm0 0" fill="#dae8fc"/><g clip-path="url(#i)"><path d="m10.998201 118.098309c0 .664104-.124182 1.301211-.377945 1.916722-.253763.610111-.615511 1.150032-1.085243 1.619764-.469731.469732-1.009653.831479-1.619764 1.085242-.61551.253763-1.252618.377945-1.916721.377945-.664104 0-1.301211-.124182-1.911322-.377945-.615511-.253763-1.155432-.61551-1.625164-1.085242-.464332-.469732-.82608-1.009653-1.079843-1.619764-.253763-.615511-.383344-1.252618-.383344-1.916722 0-.658704.129581-1.301211.383344-1.911322.253763-.61551.615511-1.155432 1.079843-1.625164.469732-.464332 1.009653-.826079 1.625164-1.079842.610111-.253764 1.247218-.383345 1.911322-.383345.664103 0 1.301211.129581 1.916721.383345.610111.253763 1.150033.61551 1.619764 1.079842.469732.469732.83148 1.009654 1.085243 1.625164.253763.610111.377945 1.252618.377945 1.911322zm0 0" fill="none" stroke="#6c8ebf" stroke-width="2" transform="matrix(.723485 0 0 .723485 1 -3.03999)"/></g><use x="3.498284" xlink:href="#W" y="84.501673"/><path d="m8.957031 125.242188c0 .480468-.089843.941406-.273437 1.382812-.183594.445312-.445313.835938-.785156 1.175781-.339844.335938-.730469.597657-1.171876.78125-.445312.183594-.90625.277344-1.386718.277344-.480469 0-.941406-.09375-1.382813-.277344-.445312-.183593-.835937-.445312-1.175781-.78125-.335938-.339843-.597656-.730469-.78125-1.175781-.183594-.441406-.277344-.902344-.277344-1.382812 0-.480469.09375-.941407.277344-1.386719.183594-.441407.445312-.832031.78125-1.171875.339844-.339844.730469-.601563 1.175781-.785156.441407-.183594.902344-.273438 1.382813-.273438.480468 0 .941406.089844 1.386718.273438.441407.183593.832032.445312 1.171876.785156.339843.339844.601562.730468.785156 1.171875.183594.445312.273437.90625.273437 1.386719zm0 0" fill="#dae8fc"/><g clip-path="url(#j)"><path d="m10.998201 177.311499c0 .664103-.124182 1.301211-.377945 1.911322-.253763.61551-.615511 1.155432-1.085243 1.625164-.469731.464332-1.009653.82608-1.619764 1.079843-.61551.253763-1.252618.383344-1.916721.383344-.664104 0-1.301211-.129581-1.911322-.383344-.615511-.253763-1.155432-.615511-1.625164-1.079843-.464332-.469732-.82608-1.009654-1.079843-1.625164-.253763-.610111-.383344-1.247219-.383344-1.911322 0-.664104.129581-1.301211.383344-1.916721.253763-.610112.615511-1.150033 1.079843-1.619765.469732-.469732 1.009653-.831479 1.625164-1.085242.610111-.253763 1.247218-.377945 1.911322-.377945.664103 0 1.301211.124182 1.916721.377945.610111.253763 1.150033.61551 1.619764 1.085242.469732.469732.83148 1.009653 1.085243 1.619765.253763.61551.377945 1.252617.377945 1.916721zm0 0" fill="none" stroke="#6c8ebf" stroke-width="2" transform="matrix(.723485 0 0 .723485 1 -3.03999)"/></g><use x="3.498284" xlink:href="#X" y="127.187277"/><path d="m8.957031 165.03125c0 .480469-.089843.941406-.273437 1.386719-.183594.441406-.445313.832031-.785156 1.171875-.339844.339844-.730469.601562-1.171876.785156-.445312.183594-.90625.273438-1.386718.273438-.480469 0-.941406-.089844-1.382813-.273438-.445312-.183594-.835937-.445312-1.175781-.785156-.335938-.339844-.597656-.730469-.78125-1.171875-.183594-.445313-.277344-.90625-.277344-1.386719 0-.476562.09375-.941406.277344-1.382812.183594-.441407.445312-.835938.78125-1.171876.339844-.339843.730469-.601562 1.175781-.785156.441407-.183594.902344-.277344 1.382813-.277344.480468 0 .941406.09375 1.386718.277344.441407.183594.832032.445313 1.171876.785156.339843.335938.601562.730469.785156 1.171876.183594.441406.273437.90625.273437 1.382812zm0 0" fill="#dae8fc"/><g clip-path="url(#k)"><path d="m10.998201 232.307902c0 .664103-.124182 1.301211-.377945 1.916721-.253763.610111-.615511 1.150033-1.085243 1.619765-.469731.469731-1.009653.831479-1.619764 1.085242-.61551.253763-1.252618.377945-1.916721.377945-.664104 0-1.301211-.124182-1.911322-.377945-.615511-.253763-1.155432-.615511-1.625164-1.085242-.464332-.469732-.82608-1.009654-1.079843-1.619765-.253763-.61551-.383344-1.252618-.383344-1.916721 0-.658704.129581-1.301211.383344-1.911322.253763-.610112.615511-1.155432 1.079843-1.619765.469732-.469731 1.009653-.831479 1.625164-1.085242.610111-.253763 1.247218-.383344 1.911322-.383344.664103 0 1.301211.129581 1.916721.383344.610111.253763 1.150033.615511 1.619764 1.085242.469732.464333.83148 1.009653 1.085243 1.619765.253763.610111.377945 1.252618.377945 1.911322zm0 0" fill="none" stroke="#6c8ebf" stroke-width="2" transform="matrix(.723485 0 0 .723485 1 -3.03999)"/></g><use x="3.860026" xlink:href="#Y" y="166.978942"/><path d="m8.957031 177.332031c0 .480469-.089843.941407-.273437 1.382813-.183594.445312-.445313.835937-.785156 1.175781-.339844.339844-.730469.601563-1.171876.785156-.445312.183594-.90625.273438-1.386718.273438-.480469 0-.941406-.089844-1.382813-.273438-.445312-.183593-.835937-.445312-1.175781-.785156-.335938-.339844-.597656-.730469-.78125-1.175781-.183594-.441406-.277344-.902344-.277344-1.382813s.09375-.941406.277344-1.382812c.183594-.445313.445312-.835938.78125-1.175781.339844-.339844.730469-.601563 1.175781-.785157.441407-.183593.902344-.273437 1.382813-.273437.480468 0 .941406.089844 1.386718.273437.441407.183594.832032.445313 1.171876.785157.339843.339843.601562.730468.785156 1.175781.183594.441406.273437.902343.273437 1.382812zm0 0" fill="#dae8fc"/><g clip-path="url(#l)"><path d="m10.998201 249.310029c0 .664104-.124182 1.301211-.377945 1.911323-.253763.61551-.615511 1.155432-1.085243 1.625163-.469731.469732-1.009653.831479-1.619764 1.085242-.61551.253763-1.252618.377945-1.916721.377945-.664104 0-1.301211-.124182-1.911322-.377945-.615511-.253763-1.155432-.61551-1.625164-1.085242-.464332-.469731-.82608-1.009653-1.079843-1.625163-.253763-.610112-.383344-1.247219-.383344-1.911323 0-.664103.129581-1.30121.383344-1.911322.253763-.61551.615511-1.155432 1.079843-1.625163.469732-.469732 1.009653-.831479 1.625164-1.085242.610111-.253764 1.247218-.377946 1.911322-.377946.664103 0 1.301211.124182 1.916721.377946.610111.253763 1.150033.61551 1.619764 1.085242.469732.469731.83148 1.009653 1.085243 1.625163.253763.610112.377945 1.247219.377945 1.911322zm0 0" fill="none" stroke="#6c8ebf" stroke-width="2" transform="matrix(.723485 0 0 .723485 1 -3.03999)"/></g><use x="3.498284" xlink:href="#Z" y="179.278184"/><g><use x="94.553829" xlink:href="#aa" y="178.541585"/><use x="94.553829" xlink:href="#aa" y="181.355686"/><use x="94.553829" xlink:href="#aa" y="184.169788"/></g><path d="m13.878109 49.692384 26.180793-10.091133" fill="none" stroke="#6c8ebf" stroke-miterlimit="10" transform="matrix(.723485 0 0 .723485 1.361742 -2.678248)"/><path d="m44.961389 37.711526-5.280432 5.787958.377945-3.898233-2.88858-2.640216zm0 0" fill="#6c8ebf" stroke="#6c8ebf" stroke-miterlimit="10" transform="matrix(.723485 0 0 .723485 1.361742 -2.678248)"/><g clip-path="url(#m)"><path d="m12.998037 49.309039 30.629746-.831479" fill="none" stroke="#6c8ebf" stroke-miterlimit="10" transform="matrix(.723485 0 0 .723485 1.361742 -2.678248)"/></g><path d="m48.881219 48.34258-6.900196 3.687664 1.64676-3.552684-1.835733-3.450098zm0 0" fill="#6c8ebf" stroke="#6c8ebf" stroke-miterlimit="10" transform="matrix(.723485 0 0 .723485 1.361742 -2.678248)"/><path d="m14.002291 49.309039 25.916232 8.098823" fill="none" stroke="#6c8ebf" stroke-miterlimit="10" transform="matrix(.723485 0 0 .723485 1.361742 -2.678248)"/><path d="m44.928994 58.979033-7.720877 1.252618 2.710406-2.823789-.62091-3.860439zm0 0" fill="#6c8ebf" stroke="#6c8ebf" stroke-miterlimit="10" transform="matrix(.723485 0 0 .723485 1.361742 -2.678248)"/><path d="m14.000164 264.422432v-230.114539" fill="none" stroke="#000" stroke-miterlimit="10" stroke-width="2" transform="matrix(.723485 0 0 .723485 1 -3.03999)"/><g><use x="38.01077" xlink:href="#q" y="35.304705"/><use x="43.801475" xlink:href="#q" y="35.304705"/><use x="49.59218" xlink:href="#P" y="35.304705"/><use x="55.382884" xlink:href="#S" y="35.304705"/><use x="57.794971" xlink:href="#z" y="35.304705"/><use x="63.585676" xlink:href="#P" y="35.304705"/><use x="69.376381" xlink:href="#o" y="35.304705"/><use x="75.646111" xlink:href="#B" y="35.304705"/></g><g><use x="24.75065" xlink:href="#q" y="49.050917"/><use x="30.541355" xlink:href="#T" y="49.050917"/><use x="32.953442" xlink:href="#P" y="49.050917"/></g><path d="m137.509332 27.102069h77.98086l3.50949 6.997382-3.50949 7.002782h-77.98086l-3.50949-7.002782zm0 0" fill="#e1d5e7" stroke="#9673a6" stroke-miterlimit="10" transform="matrix(.723485 0 0 .723485 1.361742 -2.678248)"/><g><use x="100.21916" xlink:href="#q" y="24.452433"/><use x="106.009865" xlink:href="#U" y="24.452433"/><use x="110.350774" xlink:href="#C" y="24.452433"/><use x="115.179187" xlink:href="#D" y="24.452433"/><use x="119.520096" xlink:href="#L" y="24.452433"/><use x="122.411209" xlink:href="#v" y="24.452433"/><use x="127.239622" xlink:href="#C" y="24.452433"/><use x="132.068036" xlink:href="#E" y="24.452433"/><use x="133.996857" xlink:href="#V" y="24.452433"/><use x="138.337766" xlink:href="#K" y="24.452433"/><use x="143.16618" xlink:href="#s" y="24.452433"/><use x="145.578267" xlink:href="#E" y="24.452433"/><use x="147.507089" xlink:href="#v" y="24.452433"/><use x="152.335502" xlink:href="#C" y="24.452433"/></g><path d="m137.509332 81.310186h77.98086l3.50949 6.997382-3.50949 7.002782h-77.98086l-3.50949-7.002782zm0 0" fill="#fff2cc" stroke="#d6b656" stroke-miterlimit="10" transform="matrix(.723485 0 0 .723485 1.361742 -2.678248)"/><g><use x="99.50698" xlink:href="#n" y="63.520613"/><use x="105.77671" xlink:href="#A" y="63.520613"/><use x="111.567415" xlink:href="#o" y="63.520613"/><use x="117.837146" xlink:href="#B" y="63.520613"/><use x="124.106877" xlink:href="#p" y="63.520613"/><use x="126.518964" xlink:href="#z" y="63.520613"/><use x="132.309668" xlink:href="#L" y="63.520613"/><use x="135.200782" xlink:href="#v" y="63.520613"/><use x="140.029195" xlink:href="#D" y="63.520613"/><use x="144.370104" xlink:href="#r" y="63.520613"/><use x="149.198517" xlink:href="#G" y="63.520613"/><use x="153.539426" xlink:href="#G" y="63.520613"/></g><path d="m137.509332 129.309206h77.98086l3.50949 7.002782-3.50949 6.997383h-77.98086l-3.50949-6.997383zm0 0" fill="#dae8fc" stroke="#6c8ebf" stroke-miterlimit="10" transform="matrix(.723485 0 0 .723485 1.361742 -2.678248)"/><g><use x="106.007039" xlink:href="#n" y="98.247884"/><use x="112.276769" xlink:href="#n" y="98.247884"/><use x="118.5465" xlink:href="#o" y="98.247884"/><use x="124.816231" xlink:href="#p" y="98.247884"/></g><g><use x="126.749292" xlink:href="#A" y="98.247884"/><use x="132.539997" xlink:href="#s" y="98.247884"/><use x="134.952084" xlink:href="#s" y="98.247884"/><use x="137.364171" xlink:href="#K" y="98.247884"/><use x="142.192584" xlink:href="#D" y="98.247884"/><use x="146.533493" xlink:href="#R" y="98.247884"/></g><path d="m137.509332 209.309373h77.98086l3.50949 7.002782-3.50949 6.997383h-77.98086l-3.50949-6.997383zm0 0" fill="#d5e8d4" stroke="#82b366" stroke-miterlimit="10" transform="matrix(.723485 0 0 .723485 1.361742 -2.678248)"/><g><use x="101.180038" xlink:href="#A" y="156.12667"/><use x="106.970743" xlink:href="#t" y="156.12667"/><use x="111.799156" xlink:href="#s" y="156.12667"/><use x="114.211243" xlink:href="#R" y="156.12667"/><use x="119.039657" xlink:href="#r" y="156.12667"/><use x="123.86807" xlink:href="#C" y="156.12667"/><use x="128.696483" xlink:href="#s" y="156.12667"/><use x="131.10857" xlink:href="#E" y="156.12667"/><use x="133.037392" xlink:href="#D" y="156.12667"/><use x="137.378301" xlink:href="#K" y="156.12667"/><use x="142.206714" xlink:href="#s" y="156.12667"/><use x="144.618801" xlink:href="#E" y="156.12667"/><use x="146.547623" xlink:href="#v" y="156.12667"/><use x="151.376037" xlink:href="#C" y="156.12667"/></g></svg>