<?xml version="1.0" encoding="UTF-8" standalone="no"?>
<!DOCTYPE svg PUBLIC "-//W3C//DTD SVG 1.1//EN"
 "http://www.w3.org/Graphics/SVG/1.1/DTD/svg11.dtd">
<!-- Generated by graphviz version 2.40.1 (20161225.0304)
 -->
<!-- Title: %3 Pages: 1 -->
<svg width="522pt" height="798pt"
 viewBox="0.00 0.00 521.50 798.00" xmlns="http://www.w3.org/2000/svg" xmlns:xlink="http://www.w3.org/1999/xlink">
<g id="graph0" class="graph" transform="scale(1 1) rotate(0) translate(4 794)">
<title>%3</title>
<polygon fill="#ffffff" stroke="transparent" points="-4,4 -4,-794 517.5,-794 517.5,4 -4,4"/>
<!-- n0 -->
<g id="node1" class="node">
<title>n0</title>
<polygon fill="none" stroke="#000000" points="351.5,-790 297.5,-790 297.5,-767 351.5,-767 351.5,-790"/>
<text text-anchor="middle" x="324.5" y="-774.8" font-family="Times,serif" font-size="14.00" fill="#000000">IDLE</text>
</g>
<!-- n1 -->
<g id="node2" class="node">
<title>n1</title>
<polygon fill="none" stroke="#000000" points="459.5,-731 189.5,-731 189.5,-708 459.5,-708 459.5,-731"/>
<text text-anchor="middle" x="324.5" y="-715.8" font-family="Times,serif" font-size="14.00" fill="#000000">RX / Connection REQ / #2 / CONNECT_IND</text>
</g>
<!-- n0&#45;&gt;n1 -->
<g id="edge1" class="edge">
<title>n0&#45;&gt;n1</title>
<path fill="none" stroke="#000000" d="M324.5,-766.8435C324.5,-759.5707 324.5,-749.9803 324.5,-741.3339"/>
<polygon fill="#000000" stroke="#000000" points="328.0001,-741.1323 324.5,-731.1323 321.0001,-741.1323 328.0001,-741.1323"/>
</g>
<!-- n2 -->
<g id="node3" class="node">
<title>n2</title>
<polygon fill="none" stroke="#000000" points="353,-672 182,-672 182,-649 353,-649 353,-672"/>
<text text-anchor="middle" x="267.5" y="-656.8" font-family="Times,serif" font-size="14.00" fill="#000000">TX / SMP / Pairing Request</text>
</g>
<!-- n1&#45;&gt;n2 -->
<g id="edge2" class="edge">
<title>n1&#45;&gt;n2</title>
<path fill="none" stroke="#000000" d="M313.2386,-707.8435C305.4317,-699.7626 294.8604,-688.8204 285.8475,-679.4912"/>
<polygon fill="#000000" stroke="#000000" points="288.2033,-676.8924 278.738,-672.1323 283.1689,-681.7561 288.2033,-676.8924"/>
</g>
<!-- n3 -->
<g id="node4" class="node">
<title>n3</title>
<polygon fill="none" stroke="#000000" points="353.5,-613 173.5,-613 173.5,-590 353.5,-590 353.5,-613"/>
<text text-anchor="middle" x="263.5" y="-597.8" font-family="Times,serif" font-size="14.00" fill="#000000">RX / SMP / Pairing Response</text>
</g>
<!-- n2&#45;&gt;n3 -->
<g id="edge3" class="edge">
<title>n2&#45;&gt;n3</title>
<path fill="none" stroke="#000000" d="M266.7097,-648.8435C266.2167,-641.5707 265.5665,-631.9803 264.9803,-623.3339"/>
<polygon fill="#000000" stroke="#000000" points="268.4571,-622.8726 264.2886,-613.1323 261.4732,-623.3462 268.4571,-622.8726"/>
</g>
<!-- n4 -->
<g id="node5" class="node">
<title>n4</title>
<polygon fill="none" stroke="#000000" points="355.5,-554 167.5,-554 167.5,-531 355.5,-531 355.5,-554"/>
<text text-anchor="middle" x="261.5" y="-538.8" font-family="Times,serif" font-size="14.00" fill="#000000">TX / SMP / Pairing Public Key</text>
</g>
<!-- n3&#45;&gt;n4 -->
<g id="edge4" class="edge">
<title>n3&#45;&gt;n4</title>
<path fill="none" stroke="#000000" d="M263.1049,-589.8435C262.8583,-582.5707 262.5332,-572.9803 262.2401,-564.3339"/>
<polygon fill="#000000" stroke="#000000" points="265.7312,-564.0079 261.8943,-554.1323 258.7352,-564.2452 265.7312,-564.0079"/>
</g>
<!-- n5 -->
<g id="node6" class="node">
<title>n5</title>
<polygon fill="none" stroke="#000000" points="355,-495 166,-495 166,-472 355,-472 355,-495"/>
<text text-anchor="middle" x="260.5" y="-479.8" font-family="Times,serif" font-size="14.00" fill="#000000">RX / SMP / Pairing Public Key</text>
</g>
<!-- n4&#45;&gt;n5 -->
<g id="edge5" class="edge">
<title>n4&#45;&gt;n5</title>
<path fill="none" stroke="#000000" d="M261.3024,-530.8435C261.1792,-523.5707 261.0166,-513.9803 260.8701,-505.3339"/>
<polygon fill="#000000" stroke="#000000" points="264.3662,-505.0715 260.6972,-495.1323 257.3672,-505.1902 264.3662,-505.0715"/>
</g>
<!-- n6 -->
<g id="node7" class="node">
<title>n6</title>
<polygon fill="none" stroke="#000000" points="348,-436 173,-436 173,-413 348,-413 348,-436"/>
<text text-anchor="middle" x="260.5" y="-420.8" font-family="Times,serif" font-size="14.00" fill="#000000">RX / SMP / Pairing Confirm</text>
</g>
<!-- n5&#45;&gt;n6 -->
<g id="edge6" class="edge">
<title>n5&#45;&gt;n6</title>
<path fill="none" stroke="#000000" d="M260.5,-471.8435C260.5,-464.5707 260.5,-454.9803 260.5,-446.3339"/>
<polygon fill="#000000" stroke="#000000" points="264.0001,-446.1323 260.5,-436.1323 257.0001,-446.1323 264.0001,-446.1323"/>
</g>
<!-- n7 -->
<g id="node8" class="node">
<title>n7</title>
<polygon fill="none" stroke="#000000" points="347.5,-377 173.5,-377 173.5,-354 347.5,-354 347.5,-377"/>
<text text-anchor="middle" x="260.5" y="-361.8" font-family="Times,serif" font-size="14.00" fill="#000000">TX / SMP / Pairing Random</text>
</g>
<!-- n6&#45;&gt;n7 -->
<g id="edge7" class="edge">
<title>n6&#45;&gt;n7</title>
<path fill="none" stroke="#000000" d="M260.5,-412.8435C260.5,-405.5707 260.5,-395.9803 260.5,-387.3339"/>
<polygon fill="#000000" stroke="#000000" points="264.0001,-387.1323 260.5,-377.1323 257.0001,-387.1323 264.0001,-387.1323"/>
</g>
<!-- n8 -->
<g id="node9" class="node">
<title>n8</title>
<polygon fill="none" stroke="#000000" points="348,-318 173,-318 173,-295 348,-295 348,-318"/>
<text text-anchor="middle" x="260.5" y="-302.8" font-family="Times,serif" font-size="14.00" fill="#000000">RX / SMP / Pairing Random</text>
</g>
<!-- n7&#45;&gt;n8 -->
<g id="edge8" class="edge">
<title>n7&#45;&gt;n8</title>
<path fill="none" stroke="#000000" d="M260.5,-353.8435C260.5,-346.5707 260.5,-336.9803 260.5,-328.3339"/>
<polygon fill="#000000" stroke="#000000" points="264.0001,-328.1323 260.5,-318.1323 257.0001,-328.1323 264.0001,-328.1323"/>
</g>
<!-- n9 -->
<g id="node10" class="node">
<title>n9</title>
<polygon fill="none" stroke="#000000" points="513.5,-259 253.5,-259 253.5,-236 513.5,-236 513.5,-259"/>
<text text-anchor="middle" x="383.5" y="-243.8" font-family="Times,serif" font-size="14.00" fill="#000000">RX / LL Ctrl IND / LL_TERMINATE_IND</text>
</g>
<!-- n8&#45;&gt;n9 -->
<g id="edge9" class="edge">
<title>n8&#45;&gt;n9</title>
<path fill="none" stroke="#000000" d="M284.5076,-294.9841C303.1808,-286.0271 329.3111,-273.493 350.0366,-263.5516"/>
<polygon fill="#000000" stroke="#000000" points="351.6299,-266.6692 359.1326,-259.1884 348.6024,-260.3577 351.6299,-266.6692"/>
</g>
<!-- n10 -->
<g id="node11" class="node">
<title>n10</title>
<polygon fill="none" stroke="#000000" points="235.5,-259 27.5,-259 27.5,-236 235.5,-236 235.5,-259"/>
<text text-anchor="middle" x="131.5" y="-243.8" font-family="Times,serif" font-size="14.00" fill="#000000">TX / SMP / Pairing DHKey Check</text>
</g>
<!-- n8&#45;&gt;n10 -->
<g id="edge11" class="edge">
<title>n8&#45;&gt;n10</title>
<path fill="none" stroke="#000000" d="M235.3213,-294.9841C215.6489,-285.9867 188.0852,-273.38 166.3024,-263.4174"/>
<polygon fill="#000000" stroke="#000000" points="167.6059,-260.1649 157.0561,-259.1884 164.6943,-266.5307 167.6059,-260.1649"/>
</g>
<!-- n9&#45;&gt;n1 -->
<g id="edge10" class="edge">
<title>n9&#45;&gt;n1</title>
<path fill="none" stroke="#000000" d="M383.5,-259.2239C383.5,-280.4306 383.5,-326.5764 383.5,-365.5 383.5,-601.5 383.5,-601.5 383.5,-601.5 383.5,-634.1939 377.6589,-643.0328 362.5,-672 357.2117,-682.1055 349.6222,-692.1384 342.6144,-700.3615"/>
<polygon fill="#000000" stroke="#000000" points="339.9286,-698.1149 335.9072,-707.9169 345.1635,-702.7621 339.9286,-698.1149"/>
</g>
<!-- n11 -->
<g id="node12" class="node">
<title>n11</title>
<polygon fill="none" stroke="#000000" points="236,-200 27,-200 27,-177 236,-177 236,-200"/>
<text text-anchor="middle" x="131.5" y="-184.8" font-family="Times,serif" font-size="14.00" fill="#000000">RX / SMP / Pairing DHKey Check</text>
</g>
<!-- n10&#45;&gt;n11 -->
<g id="edge12" class="edge">
<title>n10&#45;&gt;n11</title>
<path fill="none" stroke="#000000" d="M131.5,-235.8435C131.5,-228.5707 131.5,-218.9803 131.5,-210.3339"/>
<polygon fill="#000000" stroke="#000000" points="135.0001,-210.1323 131.5,-200.1323 128.0001,-210.1323 135.0001,-210.1323"/>
</g>
<!-- n12 -->
<g id="node13" class="node">
<title>n12</title>
<polygon fill="none" stroke="#000000" points="238,-141 25,-141 25,-118 238,-118 238,-141"/>
<text text-anchor="middle" x="131.5" y="-125.8" font-family="Times,serif" font-size="14.00" fill="#000000">TX / LL Ctrl REQ / LL_ENC_REQ</text>
</g>
<!-- n11&#45;&gt;n12 -->
<g id="edge13" class="edge">
<title>n11&#45;&gt;n12</title>
<path fill="none" stroke="#000000" d="M131.5,-176.8435C131.5,-169.5707 131.5,-159.9803 131.5,-151.3339"/>
<polygon fill="#000000" stroke="#000000" points="135.0001,-151.1323 131.5,-141.1323 128.0001,-151.1323 135.0001,-151.1323"/>
</g>
<!-- n13 -->
<g id="node14" class="node">
<title>n13</title>
<polygon fill="none" stroke="#000000" points="235.5,-82 27.5,-82 27.5,-59 235.5,-59 235.5,-82"/>
<text text-anchor="middle" x="131.5" y="-66.8" font-family="Times,serif" font-size="14.00" fill="#000000">RX / LL Ctrl RSP / LL_ENC_RSP</text>
</g>
<!-- n12&#45;&gt;n13 -->
<g id="edge14" class="edge">
<title>n12&#45;&gt;n13</title>
<path fill="none" stroke="#000000" d="M131.5,-117.8435C131.5,-110.5707 131.5,-100.9803 131.5,-92.3339"/>
<polygon fill="#000000" stroke="#000000" points="135.0001,-92.1323 131.5,-82.1323 128.0001,-92.1323 135.0001,-92.1323"/>
</g>
<!-- n14 -->
<g id="node15" class="node">
<title>n14</title>
<polygon fill="none" stroke="#000000" points="263,-23 0,-23 0,0 263,0 263,-23"/>
<text text-anchor="middle" x="131.5" y="-7.8" font-family="Times,serif" font-size="14.00" fill="#000000">RX / LL Ctrl REQ / LL_START_ENC_REQ</text>
</g>
<!-- n13&#45;&gt;n14 -->
<g id="edge15" class="edge">
<title>n13&#45;&gt;n14</title>
<path fill="none" stroke="#000000" d="M131.5,-58.8435C131.5,-51.5707 131.5,-41.9803 131.5,-33.3339"/>
<polygon fill="#000000" stroke="#000000" points="135.0001,-33.1323 131.5,-23.1323 128.0001,-33.1323 135.0001,-33.1323"/>
</g>
</g>
</svg>
