<?xml version="1.0" encoding="UTF-8" standalone="no"?>
<!DOCTYPE svg PUBLIC "-//W3C//DTD SVG 1.1//EN"
 "http://www.w3.org/Graphics/SVG/1.1/DTD/svg11.dtd">
<!-- Generated by graphviz version 2.40.1 (20161225.0304)
 -->
<!-- Title: %3 Pages: 1 -->
<svg width="404pt" height="1211pt"
 viewBox="0.00 0.00 404.00 1211.00" xmlns="http://www.w3.org/2000/svg" xmlns:xlink="http://www.w3.org/1999/xlink">
<g id="graph0" class="graph" transform="scale(1 1) rotate(0) translate(4 1207)">
<title>%3</title>
<polygon fill="#ffffff" stroke="transparent" points="-4,4 -4,-1207 400,-1207 400,4 -4,4"/>
<!-- n0 -->
<g id="node1" class="node">
<title>n0</title>
<polygon fill="none" stroke="#000000" points="288,-1203 234,-1203 234,-1180 288,-1180 288,-1203"/>
<text text-anchor="middle" x="261" y="-1187.8" font-family="Times,serif" font-size="14.00" fill="#000000">IDLE</text>
</g>
<!-- n1 -->
<g id="node2" class="node">
<title>n1</title>
<polygon fill="none" stroke="#000000" points="396,-1144 126,-1144 126,-1121 396,-1121 396,-1144"/>
<text text-anchor="middle" x="261" y="-1128.8" font-family="Times,serif" font-size="14.00" fill="#000000">RX / Connection REQ / #2 / CONNECT_IND</text>
</g>
<!-- n0&#45;&gt;n1 -->
<g id="edge1" class="edge">
<title>n0&#45;&gt;n1</title>
<path fill="none" stroke="#000000" d="M261,-1179.8435C261,-1172.5707 261,-1162.9803 261,-1154.3339"/>
<polygon fill="#000000" stroke="#000000" points="264.5001,-1154.1323 261,-1144.1323 257.5001,-1154.1323 264.5001,-1154.1323"/>
</g>
<!-- n2 -->
<g id="node3" class="node">
<title>n2</title>
<polygon fill="none" stroke="#000000" points="289.5,-1085 118.5,-1085 118.5,-1062 289.5,-1062 289.5,-1085"/>
<text text-anchor="middle" x="204" y="-1069.8" font-family="Times,serif" font-size="14.00" fill="#000000">TX / SMP / Pairing Request</text>
</g>
<!-- n1&#45;&gt;n2 -->
<g id="edge2" class="edge">
<title>n1&#45;&gt;n2</title>
<path fill="none" stroke="#000000" d="M249.7386,-1120.8435C241.9317,-1112.7626 231.3604,-1101.8204 222.3475,-1092.4912"/>
<polygon fill="#000000" stroke="#000000" points="224.7033,-1089.8924 215.238,-1085.1323 219.6689,-1094.7561 224.7033,-1089.8924"/>
</g>
<!-- n3 -->
<g id="node4" class="node">
<title>n3</title>
<polygon fill="none" stroke="#000000" points="290,-1026 110,-1026 110,-1003 290,-1003 290,-1026"/>
<text text-anchor="middle" x="200" y="-1010.8" font-family="Times,serif" font-size="14.00" fill="#000000">RX / SMP / Pairing Response</text>
</g>
<!-- n2&#45;&gt;n3 -->
<g id="edge3" class="edge">
<title>n2&#45;&gt;n3</title>
<path fill="none" stroke="#000000" d="M203.2097,-1061.8435C202.7167,-1054.5707 202.0665,-1044.9803 201.4803,-1036.3339"/>
<polygon fill="#000000" stroke="#000000" points="204.9571,-1035.8726 200.7886,-1026.1323 197.9732,-1036.3462 204.9571,-1035.8726"/>
</g>
<!-- n4 -->
<g id="node5" class="node">
<title>n4</title>
<polygon fill="none" stroke="#000000" points="292,-967 104,-967 104,-944 292,-944 292,-967"/>
<text text-anchor="middle" x="198" y="-951.8" font-family="Times,serif" font-size="14.00" fill="#000000">TX / SMP / Pairing Public Key</text>
</g>
<!-- n3&#45;&gt;n4 -->
<g id="edge4" class="edge">
<title>n3&#45;&gt;n4</title>
<path fill="none" stroke="#000000" d="M199.6049,-1002.8435C199.3583,-995.5707 199.0332,-985.9803 198.7401,-977.3339"/>
<polygon fill="#000000" stroke="#000000" points="202.2312,-977.0079 198.3943,-967.1323 195.2352,-977.2452 202.2312,-977.0079"/>
</g>
<!-- n5 -->
<g id="node6" class="node">
<title>n5</title>
<polygon fill="none" stroke="#000000" points="286.5,-908 97.5,-908 97.5,-885 286.5,-885 286.5,-908"/>
<text text-anchor="middle" x="192" y="-892.8" font-family="Times,serif" font-size="14.00" fill="#000000">RX / SMP / Pairing Public Key</text>
</g>
<!-- n4&#45;&gt;n5 -->
<g id="edge5" class="edge">
<title>n4&#45;&gt;n5</title>
<path fill="none" stroke="#000000" d="M196.8146,-943.8435C196.075,-936.5707 195.0997,-926.9803 194.2204,-918.3339"/>
<polygon fill="#000000" stroke="#000000" points="197.6768,-917.7268 193.1829,-908.1323 190.7127,-918.4351 197.6768,-917.7268"/>
</g>
<!-- n6 -->
<g id="node7" class="node">
<title>n6</title>
<polygon fill="none" stroke="#000000" points="270.5,-849 95.5,-849 95.5,-826 270.5,-826 270.5,-849"/>
<text text-anchor="middle" x="183" y="-833.8" font-family="Times,serif" font-size="14.00" fill="#000000">RX / SMP / Pairing Confirm</text>
</g>
<!-- n5&#45;&gt;n6 -->
<g id="edge6" class="edge">
<title>n5&#45;&gt;n6</title>
<path fill="none" stroke="#000000" d="M190.2219,-884.8435C189.1002,-877.4899 187.617,-867.7669 186.2867,-859.046"/>
<polygon fill="#000000" stroke="#000000" points="189.7425,-858.4901 184.7744,-849.1323 182.8225,-859.5458 189.7425,-858.4901"/>
</g>
<!-- n7 -->
<g id="node8" class="node">
<title>n7</title>
<polygon fill="none" stroke="#000000" points="252,-790 78,-790 78,-767 252,-767 252,-790"/>
<text text-anchor="middle" x="165" y="-774.8" font-family="Times,serif" font-size="14.00" fill="#000000">TX / SMP / Pairing Random</text>
</g>
<!-- n6&#45;&gt;n7 -->
<g id="edge7" class="edge">
<title>n6&#45;&gt;n7</title>
<path fill="none" stroke="#000000" d="M179.4438,-825.8435C177.1757,-818.4091 174.1687,-808.5529 171.4858,-799.7589"/>
<polygon fill="#000000" stroke="#000000" points="174.8146,-798.6757 168.5488,-790.1323 168.1193,-800.7184 174.8146,-798.6757"/>
</g>
<!-- n8 -->
<g id="node9" class="node">
<title>n8</title>
<polygon fill="none" stroke="#000000" points="247.5,-731 72.5,-731 72.5,-708 247.5,-708 247.5,-731"/>
<text text-anchor="middle" x="160" y="-715.8" font-family="Times,serif" font-size="14.00" fill="#000000">RX / SMP / Pairing Random</text>
</g>
<!-- n7&#45;&gt;n8 -->
<g id="edge8" class="edge">
<title>n7&#45;&gt;n8</title>
<path fill="none" stroke="#000000" d="M164.0122,-766.8435C163.3958,-759.5707 162.5831,-749.9803 161.8503,-741.3339"/>
<polygon fill="#000000" stroke="#000000" points="165.3178,-740.801 160.9858,-731.1323 158.3428,-741.3922 165.3178,-740.801"/>
</g>
<!-- n9 -->
<g id="node10" class="node">
<title>n9</title>
<polygon fill="none" stroke="#000000" points="290,-23 30,-23 30,0 290,0 290,-23"/>
<text text-anchor="middle" x="160" y="-7.8" font-family="Times,serif" font-size="14.00" fill="#000000">RX / LL Ctrl IND / LL_TERMINATE_IND</text>
</g>
<!-- n8&#45;&gt;n9 -->
<g id="edge9" class="edge">
<title>n8&#45;&gt;n9</title>
<path fill="none" stroke="#000000" d="M116.7017,-707.9504C69.317,-692.3776 0,-659.6578 0,-601.5 0,-601.5 0,-601.5 0,-129.5 0,-75.2043 60.4165,-43.0802 106.9983,-26.3813"/>
<polygon fill="#000000" stroke="#000000" points="108.3803,-29.6074 116.7017,-23.0496 106.107,-22.9868 108.3803,-29.6074"/>
</g>
<!-- n10 -->
<g id="node11" class="node">
<title>n10</title>
<polygon fill="none" stroke="#000000" points="264,-672 56,-672 56,-649 264,-649 264,-672"/>
<text text-anchor="middle" x="160" y="-656.8" font-family="Times,serif" font-size="14.00" fill="#000000">TX / SMP / Pairing DHKey Check</text>
</g>
<!-- n8&#45;&gt;n10 -->
<g id="edge11" class="edge">
<title>n8&#45;&gt;n10</title>
<path fill="none" stroke="#000000" d="M160,-707.8435C160,-700.5707 160,-690.9803 160,-682.3339"/>
<polygon fill="#000000" stroke="#000000" points="163.5001,-682.1323 160,-672.1323 156.5001,-682.1323 163.5001,-682.1323"/>
</g>
<!-- n9&#45;&gt;n1 -->
<g id="edge10" class="edge">
<title>n9&#45;&gt;n1</title>
<path fill="none" stroke="#000000" d="M203.2983,-23.0496C250.683,-38.6224 320,-71.3422 320,-129.5 320,-1014.5 320,-1014.5 320,-1014.5 320,-1047.1939 314.1589,-1056.0328 299,-1085 293.7117,-1095.1055 286.1222,-1105.1384 279.1144,-1113.3615"/>
<polygon fill="#000000" stroke="#000000" points="276.4286,-1111.1149 272.4072,-1120.9169 281.6635,-1115.7621 276.4286,-1111.1149"/>
</g>
<!-- n11 -->
<g id="node12" class="node">
<title>n11</title>
<polygon fill="none" stroke="#000000" points="264.5,-613 55.5,-613 55.5,-590 264.5,-590 264.5,-613"/>
<text text-anchor="middle" x="160" y="-597.8" font-family="Times,serif" font-size="14.00" fill="#000000">RX / SMP / Pairing DHKey Check</text>
</g>
<!-- n10&#45;&gt;n11 -->
<g id="edge12" class="edge">
<title>n10&#45;&gt;n11</title>
<path fill="none" stroke="#000000" d="M160,-648.8435C160,-641.5707 160,-631.9803 160,-623.3339"/>
<polygon fill="#000000" stroke="#000000" points="163.5001,-623.1323 160,-613.1323 156.5001,-623.1323 163.5001,-623.1323"/>
</g>
<!-- n12 -->
<g id="node13" class="node">
<title>n12</title>
<polygon fill="none" stroke="#000000" points="266.5,-554 53.5,-554 53.5,-531 266.5,-531 266.5,-554"/>
<text text-anchor="middle" x="160" y="-538.8" font-family="Times,serif" font-size="14.00" fill="#000000">TX / LL Ctrl REQ / LL_ENC_REQ</text>
</g>
<!-- n11&#45;&gt;n12 -->
<g id="edge13" class="edge">
<title>n11&#45;&gt;n12</title>
<path fill="none" stroke="#000000" d="M160,-589.8435C160,-582.5707 160,-572.9803 160,-564.3339"/>
<polygon fill="#000000" stroke="#000000" points="163.5001,-564.1323 160,-554.1323 156.5001,-564.1323 163.5001,-564.1323"/>
</g>
<!-- n13 -->
<g id="node14" class="node">
<title>n13</title>
<polygon fill="none" stroke="#000000" points="264,-495 56,-495 56,-472 264,-472 264,-495"/>
<text text-anchor="middle" x="160" y="-479.8" font-family="Times,serif" font-size="14.00" fill="#000000">RX / LL Ctrl RSP / LL_ENC_RSP</text>
</g>
<!-- n12&#45;&gt;n13 -->
<g id="edge14" class="edge">
<title>n12&#45;&gt;n13</title>
<path fill="none" stroke="#000000" d="M160,-530.8435C160,-523.5707 160,-513.9803 160,-505.3339"/>
<polygon fill="#000000" stroke="#000000" points="163.5001,-505.1323 160,-495.1323 156.5001,-505.1323 163.5001,-505.1323"/>
</g>
<!-- n14 -->
<g id="node15" class="node">
<title>n14</title>
<polygon fill="none" stroke="#000000" points="291.5,-436 28.5,-436 28.5,-413 291.5,-413 291.5,-436"/>
<text text-anchor="middle" x="160" y="-420.8" font-family="Times,serif" font-size="14.00" fill="#000000">RX / LL Ctrl REQ / LL_START_ENC_REQ</text>
</g>
<!-- n13&#45;&gt;n14 -->
<g id="edge15" class="edge">
<title>n13&#45;&gt;n14</title>
<path fill="none" stroke="#000000" d="M160,-471.8435C160,-464.5707 160,-454.9803 160,-446.3339"/>
<polygon fill="#000000" stroke="#000000" points="163.5001,-446.1323 160,-436.1323 156.5001,-446.1323 163.5001,-446.1323"/>
</g>
<!-- n15 -->
<g id="node16" class="node">
<title>n15</title>
<polygon fill="none" stroke="#000000" points="288.5,-377 31.5,-377 31.5,-354 288.5,-354 288.5,-377"/>
<text text-anchor="middle" x="160" y="-361.8" font-family="Times,serif" font-size="14.00" fill="#000000">TX / LL Ctrl RSP / LL_START_ENC_RSP</text>
</g>
<!-- n14&#45;&gt;n15 -->
<g id="edge16" class="edge">
<title>n14&#45;&gt;n15</title>
<path fill="none" stroke="#000000" d="M160,-412.8435C160,-405.5707 160,-395.9803 160,-387.3339"/>
<polygon fill="#000000" stroke="#000000" points="163.5001,-387.1323 160,-377.1323 156.5001,-387.1323 163.5001,-387.1323"/>
</g>
<!-- n16 -->
<g id="node17" class="node">
<title>n16</title>
<polygon fill="none" stroke="#000000" points="288.5,-318 31.5,-318 31.5,-295 288.5,-295 288.5,-318"/>
<text text-anchor="middle" x="160" y="-302.8" font-family="Times,serif" font-size="14.00" fill="#000000">RX / LL Ctrl RSP / LL_START_ENC_RSP</text>
</g>
<!-- n15&#45;&gt;n16 -->
<g id="edge17" class="edge">
<title>n15&#45;&gt;n16</title>
<path fill="none" stroke="#000000" d="M160,-353.8435C160,-346.5707 160,-336.9803 160,-328.3339"/>
<polygon fill="#000000" stroke="#000000" points="163.5001,-328.1323 160,-318.1323 156.5001,-328.1323 163.5001,-328.1323"/>
</g>
<!-- n17 -->
<g id="node18" class="node">
<title>n17</title>
<polygon fill="none" stroke="#000000" points="267.5,-259 52.5,-259 52.5,-236 267.5,-236 267.5,-259"/>
<text text-anchor="middle" x="160" y="-243.8" font-family="Times,serif" font-size="14.00" fill="#000000">RX / SMP / Encryption Information</text>
</g>
<!-- n16&#45;&gt;n17 -->
<g id="edge18" class="edge">
<title>n16&#45;&gt;n17</title>
<path fill="none" stroke="#000000" d="M160,-294.8435C160,-287.5707 160,-277.9803 160,-269.3339"/>
<polygon fill="#000000" stroke="#000000" points="163.5001,-269.1323 160,-259.1323 156.5001,-269.1323 163.5001,-269.1323"/>
</g>
<!-- n18 -->
<g id="node19" class="node">
<title>n18</title>
<polygon fill="none" stroke="#000000" points="260,-200 60,-200 60,-177 260,-177 260,-200"/>
<text text-anchor="middle" x="160" y="-184.8" font-family="Times,serif" font-size="14.00" fill="#000000">RX / SMP / Master Identification</text>
</g>
<!-- n17&#45;&gt;n18 -->
<g id="edge19" class="edge">
<title>n17&#45;&gt;n18</title>
<path fill="none" stroke="#000000" d="M160,-235.8435C160,-228.5707 160,-218.9803 160,-210.3339"/>
<polygon fill="#000000" stroke="#000000" points="163.5001,-210.1323 160,-200.1323 156.5001,-210.1323 163.5001,-210.1323"/>
</g>
<!-- n19 -->
<g id="node20" class="node">
<title>n19</title>
<polygon fill="none" stroke="#000000" points="267,-141 53,-141 53,-118 267,-118 267,-141"/>
<text text-anchor="middle" x="160" y="-125.8" font-family="Times,serif" font-size="14.00" fill="#000000">TX / SMP / Encryption Information</text>
</g>
<!-- n18&#45;&gt;n19 -->
<g id="edge20" class="edge">
<title>n18&#45;&gt;n19</title>
<path fill="none" stroke="#000000" d="M160,-176.8435C160,-169.5707 160,-159.9803 160,-151.3339"/>
<polygon fill="#000000" stroke="#000000" points="163.5001,-151.1323 160,-141.1323 156.5001,-151.1323 163.5001,-151.1323"/>
</g>
<!-- n20 -->
<g id="node21" class="node">
<title>n20</title>
<polygon fill="none" stroke="#000000" points="260,-82 60,-82 60,-59 260,-59 260,-82"/>
<text text-anchor="middle" x="160" y="-66.8" font-family="Times,serif" font-size="14.00" fill="#000000">TX / SMP / Master Identification</text>
</g>
<!-- n19&#45;&gt;n20 -->
<g id="edge21" class="edge">
<title>n19&#45;&gt;n20</title>
<path fill="none" stroke="#000000" d="M160,-117.8435C160,-110.5707 160,-100.9803 160,-92.3339"/>
<polygon fill="#000000" stroke="#000000" points="163.5001,-92.1323 160,-82.1323 156.5001,-92.1323 163.5001,-92.1323"/>
</g>
<!-- n20&#45;&gt;n9 -->
<g id="edge22" class="edge">
<title>n20&#45;&gt;n9</title>
<path fill="none" stroke="#000000" d="M160,-58.8435C160,-51.5707 160,-41.9803 160,-33.3339"/>
<polygon fill="#000000" stroke="#000000" points="163.5001,-33.1323 160,-23.1323 156.5001,-33.1323 163.5001,-33.1323"/>
</g>
</g>
</svg>
